<?xml version="1.0" encoding="UTF-8" standalone="no"?>
<svg
   width="28"
   height="28"
   viewBox="0 0 7.4083333 7.4083338"
   version="1.1"
   id="svg919"
   xmlns="http://www.w3.org/2000/svg"
   xmlns:svg="http://www.w3.org/2000/svg"
   xmlns:rdf="http://www.w3.org/1999/02/22-rdf-syntax-ns#"
   xmlns:cc="http://creativecommons.org/ns#"
   xmlns:dc="http://purl.org/dc/elements/1.1/">
  <defs
     id="defs849">
    <clipPath
       id="clipPath6279-3">
      <rect
         x="26.85"
         y="220.75"
         id="rect6281-9"
         height="6.3750005"
         width="3.8250003"
         style="color:#bebebe;display:inline;overflow:visible;visibility:visible;fill:#bebebe;fill-opacity:1;fill-rule:nonzero;stroke:none;stroke-width:2;marker:none" />
    </clipPath>
    <clipPath
       id="clipPath6265-334">
      <rect
         x="26.96591"
         y="221.32954"
         id="rect6267-61"
         height="5.21591"
         width="2.8977277"
         style="color:#bebebe;display:inline;overflow:visible;visibility:visible;fill:#bebebe;fill-opacity:1;fill-rule:nonzero;stroke:none;stroke-width:2;marker:none" />
    </clipPath>
    <clipPath
       id="clipPath6259-5">
      <rect
         x="26.998718"
         y="221.50153"
         id="rect6261-61"
         height="4.8734746"
         width="1.8762827"
         style="color:#bebebe;display:inline;overflow:visible;visibility:visible;fill:#bebebe;fill-opacity:1;stroke:none;stroke-width:2;marker:none" />
    </clipPath>
    <clipPath
       id="clipPath6259-8-8-8"
       clipPathUnits="userSpaceOnUse">
      <rect
         x="26.998718"
         y="221.50153"
         id="rect6261-6-0-7"
         height="4.8734746"
         style="color:#bebebe;display:inline;overflow:visible;visibility:visible;fill:#bebebe;fill-opacity:1;stroke:none;stroke-width:2;marker:none"
         width="1.8762827" />
    </clipPath>
    <clipPath
       id="clipPath6265-3-5-6"
       clipPathUnits="userSpaceOnUse">
      <rect
         x="26.96591"
         y="221.32954"
         id="rect6267-1-8-1"
         height="5.21591"
         style="color:#bebebe;display:inline;overflow:visible;visibility:visible;fill:#bebebe;fill-opacity:1;fill-rule:nonzero;stroke:none;stroke-width:2;marker:none"
         width="2.8977277" />
    </clipPath>
    <clipPath
       id="clipPath6279-2-3"
       clipPathUnits="userSpaceOnUse">
      <rect
         x="26.85"
         y="220.75"
         id="rect6281-5-3"
         height="6.3750005"
         style="color:#bebebe;display:inline;overflow:visible;visibility:visible;fill:#bebebe;fill-opacity:1;fill-rule:nonzero;stroke:none;stroke-width:2;marker:none"
         width="3.8250003" />
    </clipPath>
    <clipPath
       id="clipPath6279-3-3">
      <rect
         x="26.85"
         y="220.75"
         id="rect6281-9-6"
         height="6.3750005"
         width="3.8250003"
         style="color:#bebebe;display:inline;overflow:visible;visibility:visible;fill:#bebebe;fill-opacity:1;fill-rule:nonzero;stroke:none;stroke-width:2;marker:none" />
    </clipPath>
    <clipPath
       id="clipPath6265-334-7">
      <rect
         x="26.96591"
         y="221.32954"
         id="rect6267-61-5"
         height="5.21591"
         width="2.8977277"
         style="color:#bebebe;display:inline;overflow:visible;visibility:visible;fill:#bebebe;fill-opacity:1;fill-rule:nonzero;stroke:none;stroke-width:2;marker:none" />
    </clipPath>
    <clipPath
       id="clipPath6259-5-3">
      <rect
         x="26.998718"
         y="221.50153"
         id="rect6261-61-5"
         height="4.8734746"
         width="1.8762827"
         style="color:#bebebe;display:inline;overflow:visible;visibility:visible;fill:#bebebe;fill-opacity:1;stroke:none;stroke-width:2;marker:none" />
    </clipPath>
    <clipPath
       id="clipPath6279-2-3-6"
       clipPathUnits="userSpaceOnUse">
      <rect
         x="26.85"
         y="220.75"
         id="rect6281-5-3-2"
         height="6.3750005"
         style="color:#bebebe;display:inline;overflow:visible;visibility:visible;fill:#bebebe;fill-opacity:1;fill-rule:nonzero;stroke:none;stroke-width:2;marker:none"
         width="3.8250003" />
    </clipPath>
    <clipPath
       id="clipPath6265-3-5-6-9"
       clipPathUnits="userSpaceOnUse">
      <rect
         x="26.96591"
         y="221.32954"
         id="rect6267-1-8-1-1"
         height="5.21591"
         style="color:#bebebe;display:inline;overflow:visible;visibility:visible;fill:#bebebe;fill-opacity:1;fill-rule:nonzero;stroke:none;stroke-width:2;marker:none"
         width="2.8977277" />
    </clipPath>
    <clipPath
       id="clipPath6259-8-8-8-2"
       clipPathUnits="userSpaceOnUse">
      <rect
         x="26.998718"
         y="221.50153"
         id="rect6261-6-0-7-7"
         height="4.8734746"
         style="color:#bebebe;display:inline;overflow:visible;visibility:visible;fill:#bebebe;fill-opacity:1;stroke:none;stroke-width:2;marker:none"
         width="1.8762827" />
    </clipPath>
    <clipPath
       id="clipPath6279-7-9"
       clipPathUnits="userSpaceOnUse">
      <rect
         x="26.85"
         y="220.75"
         id="rect6281-1-9"
         height="6.3750005"
         style="color:#bebebe;display:inline;overflow:visible;visibility:visible;fill:#bebebe;fill-opacity:1;fill-rule:nonzero;stroke:none;stroke-width:2;marker:none"
         width="3.8250003" />
    </clipPath>
    <clipPath
       id="clipPath6265-3-4"
       clipPathUnits="userSpaceOnUse">
      <rect
         x="26.96591"
         y="221.32954"
         id="rect6267-1-9"
         height="5.21591"
         style="color:#bebebe;display:inline;overflow:visible;visibility:visible;fill:#bebebe;fill-opacity:1;fill-rule:nonzero;stroke:none;stroke-width:2;marker:none"
         width="2.8977277" />
    </clipPath>
    <clipPath
       id="clipPath6259-8-81"
       clipPathUnits="userSpaceOnUse">
      <rect
         x="26.998718"
         y="221.50153"
         id="rect6261-6-6"
         height="4.8734746"
         style="color:#bebebe;display:inline;overflow:visible;visibility:visible;fill:#bebebe;fill-opacity:1;stroke:none;stroke-width:2;marker:none"
         width="1.8762827" />
    </clipPath>
    <clipPath
       id="clipPath3668"
       clipPathUnits="userSpaceOnUse">
      <rect
         x="26.998718"
         y="221.50153"
         id="rect3670"
         height="3.3729413"
         width="1.8762826"
         style="color:#bebebe;display:inline;overflow:visible;visibility:visible;fill:#bebebe;fill-opacity:1;stroke:none;stroke-width:2;marker:none" />
    </clipPath>
    <clipPath
       id="clipPath3697"
       clipPathUnits="userSpaceOnUse">
      <path
         d="m 26.965789,221.32959 v 5.21591 h 0.579546 v -1.15909 h 2.318182 v -4.05682 z"
         id="path3699"
         style="color:#bebebe;display:inline;overflow:visible;visibility:visible;fill:#bebebe;fill-opacity:1;fill-rule:nonzero;stroke:none;stroke-width:2;marker:none" />
    </clipPath>
    <clipPath
       id="clipPath6279-2-3-0"
       clipPathUnits="userSpaceOnUse">
      <rect
         x="26.85"
         y="220.75"
         id="rect6281-5-3-9"
         height="6.3750005"
         style="color:#bebebe;display:inline;overflow:visible;visibility:visible;fill:#bebebe;fill-opacity:1;fill-rule:nonzero;stroke:none;stroke-width:2;marker:none"
         width="3.8250003" />
    </clipPath>
    <clipPath
       id="a">
      <path
         d="m -73,-30 -7,-7 v -4.5 h 16.5 v 4.5 l -7.5,7 z"
         fill="none"
         stroke="#000000"
         id="path2061" />
    </clipPath>
  </defs>
  <metadata
     id="metadata852">
    <rdf:RDF>
      <cc:Work
         rdf:about="">
        <dc:format>image/svg+xml</dc:format>
        <dc:type
           rdf:resource="http://purl.org/dc/dcmitype/StillImage" />
        <dc:title />
      </cc:Work>
    </rdf:RDF>
  </metadata>
  <g
     id="layer1"
     transform="translate(-8.4666662,-67.733334)">
    <g
       id="classic-topbar-network-wireless-acquiring"
       transform="translate(0,-25.399997)">
      <rect
         style="fill:#f6f5f4;stroke-width:0.529"
         id="rect5474"
         width="7.4083333"
         height="7.4083333"
         x="8.4666662"
         y="93.133331"
         rx="1.0583333"
         ry="1.0583333" />
      <g
         color="#000000"
         fill="#474747"
         id="g2046"
         transform="matrix(0.26458333,0,0,0.26458333,10.054167,94.720833)"
         style="fill:#000000">
        <path
           d="m 10,13 a 2,2 0 0 1 -2,2 2,2 0 0 1 -2,-2 2,2 0 0 1 2,-2 2,2 0 0 1 2,2 z"
           style="isolation:auto;mix-blend-mode:normal;fill:#000000;marker:none"
           overflow="visible"
           opacity="0.32"
           id="path2038" />
        <path
           d="M 8,2 C 5.186,2 2.828,3 1,4.586 V 6 H 2.48 C 4,4.736 5.7,4 8,4 c 2.3,0 4,0.78 5.52,2 H 15 V 4.62 C 13.36,3.153 10.814,2 8,2 Z"
           style="fill:#000000;marker:none"
           overflow="visible"
           opacity="0.32"
           id="path2040" />
        <path
           d="M 8,5 C 6.496,5 5.14,5.36 4.125,6 h 7.688 C 10.791,5.373 9.462,5 8,5 Z"
           style="fill:#000000;marker:none"
           overflow="visible"
           opacity="0.32"
           id="path2042" />
        <path
           d="m 3.496,6.996 h 0.016 c 0.829,0 1.496,0.667 1.496,1.496 v 0.016 c 0,0.829 -0.667,1.496 -1.496,1.496 H 3.496 A 1.493,1.493 0 0 1 2,8.508 V 8.492 C 2,7.663 2.667,6.996 3.496,6.996 Z m 4,0 h 0.016 c 0.829,0 1.496,0.667 1.496,1.496 v 0.016 c 0,0.829 -0.667,1.496 -1.496,1.496 H 7.496 A 1.493,1.493 0 0 1 6,8.508 V 8.492 C 6,7.663 6.667,6.996 7.496,6.996 Z m 4.008,0 c 0.833,0 1.504,0.667 1.504,1.496 v 0.016 c 0,0.829 -0.67,1.496 -1.504,1.496 A 1.497,1.497 0 0 1 10,8.508 V 8.492 c 0,-0.829 0.67,-1.496 1.504,-1.496 z"
           style="isolation:auto;mix-blend-mode:normal;fill:#000000;marker:none"
           display="block"
           overflow="visible"
           id="path2044" />
      </g>
    </g>
  </g>
</svg>
