<?xml version="1.0" encoding="UTF-8" standalone="no"?>
<svg
   width="135.99998"
   height="28"
   viewBox="0 0 35.983329 7.4083338"
   version="1.1"
   id="svg919"
   xmlns="http://www.w3.org/2000/svg"
   xmlns:svg="http://www.w3.org/2000/svg"
   xmlns:rdf="http://www.w3.org/1999/02/22-rdf-syntax-ns#"
   xmlns:cc="http://creativecommons.org/ns#"
   xmlns:dc="http://purl.org/dc/elements/1.1/">
  <defs
     id="defs849">
    <clipPath
       id="clipPath6279-3">
      <rect
         x="26.85"
         y="220.75"
         id="rect6281-9"
         height="6.3750005"
         width="3.8250003"
         style="color:#bebebe;display:inline;overflow:visible;visibility:visible;fill:#bebebe;fill-opacity:1;fill-rule:nonzero;stroke:none;stroke-width:2;marker:none" />
    </clipPath>
    <clipPath
       id="clipPath6265-334">
      <rect
         x="26.96591"
         y="221.32954"
         id="rect6267-61"
         height="5.21591"
         width="2.8977277"
         style="color:#bebebe;display:inline;overflow:visible;visibility:visible;fill:#bebebe;fill-opacity:1;fill-rule:nonzero;stroke:none;stroke-width:2;marker:none" />
    </clipPath>
    <clipPath
       id="clipPath6259-5">
      <rect
         x="26.998718"
         y="221.50153"
         id="rect6261-61"
         height="4.8734746"
         width="1.8762827"
         style="color:#bebebe;display:inline;overflow:visible;visibility:visible;fill:#bebebe;fill-opacity:1;stroke:none;stroke-width:2;marker:none" />
    </clipPath>
    <clipPath
       id="clipPath6259-8-8-8"
       clipPathUnits="userSpaceOnUse">
      <rect
         x="26.998718"
         y="221.50153"
         id="rect6261-6-0-7"
         height="4.8734746"
         style="color:#bebebe;display:inline;overflow:visible;visibility:visible;fill:#bebebe;fill-opacity:1;stroke:none;stroke-width:2;marker:none"
         width="1.8762827" />
    </clipPath>
    <clipPath
       id="clipPath6265-3-5-6"
       clipPathUnits="userSpaceOnUse">
      <rect
         x="26.96591"
         y="221.32954"
         id="rect6267-1-8-1"
         height="5.21591"
         style="color:#bebebe;display:inline;overflow:visible;visibility:visible;fill:#bebebe;fill-opacity:1;fill-rule:nonzero;stroke:none;stroke-width:2;marker:none"
         width="2.8977277" />
    </clipPath>
    <clipPath
       id="clipPath6279-2-3"
       clipPathUnits="userSpaceOnUse">
      <rect
         x="26.85"
         y="220.75"
         id="rect6281-5-3"
         height="6.3750005"
         style="color:#bebebe;display:inline;overflow:visible;visibility:visible;fill:#bebebe;fill-opacity:1;fill-rule:nonzero;stroke:none;stroke-width:2;marker:none"
         width="3.8250003" />
    </clipPath>
    <clipPath
       id="clipPath6279-3-3">
      <rect
         x="26.85"
         y="220.75"
         id="rect6281-9-6"
         height="6.3750005"
         width="3.8250003"
         style="color:#bebebe;display:inline;overflow:visible;visibility:visible;fill:#bebebe;fill-opacity:1;fill-rule:nonzero;stroke:none;stroke-width:2;marker:none" />
    </clipPath>
    <clipPath
       id="clipPath6265-334-7">
      <rect
         x="26.96591"
         y="221.32954"
         id="rect6267-61-5"
         height="5.21591"
         width="2.8977277"
         style="color:#bebebe;display:inline;overflow:visible;visibility:visible;fill:#bebebe;fill-opacity:1;fill-rule:nonzero;stroke:none;stroke-width:2;marker:none" />
    </clipPath>
    <clipPath
       id="clipPath6259-5-3">
      <rect
         x="26.998718"
         y="221.50153"
         id="rect6261-61-5"
         height="4.8734746"
         width="1.8762827"
         style="color:#bebebe;display:inline;overflow:visible;visibility:visible;fill:#bebebe;fill-opacity:1;stroke:none;stroke-width:2;marker:none" />
    </clipPath>
    <clipPath
       id="clipPath6279-2-3-6"
       clipPathUnits="userSpaceOnUse">
      <rect
         x="26.85"
         y="220.75"
         id="rect6281-5-3-2"
         height="6.3750005"
         style="color:#bebebe;display:inline;overflow:visible;visibility:visible;fill:#bebebe;fill-opacity:1;fill-rule:nonzero;stroke:none;stroke-width:2;marker:none"
         width="3.8250003" />
    </clipPath>
    <clipPath
       id="clipPath6265-3-5-6-9"
       clipPathUnits="userSpaceOnUse">
      <rect
         x="26.96591"
         y="221.32954"
         id="rect6267-1-8-1-1"
         height="5.21591"
         style="color:#bebebe;display:inline;overflow:visible;visibility:visible;fill:#bebebe;fill-opacity:1;fill-rule:nonzero;stroke:none;stroke-width:2;marker:none"
         width="2.8977277" />
    </clipPath>
    <clipPath
       id="clipPath6259-8-8-8-2"
       clipPathUnits="userSpaceOnUse">
      <rect
         x="26.998718"
         y="221.50153"
         id="rect6261-6-0-7-7"
         height="4.8734746"
         style="color:#bebebe;display:inline;overflow:visible;visibility:visible;fill:#bebebe;fill-opacity:1;stroke:none;stroke-width:2;marker:none"
         width="1.8762827" />
    </clipPath>
    <clipPath
       id="clipPath6279-7-9"
       clipPathUnits="userSpaceOnUse">
      <rect
         x="26.85"
         y="220.75"
         id="rect6281-1-9"
         height="6.3750005"
         style="color:#bebebe;display:inline;overflow:visible;visibility:visible;fill:#bebebe;fill-opacity:1;fill-rule:nonzero;stroke:none;stroke-width:2;marker:none"
         width="3.8250003" />
    </clipPath>
    <clipPath
       id="clipPath6265-3-4"
       clipPathUnits="userSpaceOnUse">
      <rect
         x="26.96591"
         y="221.32954"
         id="rect6267-1-9"
         height="5.21591"
         style="color:#bebebe;display:inline;overflow:visible;visibility:visible;fill:#bebebe;fill-opacity:1;fill-rule:nonzero;stroke:none;stroke-width:2;marker:none"
         width="2.8977277" />
    </clipPath>
    <clipPath
       id="clipPath6259-8-81"
       clipPathUnits="userSpaceOnUse">
      <rect
         x="26.998718"
         y="221.50153"
         id="rect6261-6-6"
         height="4.8734746"
         style="color:#bebebe;display:inline;overflow:visible;visibility:visible;fill:#bebebe;fill-opacity:1;stroke:none;stroke-width:2;marker:none"
         width="1.8762827" />
    </clipPath>
    <clipPath
       id="clipPath3668"
       clipPathUnits="userSpaceOnUse">
      <rect
         x="26.998718"
         y="221.50153"
         id="rect3670"
         height="3.3729413"
         width="1.8762826"
         style="color:#bebebe;display:inline;overflow:visible;visibility:visible;fill:#bebebe;fill-opacity:1;stroke:none;stroke-width:2;marker:none" />
    </clipPath>
    <clipPath
       id="clipPath3697"
       clipPathUnits="userSpaceOnUse">
      <path
         d="m 26.965789,221.32959 v 5.21591 h 0.579546 v -1.15909 h 2.318182 v -4.05682 z"
         id="path3699"
         style="color:#bebebe;display:inline;overflow:visible;visibility:visible;fill:#bebebe;fill-opacity:1;fill-rule:nonzero;stroke:none;stroke-width:2;marker:none" />
    </clipPath>
    <clipPath
       id="clipPath6279-2-3-0"
       clipPathUnits="userSpaceOnUse">
      <rect
         x="26.85"
         y="220.75"
         id="rect6281-5-3-9"
         height="6.3750005"
         style="color:#bebebe;display:inline;overflow:visible;visibility:visible;fill:#bebebe;fill-opacity:1;fill-rule:nonzero;stroke:none;stroke-width:2;marker:none"
         width="3.8250003" />
    </clipPath>
    <clipPath
       id="a">
      <path
         d="m -73,-30 -7,-7 v -4.5 h 16.5 v 4.5 l -7.5,7 z"
         fill="none"
         stroke="#000000"
         id="path2061" />
    </clipPath>
  </defs>
  <metadata
     id="metadata852">
    <rdf:RDF>
      <cc:Work
         rdf:about="">
        <dc:format>image/svg+xml</dc:format>
        <dc:type
           rdf:resource="http://purl.org/dc/dcmitype/StillImage" />
        <dc:title />
      </cc:Work>
    </rdf:RDF>
  </metadata>
  <g
     id="layer1"
     transform="translate(-67.733337,-33.866665)">
    <g
       id="classic-topbar-pointer">
      <rect
         style="fill:#f6f5f4;stroke-width:0.529"
         id="rect2350"
         width="7.4083333"
         height="7.4083333"
         x="96.308334"
         y="33.866665"
         rx="1.0583333"
         ry="1.0583333" />
      <g
         id="layer1-0"
         style="display:inline;fill:#000000;stroke:#000000;stroke-width:1.5;stroke-miterlimit:4;stroke-dasharray:none;stroke-opacity:1"
         transform="matrix(0.20868319,0,0,0.20868319,98.113262,35.515712)">
        <g
           transform="matrix(-1,0,0,1,42,-0.75)"
           id="g5847"
           style="fill:#000000;stroke:#000000;stroke-width:1.5;stroke-miterlimit:4;stroke-dasharray:none;stroke-opacity:1">
          <path
             style="color:#000000;shape-padding:0;clip-rule:nonzero;display:block;overflow:visible;visibility:visible;opacity:1;solid-color:#000000;solid-opacity:1;fill:#000000;fill-opacity:1;fill-rule:nonzero;stroke:none;stroke-width:1.5;stroke-linecap:butt;stroke-linejoin:miter;stroke-miterlimit:10;stroke-dasharray:none;stroke-dashoffset:0;stroke-opacity:1;marker:none;enable-background:accumulate"
             d="m 25.855469,0.45507812 c 0,6.69466128 0,13.38932288 0,20.08398388 1.414713,-1.380859 2.829427,-2.761719 4.24414,-4.142578 0.612408,1.215372 1.173049,2.460221 1.819709,3.656095 1.141947,1.476279 3.975266,0.389006 3.846009,-1.473608 -0.09413,-0.822519 -0.594755,-1.521423 -0.899969,-2.277599 -0.298869,-0.640171 -0.597739,-1.280342 -0.896608,-1.920513 1.75651,0 3.513021,0 5.269531,0 C 34.777344,9.738932 30.316406,5.0970051 25.855469,0.45507812 Z m 1.5,3.72656248 c 2.786458,2.8997395 5.572917,5.7994789 8.359375,8.6992184 -1.367188,0 -2.734375,0 -4.101563,0 0.885072,1.903196 1.781799,3.80152 2.659622,5.707744 0.0349,0.566084 -1.149057,0.988823 -1.282093,0.297971 -0.818567,-1.671162 -1.637133,-3.342323 -2.455699,-5.013485 -1.059896,1.034505 -2.119791,2.06901 -3.179687,3.103515 1.5e-5,-4.264988 3e-5,-8.5299756 4.5e-5,-12.7949634 z"
             id="path5851" />
        </g>
      </g>
      <rect
         style="fill:#f6f5f4;stroke-width:0.529"
         id="rect2346"
         width="7.4083333"
         height="7.4083333"
         x="86.783333"
         y="33.866665"
         rx="1.0583333"
         ry="1.0583333" />
      <g
         id="g835"
         transform="matrix(0.25390151,0,0,0.25390151,87.928986,35.029675)"
         style="fill:#000000">
        <path
           style="color:#000000;shape-padding:0;clip-rule:nonzero;display:block;overflow:visible;visibility:visible;opacity:1;solid-color:#000000;solid-opacity:1;fill:#000000;fill-opacity:1;fill-rule:nonzero;stroke:none;stroke-width:1.5;stroke-linecap:butt;stroke-linejoin:miter;stroke-miterlimit:10;stroke-dasharray:none;stroke-dashoffset:0;stroke-opacity:1;marker:none;enable-background:accumulate"
           d="M 10.705078,1.671875 C 9.8685536,1.7465699 8.886927,1.5353073 8.2578125,2.2480469 8.0785627,2.7511513 7.8667422,2.9777446 7.3125,2.8652344 6.5186841,2.8141575 5.6105879,2.9190179 5.125,3.6386719 4.5700923,4.4696324 4.8113194,5.4949043 4.7578125,6.4316406 V 7.9335938 C 4.2480917,7.6156216 3.6258927,7.8015358 3.0585938,7.7519531 2.6157606,7.7312277 2.1774807,7.7771069 1.7402344,7.84375 c 0.056931,2.685928 0.073733,5.373339 0.1210937,8.058594 0.093691,1.302291 1.2320438,2.404811 2.5449219,2.423828 0.6329493,0.0151 1.4823301,0.0068 2.2246094,0.01172 3.221817,-0.01207 6.4461136,0.04985 9.6660156,-0.05664 1.162213,-0.120223 2.213268,-1.188452 2.070313,-2.396484 V 6.4042969 C 17.660379,5.4636119 16.551912,4.623434 15.308594,4.8339844 15.009045,4.3804158 14.822476,3.3608651 14.082031,3.0351562 13.727176,2.744118 13.242443,2.9253873 12.822266,2.8730469 12.524824,2.8003648 11.966366,3.0655864 11.953125,2.6210938 11.795774,2.0995736 11.23789,1.7125276 10.705078,1.671875 Z m -0.105469,1.5039062 c 0.164522,0.2714602 0.182773,0.753717 0.21875,1.125 0.0066,0.0069 0.0198,0.00591 0.02734,0.011719 -0.0091,-1.732e-4 -0.01824,1.732e-4 -0.02734,0 L 11.3125,10.212891 11.976562,4.3710938 13.322266,4.375 c 0.536079,0.3895492 0.412986,1.1404752 0.554687,1.7226562 -0.01113,0.067472 0.0064,0.096046 0.01563,0.1367188 -6.5e-4,-8.3e-6 -0.0013,8.3e-6 -0.002,0 l 0.01172,0.085937 0.482422,3.865235 0.664062,-3.9199225 c 0.574035,-0.037127 1.157689,0.038512 1.558594,0.5019531 0.40964,0.2168652 0.215641,0.688971 0.259766,1.0585938 v 8.3417966 c -0.337059,0.963686 -1.599977,0.548271 -2.375,0.660157 -3.370517,0.01308 -6.7421372,0.03383 -10.1113286,-0.01367 -0.9756258,-0.02828 -1.1418988,-1.06998 -1.0409746,-1.841798 -0.011641,-1.907062 -0.044744,-3.813924 -0.078125,-5.7207029 0.3263641,0.00646 0.6759578,-0.012758 0.9882812,0.00977 0.4938842,0.9152209 0.4846154,2.0011839 0.5078125,3.0156249 0.4926369,-0.0068 1.0433814,0.03983 1.5,0 C 6.2669593,9.7577406 6.2393741,7.2373172 6.2714844,4.71875 6.3763823,4.198849 7.0022289,4.409587 7.3828125,4.3652344 H 8.0585938 L 8.546875,10.212891 9.2167969,4.3359375 h -0.00391 C 9.2438386,3.9531035 9.0622615,3.4401006 9.4609375,3.2167969 Z"
           id="path5630" />
      </g>
      <rect
         style="fill:#f6f5f4;stroke-width:0.529"
         id="rect2338"
         width="7.4083333"
         height="7.4083333"
         x="67.733337"
         y="33.866665"
         rx="1.0583333"
         ry="1.0583333" />
      <g
         id="layer1-6"
         style="display:inline;fill:#000000"
         transform="matrix(0.20868319,0,0,0.20868319,69.362183,35.515712)">
        <g
           id="id1"
           transform="translate(-22.25,-0.75)"
           style="fill:#000000">
          <path
             style="color:#000000;shape-padding:0;clip-rule:nonzero;display:block;overflow:visible;visibility:visible;opacity:1;solid-color:#000000;solid-opacity:1;fill:#000000;fill-opacity:1;fill-rule:nonzero;stroke:none;stroke-width:1.5;stroke-linecap:butt;stroke-linejoin:miter;stroke-miterlimit:10;stroke-dasharray:none;stroke-dashoffset:0;stroke-opacity:1;marker:none;enable-background:accumulate"
             d="m 25.855469,0.45507812 c 0,6.69466128 0,13.38932288 0,20.08398388 1.414713,-1.380859 2.829427,-2.761719 4.24414,-4.142578 0.612408,1.215372 1.173049,2.460221 1.819709,3.656095 1.141947,1.476279 3.975266,0.389006 3.846009,-1.473608 -0.09413,-0.822519 -0.594755,-1.521423 -0.899969,-2.277599 -0.298869,-0.640171 -0.597739,-1.280342 -0.896608,-1.920513 1.75651,0 3.513021,0 5.269531,0 C 34.777344,9.738932 30.316406,5.0970051 25.855469,0.45507812 Z m 1.5,3.72656248 c 2.786458,2.8997395 5.572917,5.7994789 8.359375,8.6992184 -1.367188,0 -2.734375,0 -4.101563,0 0.885072,1.903196 1.781799,3.80152 2.659622,5.707744 0.0349,0.566084 -1.149057,0.988823 -1.282093,0.297971 -0.818567,-1.671162 -1.637133,-3.342323 -2.455699,-5.013485 -1.059896,1.034505 -2.119791,2.06901 -3.179687,3.103515 1.5e-5,-4.264988 3e-5,-8.5299756 4.5e-5,-12.7949634 z"
             id="path5565" />
        </g>
      </g>
      <rect
         style="fill:#f6f5f4;stroke-width:0.529"
         id="rect2342"
         width="7.4083333"
         height="7.4083333"
         x="77.258331"
         y="33.866665"
         rx="1.0583333"
         ry="1.0583333" />
      <g
         id="layer1-2"
         style="display:inline;fill:#000000"
         transform="matrix(0.20868675,0,0,0.20868675,78.931893,35.515713)">
        <g
           id="id1-6"
           transform="translate(-19,-0.75)"
           style="fill:#000000">
          <path
             style="color:#000000;shape-padding:0;clip-rule:nonzero;display:block;overflow:visible;visibility:visible;opacity:1;solid-color:#000000;solid-opacity:1;fill:#000000;fill-opacity:1;fill-rule:nonzero;stroke:none;stroke-width:1.5;stroke-linecap:butt;stroke-linejoin:miter;stroke-miterlimit:10;stroke-dasharray:none;stroke-dashoffset:0;stroke-opacity:1;marker:none;enable-background:accumulate"
             d="m 19.855469,0.45507812 c 0,6.69466128 0,13.38932288 0,20.08398388 1.414713,-1.38151 2.829427,-2.763021 4.24414,-4.144531 0.5882,1.18866 1.158389,2.386561 1.758464,3.569127 1.108631,1.640259 4.157538,0.465128 3.89799,-1.495859 0.01057,-0.470226 -0.405577,-0.908445 -0.434651,-1.313638 0.259401,-0.25321 0.518802,-0.50642 0.778203,-0.75963 0.5882,1.18866 1.158389,2.386561 1.758464,3.569127 1.108631,1.640259 4.157538,0.465128 3.89799,-1.495859 -0.192325,-0.904303 -0.717854,-1.698026 -1.068629,-2.548967 -0.238908,-0.512658 -0.477817,-1.025315 -0.716725,-1.537973 1.755859,0 3.511719,0 5.267578,0 C 34.777352,9.738932 30.31641,5.0970051 25.855469,0.45507812 c 0,2.08138018 0,4.16276048 0,6.24414068 -2,-2.0813802 -4,-4.1627605 -6,-6.24414068 z m 1.5,3.72656248 c 2,2.0813801 4,4.1627603 6,6.2441404 0,-2.0813801 0,-4.1627603 0,-6.2441404 2.786458,2.8997395 5.572917,5.7994789 8.359375,8.6992184 -1.366537,0 -2.733073,0 -4.09961,0 0.883468,1.903435 1.781983,3.800273 2.656081,5.707817 0.0065,0.622781 -1.227555,0.980575 -1.325116,0.207118 -0.80433,-1.640251 -1.608661,-3.280501 -2.412991,-4.920752 -1.020182,0.995443 -2.040365,1.990885 -3.060547,2.986328 0.263642,0.608048 0.596803,1.192457 0.814693,1.816134 -0.182662,0.601037 -1.26833,0.8373 -1.365856,0.06795 -0.796094,-1.623456 -1.592189,-3.246912 -2.388284,-4.870368 -1.059245,1.033854 -2.118489,2.067708 -3.177734,3.101562 -4e-6,-4.265002 -7e-6,-8.5300036 -1.1e-5,-12.7950054 z"
             id="path5565-1" />
        </g>
        <g
           id="id2"
           transform="translate(-25,-0.75)"
           style="fill:#000000" />
      </g>
    </g>
  </g>
</svg>
