<?xml version="1.0" encoding="UTF-8" standalone="no"?>
<svg
   width="102.00001"
   height="28"
   viewBox="0 0 26.987502 7.4083338"
   version="1.1"
   id="svg919"
   xmlns="http://www.w3.org/2000/svg"
   xmlns:svg="http://www.w3.org/2000/svg"
   xmlns:rdf="http://www.w3.org/1999/02/22-rdf-syntax-ns#"
   xmlns:cc="http://creativecommons.org/ns#"
   xmlns:dc="http://purl.org/dc/elements/1.1/">
  <defs
     id="defs849">
    <clipPath
       id="clipPath6279-3">
      <rect
         x="26.85"
         y="220.75"
         id="rect6281-9"
         height="6.3750005"
         width="3.8250003"
         style="color:#bebebe;display:inline;overflow:visible;visibility:visible;fill:#bebebe;fill-opacity:1;fill-rule:nonzero;stroke:none;stroke-width:2;marker:none" />
    </clipPath>
    <clipPath
       id="clipPath6265-334">
      <rect
         x="26.96591"
         y="221.32954"
         id="rect6267-61"
         height="5.21591"
         width="2.8977277"
         style="color:#bebebe;display:inline;overflow:visible;visibility:visible;fill:#bebebe;fill-opacity:1;fill-rule:nonzero;stroke:none;stroke-width:2;marker:none" />
    </clipPath>
    <clipPath
       id="clipPath6259-5">
      <rect
         x="26.998718"
         y="221.50153"
         id="rect6261-61"
         height="4.8734746"
         width="1.8762827"
         style="color:#bebebe;display:inline;overflow:visible;visibility:visible;fill:#bebebe;fill-opacity:1;stroke:none;stroke-width:2;marker:none" />
    </clipPath>
    <clipPath
       id="clipPath6259-8-8-8"
       clipPathUnits="userSpaceOnUse">
      <rect
         x="26.998718"
         y="221.50153"
         id="rect6261-6-0-7"
         height="4.8734746"
         style="color:#bebebe;display:inline;overflow:visible;visibility:visible;fill:#bebebe;fill-opacity:1;stroke:none;stroke-width:2;marker:none"
         width="1.8762827" />
    </clipPath>
    <clipPath
       id="clipPath6265-3-5-6"
       clipPathUnits="userSpaceOnUse">
      <rect
         x="26.96591"
         y="221.32954"
         id="rect6267-1-8-1"
         height="5.21591"
         style="color:#bebebe;display:inline;overflow:visible;visibility:visible;fill:#bebebe;fill-opacity:1;fill-rule:nonzero;stroke:none;stroke-width:2;marker:none"
         width="2.8977277" />
    </clipPath>
    <clipPath
       id="clipPath6279-2-3"
       clipPathUnits="userSpaceOnUse">
      <rect
         x="26.85"
         y="220.75"
         id="rect6281-5-3"
         height="6.3750005"
         style="color:#bebebe;display:inline;overflow:visible;visibility:visible;fill:#bebebe;fill-opacity:1;fill-rule:nonzero;stroke:none;stroke-width:2;marker:none"
         width="3.8250003" />
    </clipPath>
    <clipPath
       id="clipPath6279-3-3">
      <rect
         x="26.85"
         y="220.75"
         id="rect6281-9-6"
         height="6.3750005"
         width="3.8250003"
         style="color:#bebebe;display:inline;overflow:visible;visibility:visible;fill:#bebebe;fill-opacity:1;fill-rule:nonzero;stroke:none;stroke-width:2;marker:none" />
    </clipPath>
    <clipPath
       id="clipPath6265-334-7">
      <rect
         x="26.96591"
         y="221.32954"
         id="rect6267-61-5"
         height="5.21591"
         width="2.8977277"
         style="color:#bebebe;display:inline;overflow:visible;visibility:visible;fill:#bebebe;fill-opacity:1;fill-rule:nonzero;stroke:none;stroke-width:2;marker:none" />
    </clipPath>
    <clipPath
       id="clipPath6259-5-3">
      <rect
         x="26.998718"
         y="221.50153"
         id="rect6261-61-5"
         height="4.8734746"
         width="1.8762827"
         style="color:#bebebe;display:inline;overflow:visible;visibility:visible;fill:#bebebe;fill-opacity:1;stroke:none;stroke-width:2;marker:none" />
    </clipPath>
    <clipPath
       id="clipPath6279-2-3-6"
       clipPathUnits="userSpaceOnUse">
      <rect
         x="26.85"
         y="220.75"
         id="rect6281-5-3-2"
         height="6.3750005"
         style="color:#bebebe;display:inline;overflow:visible;visibility:visible;fill:#bebebe;fill-opacity:1;fill-rule:nonzero;stroke:none;stroke-width:2;marker:none"
         width="3.8250003" />
    </clipPath>
    <clipPath
       id="clipPath6265-3-5-6-9"
       clipPathUnits="userSpaceOnUse">
      <rect
         x="26.96591"
         y="221.32954"
         id="rect6267-1-8-1-1"
         height="5.21591"
         style="color:#bebebe;display:inline;overflow:visible;visibility:visible;fill:#bebebe;fill-opacity:1;fill-rule:nonzero;stroke:none;stroke-width:2;marker:none"
         width="2.8977277" />
    </clipPath>
    <clipPath
       id="clipPath6259-8-8-8-2"
       clipPathUnits="userSpaceOnUse">
      <rect
         x="26.998718"
         y="221.50153"
         id="rect6261-6-0-7-7"
         height="4.8734746"
         style="color:#bebebe;display:inline;overflow:visible;visibility:visible;fill:#bebebe;fill-opacity:1;stroke:none;stroke-width:2;marker:none"
         width="1.8762827" />
    </clipPath>
    <clipPath
       id="clipPath6279-7-9"
       clipPathUnits="userSpaceOnUse">
      <rect
         x="26.85"
         y="220.75"
         id="rect6281-1-9"
         height="6.3750005"
         style="color:#bebebe;display:inline;overflow:visible;visibility:visible;fill:#bebebe;fill-opacity:1;fill-rule:nonzero;stroke:none;stroke-width:2;marker:none"
         width="3.8250003" />
    </clipPath>
    <clipPath
       id="clipPath6265-3-4"
       clipPathUnits="userSpaceOnUse">
      <rect
         x="26.96591"
         y="221.32954"
         id="rect6267-1-9"
         height="5.21591"
         style="color:#bebebe;display:inline;overflow:visible;visibility:visible;fill:#bebebe;fill-opacity:1;fill-rule:nonzero;stroke:none;stroke-width:2;marker:none"
         width="2.8977277" />
    </clipPath>
    <clipPath
       id="clipPath6259-8-81"
       clipPathUnits="userSpaceOnUse">
      <rect
         x="26.998718"
         y="221.50153"
         id="rect6261-6-6"
         height="4.8734746"
         style="color:#bebebe;display:inline;overflow:visible;visibility:visible;fill:#bebebe;fill-opacity:1;stroke:none;stroke-width:2;marker:none"
         width="1.8762827" />
    </clipPath>
    <clipPath
       id="clipPath3668"
       clipPathUnits="userSpaceOnUse">
      <rect
         x="26.998718"
         y="221.50153"
         id="rect3670"
         height="3.3729413"
         width="1.8762826"
         style="color:#bebebe;display:inline;overflow:visible;visibility:visible;fill:#bebebe;fill-opacity:1;stroke:none;stroke-width:2;marker:none" />
    </clipPath>
    <clipPath
       id="clipPath3697"
       clipPathUnits="userSpaceOnUse">
      <path
         d="m 26.965789,221.32959 v 5.21591 h 0.579546 v -1.15909 h 2.318182 v -4.05682 z"
         id="path3699"
         style="color:#bebebe;display:inline;overflow:visible;visibility:visible;fill:#bebebe;fill-opacity:1;fill-rule:nonzero;stroke:none;stroke-width:2;marker:none" />
    </clipPath>
    <clipPath
       id="clipPath6279-2-3-0"
       clipPathUnits="userSpaceOnUse">
      <rect
         x="26.85"
         y="220.75"
         id="rect6281-5-3-9"
         height="6.3750005"
         style="color:#bebebe;display:inline;overflow:visible;visibility:visible;fill:#bebebe;fill-opacity:1;fill-rule:nonzero;stroke:none;stroke-width:2;marker:none"
         width="3.8250003" />
    </clipPath>
    <clipPath
       id="a">
      <path
         d="m -73,-30 -7,-7 v -4.5 h 16.5 v 4.5 l -7.5,7 z"
         fill="none"
         stroke="#000000"
         id="path2061" />
    </clipPath>
  </defs>
  <metadata
     id="metadata852">
    <rdf:RDF>
      <cc:Work
         rdf:about="">
        <dc:format>image/svg+xml</dc:format>
        <dc:type
           rdf:resource="http://purl.org/dc/dcmitype/StillImage" />
        <dc:title />
      </cc:Work>
    </rdf:RDF>
  </metadata>
  <g
     id="layer1"
     transform="translate(-29.633333,-139.7)">
    <g
       id="classic-topbar-input-method">
      <rect
         style="fill:#f6f5f4;stroke-width:0.547567"
         id="rect4257"
         width="7.9375"
         height="7.4083333"
         x="29.633333"
         y="139.7"
         rx="1.1339287"
         ry="1.0583333" />
      <g
         aria-label="en"
         id="text4261"
         style="font-style:normal;font-variant:normal;font-weight:normal;font-stretch:normal;font-size:4.93889px;line-height:1.25;font-family:Cantarell;-inkscape-font-specification:Cantarell;fill:#000000;stroke-width:0.264583">
        <path
           d="m 32.445677,144.82516 c 0.271639,0 0.567973,-0.0642 0.780345,-0.1778 l -0.0889,-0.28645 c -0.182739,0.0889 -0.414867,0.14322 -0.6223,0.14322 -0.503767,0 -0.819856,-0.30127 -0.879123,-0.80997 h 1.659467 c 0.0099,-0.0741 0.01976,-0.24695 0.01976,-0.34079 0,-0.5976 -0.395111,-1.00753 -0.982839,-1.00753 -0.661811,0 -1.11125,0.51858 -1.11125,1.24954 0,0.76059 0.469194,1.22978 1.224844,1.22978 z m -0.814917,-1.42734 c 0.03457,-0.46425 0.271639,-0.71614 0.671689,-0.71614 0.404989,0 0.642056,0.26176 0.642056,0.71614 z"
           style="font-style:normal;font-variant:normal;font-weight:normal;font-stretch:normal;font-size:4.93889px;font-family:Cantarell;-inkscape-font-specification:Cantarell;fill:#000000;stroke-width:0.264583"
           id="path4314" />
        <path
           d="m 35.606566,144.77577 h 0.395111 v -1.56069 c 0,-0.52846 -0.350661,-0.86924 -0.884061,-0.86924 -0.271639,0 -0.543278,0.0938 -0.770467,0.26176 l -0.0889,-0.21237 h -0.276578 v 2.38054 h 0.395112 v -1.86196 c 0.182738,-0.14323 0.40005,-0.22225 0.632177,-0.22225 0.385234,0 0.597606,0.21731 0.597606,0.60255 z"
           style="font-style:normal;font-variant:normal;font-weight:normal;font-stretch:normal;font-size:4.93889px;font-family:Cantarell;-inkscape-font-specification:Cantarell;fill:#000000;stroke-width:0.264583"
           id="path4316" />
      </g>
      <rect
         style="fill:#f6f5f4;stroke-width:0.547567"
         id="rect4265"
         width="7.9375"
         height="7.4083333"
         x="39.158333"
         y="139.7"
         rx="1.1339287"
         ry="1.0583333" />
      <g
         aria-label="ar"
         id="text4269"
         style="font-style:normal;font-variant:normal;font-weight:normal;font-stretch:normal;font-size:4.93889px;line-height:1.25;font-family:Cantarell;-inkscape-font-specification:Cantarell;fill:#000000;stroke-width:0.264583">
        <path
           d="m 42.660007,144.77577 h 0.276578 v -1.54587 c 0,-0.56797 -0.335845,-0.88406 -0.958145,-0.88406 -0.31115,0 -0.646995,0.084 -0.903817,0.22719 l 0.09878,0.29139 c 0.246944,-0.10865 0.493889,-0.16298 0.726017,-0.16298 0.424744,0 0.642056,0.1778 0.642056,0.52846 v 0.15804 c -1.066801,0.01 -1.531056,0.23213 -1.531056,0.74084 0,0.42474 0.316089,0.69638 0.805039,0.69638 0.301272,0 0.558094,-0.0988 0.750711,-0.27164 z m -0.118533,-0.5334 c -0.148167,0.14817 -0.365478,0.23707 -0.612423,0.23707 -0.316089,0 -0.523522,-0.15805 -0.523522,-0.39511 0,-0.29634 0.335844,-0.41981 1.135945,-0.42475 z"
           style="font-style:normal;font-variant:normal;font-weight:normal;font-stretch:normal;font-size:4.93889px;font-family:Cantarell;-inkscape-font-specification:Cantarell;fill:#000000;stroke-width:0.264583"
           id="path4319" />
        <path
           d="m 43.716925,144.77577 h 0.395111 v -1.69898 c 0.153106,-0.20743 0.395111,-0.3309 0.661811,-0.3309 0.09384,0 0.182739,0.0148 0.261762,0.0444 l 0.09878,-0.36548 c -0.103716,-0.0346 -0.207433,-0.0543 -0.316089,-0.0543 -0.286455,0 -0.553155,0.13829 -0.730955,0.37042 l -0.04445,-0.34572 h -0.325967 z"
           style="font-style:normal;font-variant:normal;font-weight:normal;font-stretch:normal;font-size:4.93889px;font-family:Cantarell;-inkscape-font-specification:Cantarell;fill:#000000;stroke-width:0.264583"
           id="path4321" />
      </g>
      <rect
         style="fill:#f6f5f4;stroke-width:0.547567"
         id="rect4273"
         width="7.9375"
         height="7.4083333"
         x="48.683334"
         y="139.7"
         rx="1.1339287"
         ry="1.0583333" />
      <g
         aria-label="ja"
         id="text4277"
         style="font-style:normal;font-variant:normal;font-weight:normal;font-stretch:normal;font-size:4.93889px;line-height:1.25;font-family:Cantarell;-inkscape-font-specification:Cantarell;fill:#000000;stroke-width:0.264583">
        <path
           d="m 50.928411,145.8969 c 0.449439,-0.19756 0.7112,-0.57291 0.7112,-1.00753 v -2.49414 H 51.2445 v 2.5534 c 0,0.27658 -0.1778,0.5581 -0.4445,0.7112 z m 0.513644,-4.05977 c 0.1778,0 0.281517,-0.10371 0.281517,-0.28151 0,-0.1778 -0.103717,-0.28152 -0.281517,-0.28152 -0.1778,0 -0.281516,0.10372 -0.281516,0.28152 0,0.1778 0.103716,0.28151 0.281516,0.28151 z"
           style="font-style:normal;font-variant:normal;font-weight:normal;font-stretch:normal;font-size:4.93889px;font-family:Cantarell;-inkscape-font-specification:Cantarell;fill:#000000;stroke-width:0.264583"
           id="path4324" />
        <path
           d="m 53.931248,144.77577 h 0.276578 v -1.54587 c 0,-0.56797 -0.335845,-0.88406 -0.958145,-0.88406 -0.31115,0 -0.646995,0.084 -0.903817,0.22719 l 0.09878,0.29139 c 0.246944,-0.10865 0.493889,-0.16298 0.726017,-0.16298 0.424744,0 0.642055,0.1778 0.642055,0.52846 v 0.15804 c -1.0668,0.01 -1.531055,0.23213 -1.531055,0.74084 0,0.42474 0.316089,0.69638 0.805039,0.69638 0.301272,0 0.558094,-0.0988 0.750711,-0.27164 z m -0.118534,-0.5334 c -0.148166,0.14817 -0.365477,0.23707 -0.612422,0.23707 -0.316089,0 -0.523522,-0.15805 -0.523522,-0.39511 0,-0.29634 0.335844,-0.41981 1.135944,-0.42475 z"
           style="font-style:normal;font-variant:normal;font-weight:normal;font-stretch:normal;font-size:4.93889px;font-family:Cantarell;-inkscape-font-specification:Cantarell;fill:#000000;stroke-width:0.264583"
           id="path4326" />
      </g>
    </g>
  </g>
</svg>
