<?xml version="1.0" encoding="UTF-8" standalone="no"?>
<svg
   width="28"
   height="28"
   viewBox="0 0 7.4083333 7.4083338"
   version="1.1"
   id="svg919"
   xmlns="http://www.w3.org/2000/svg"
   xmlns:svg="http://www.w3.org/2000/svg"
   xmlns:rdf="http://www.w3.org/1999/02/22-rdf-syntax-ns#"
   xmlns:cc="http://creativecommons.org/ns#"
   xmlns:dc="http://purl.org/dc/elements/1.1/">
  <defs
     id="defs849">
    <clipPath
       id="clipPath6279-3">
      <rect
         x="26.85"
         y="220.75"
         id="rect6281-9"
         height="6.3750005"
         width="3.8250003"
         style="color:#bebebe;display:inline;overflow:visible;visibility:visible;fill:#bebebe;fill-opacity:1;fill-rule:nonzero;stroke:none;stroke-width:2;marker:none" />
    </clipPath>
    <clipPath
       id="clipPath6265-334">
      <rect
         x="26.96591"
         y="221.32954"
         id="rect6267-61"
         height="5.21591"
         width="2.8977277"
         style="color:#bebebe;display:inline;overflow:visible;visibility:visible;fill:#bebebe;fill-opacity:1;fill-rule:nonzero;stroke:none;stroke-width:2;marker:none" />
    </clipPath>
    <clipPath
       id="clipPath6259-5">
      <rect
         x="26.998718"
         y="221.50153"
         id="rect6261-61"
         height="4.8734746"
         width="1.8762827"
         style="color:#bebebe;display:inline;overflow:visible;visibility:visible;fill:#bebebe;fill-opacity:1;stroke:none;stroke-width:2;marker:none" />
    </clipPath>
    <clipPath
       id="clipPath6259-8-8-8"
       clipPathUnits="userSpaceOnUse">
      <rect
         x="26.998718"
         y="221.50153"
         id="rect6261-6-0-7"
         height="4.8734746"
         style="color:#bebebe;display:inline;overflow:visible;visibility:visible;fill:#bebebe;fill-opacity:1;stroke:none;stroke-width:2;marker:none"
         width="1.8762827" />
    </clipPath>
    <clipPath
       id="clipPath6265-3-5-6"
       clipPathUnits="userSpaceOnUse">
      <rect
         x="26.96591"
         y="221.32954"
         id="rect6267-1-8-1"
         height="5.21591"
         style="color:#bebebe;display:inline;overflow:visible;visibility:visible;fill:#bebebe;fill-opacity:1;fill-rule:nonzero;stroke:none;stroke-width:2;marker:none"
         width="2.8977277" />
    </clipPath>
    <clipPath
       id="clipPath6279-2-3"
       clipPathUnits="userSpaceOnUse">
      <rect
         x="26.85"
         y="220.75"
         id="rect6281-5-3"
         height="6.3750005"
         style="color:#bebebe;display:inline;overflow:visible;visibility:visible;fill:#bebebe;fill-opacity:1;fill-rule:nonzero;stroke:none;stroke-width:2;marker:none"
         width="3.8250003" />
    </clipPath>
    <clipPath
       id="clipPath6279-3-3">
      <rect
         x="26.85"
         y="220.75"
         id="rect6281-9-6"
         height="6.3750005"
         width="3.8250003"
         style="color:#bebebe;display:inline;overflow:visible;visibility:visible;fill:#bebebe;fill-opacity:1;fill-rule:nonzero;stroke:none;stroke-width:2;marker:none" />
    </clipPath>
    <clipPath
       id="clipPath6265-334-7">
      <rect
         x="26.96591"
         y="221.32954"
         id="rect6267-61-5"
         height="5.21591"
         width="2.8977277"
         style="color:#bebebe;display:inline;overflow:visible;visibility:visible;fill:#bebebe;fill-opacity:1;fill-rule:nonzero;stroke:none;stroke-width:2;marker:none" />
    </clipPath>
    <clipPath
       id="clipPath6259-5-3">
      <rect
         x="26.998718"
         y="221.50153"
         id="rect6261-61-5"
         height="4.8734746"
         width="1.8762827"
         style="color:#bebebe;display:inline;overflow:visible;visibility:visible;fill:#bebebe;fill-opacity:1;stroke:none;stroke-width:2;marker:none" />
    </clipPath>
    <clipPath
       id="clipPath6279-2-3-6"
       clipPathUnits="userSpaceOnUse">
      <rect
         x="26.85"
         y="220.75"
         id="rect6281-5-3-2"
         height="6.3750005"
         style="color:#bebebe;display:inline;overflow:visible;visibility:visible;fill:#bebebe;fill-opacity:1;fill-rule:nonzero;stroke:none;stroke-width:2;marker:none"
         width="3.8250003" />
    </clipPath>
    <clipPath
       id="clipPath6265-3-5-6-9"
       clipPathUnits="userSpaceOnUse">
      <rect
         x="26.96591"
         y="221.32954"
         id="rect6267-1-8-1-1"
         height="5.21591"
         style="color:#bebebe;display:inline;overflow:visible;visibility:visible;fill:#bebebe;fill-opacity:1;fill-rule:nonzero;stroke:none;stroke-width:2;marker:none"
         width="2.8977277" />
    </clipPath>
    <clipPath
       id="clipPath6259-8-8-8-2"
       clipPathUnits="userSpaceOnUse">
      <rect
         x="26.998718"
         y="221.50153"
         id="rect6261-6-0-7-7"
         height="4.8734746"
         style="color:#bebebe;display:inline;overflow:visible;visibility:visible;fill:#bebebe;fill-opacity:1;stroke:none;stroke-width:2;marker:none"
         width="1.8762827" />
    </clipPath>
    <clipPath
       id="clipPath6279-7-9"
       clipPathUnits="userSpaceOnUse">
      <rect
         x="26.85"
         y="220.75"
         id="rect6281-1-9"
         height="6.3750005"
         style="color:#bebebe;display:inline;overflow:visible;visibility:visible;fill:#bebebe;fill-opacity:1;fill-rule:nonzero;stroke:none;stroke-width:2;marker:none"
         width="3.8250003" />
    </clipPath>
    <clipPath
       id="clipPath6265-3-4"
       clipPathUnits="userSpaceOnUse">
      <rect
         x="26.96591"
         y="221.32954"
         id="rect6267-1-9"
         height="5.21591"
         style="color:#bebebe;display:inline;overflow:visible;visibility:visible;fill:#bebebe;fill-opacity:1;fill-rule:nonzero;stroke:none;stroke-width:2;marker:none"
         width="2.8977277" />
    </clipPath>
    <clipPath
       id="clipPath6259-8-81"
       clipPathUnits="userSpaceOnUse">
      <rect
         x="26.998718"
         y="221.50153"
         id="rect6261-6-6"
         height="4.8734746"
         style="color:#bebebe;display:inline;overflow:visible;visibility:visible;fill:#bebebe;fill-opacity:1;stroke:none;stroke-width:2;marker:none"
         width="1.8762827" />
    </clipPath>
    <clipPath
       id="clipPath3668"
       clipPathUnits="userSpaceOnUse">
      <rect
         x="26.998718"
         y="221.50153"
         id="rect3670"
         height="3.3729413"
         width="1.8762826"
         style="color:#bebebe;display:inline;overflow:visible;visibility:visible;fill:#bebebe;fill-opacity:1;stroke:none;stroke-width:2;marker:none" />
    </clipPath>
    <clipPath
       id="clipPath3697"
       clipPathUnits="userSpaceOnUse">
      <path
         d="m 26.965789,221.32959 v 5.21591 h 0.579546 v -1.15909 h 2.318182 v -4.05682 z"
         id="path3699"
         style="color:#bebebe;display:inline;overflow:visible;visibility:visible;fill:#bebebe;fill-opacity:1;fill-rule:nonzero;stroke:none;stroke-width:2;marker:none" />
    </clipPath>
    <clipPath
       id="clipPath6279-2-3-0"
       clipPathUnits="userSpaceOnUse">
      <rect
         x="26.85"
         y="220.75"
         id="rect6281-5-3-9"
         height="6.3750005"
         style="color:#bebebe;display:inline;overflow:visible;visibility:visible;fill:#bebebe;fill-opacity:1;fill-rule:nonzero;stroke:none;stroke-width:2;marker:none"
         width="3.8250003" />
    </clipPath>
    <clipPath
       id="a">
      <path
         d="m -73,-30 -7,-7 v -4.5 h 16.5 v 4.5 l -7.5,7 z"
         fill="none"
         stroke="#000000"
         id="path2061" />
    </clipPath>
  </defs>
  <metadata
     id="metadata852">
    <rdf:RDF>
      <cc:Work
         rdf:about="">
        <dc:format>image/svg+xml</dc:format>
        <dc:type
           rdf:resource="http://purl.org/dc/dcmitype/StillImage" />
        <dc:title />
      </cc:Work>
    </rdf:RDF>
  </metadata>
  <g
     id="layer1"
     transform="translate(-93.133331)">
    <g
       id="classic-topbar-night-light">
      <rect
         style="fill:#f6f5f4;stroke-width:0.529"
         id="rect2833"
         width="7.4083333"
         height="7.4083333"
         x="93.133331"
         y="0"
         rx="1.0583333"
         ry="1.0583333" />
      <path
         d="m 95.873173,1.5875 c 0,0 -0.14279,0.3484116 -0.0434,0.5901456 l 0.11162,0.270785 c -0.13996,0.09452 -0.26084,0.214537 -0.35605,0.353983 l -0.27027,-0.112654 c -0.2408,-0.101926 -0.59015,0.04031 -0.59015,0.04031 0,0 0.14534,0.347377 0.38654,0.448035 l 0.26924,0.112139 c -0.0163,0.08258 -0.0253,0.167595 -0.0253,0.254764 0,0.08483 0.009,0.16754 0.0243,0.248047 l -0.27026,0.111104 c -0.24235,0.0982 -0.38861,0.445968 -0.38861,0.445968 0,0 0.34841,0.142791 0.59014,0.04341 l 0.27079,-0.11162 c 0.0945,0.139859 0.21465,0.260348 0.35398,0.355534 l -0.11317,0.270783 c -0.10066,0.241207 0.0408,0.590145 0.0408,0.590145 0,0 0.34805,-0.144717 0.44752,-0.386538 l 0.11266,-0.269235 c 0.0826,0.0163 0.16759,0.02532 0.25476,0.02532 0.0848,0 0.16754,-0.0088 0.24805,-0.02429 l 0.1111,0.270269 c 0.0982,0.242346 0.44546,0.388607 0.44546,0.388607 0,0 0.1433,-0.347893 0.0439,-0.589629 l -0.11162,-0.270785 c 0.13995,-0.09448 0.2603,-0.215101 0.35553,-0.3545 l 0.27079,0.113173 c 0.2408,0.101923 0.59014,-0.04082 0.59014,-0.04082 0,0 -0.14533,-0.346861 -0.38654,-0.447519 l -0.26923,-0.112654 c 0.0163,-0.08258 0.0253,-0.167595 0.0253,-0.254765 0,-0.08483 -0.009,-0.167539 -0.0243,-0.248047 l 0.27027,-0.111103 c 0.24234,-0.0982 0.38861,-0.445453 0.38861,-0.445453 0,0 -0.3479,-0.143304 -0.58963,-0.04392 l -0.27079,0.111619 c -0.0945,-0.139946 -0.2151,-0.260299 -0.3545,-0.355533 l 0.11318,-0.270783 c 0.10192,-0.2408 -0.0408,-0.5901446 -0.0408,-0.5901446 0,0 -0.34686,0.1453296 -0.44752,0.3865376 l -0.11265,0.269234 c -0.0826,-0.0163 -0.1676,-0.02532 -0.25477,-0.02532 -0.0848,0 -0.16754,0.0088 -0.24804,0.02429 l -0.11111,-0.270269 c -0.0982,-0.242342 -0.44597,-0.3886066 -0.44597,-0.3886066 z m 0.80512,1.1637536 c 0.0493,0 0.0969,0.006 0.14366,0.01447 a 0.52916666,0.52916666 0 0 0 -0.40824,0.514694 0.52916666,0.52916666 0 0 0 0.52917,0.529167 0.52916666,0.52916666 0 0 0 0.51469,-0.409279 c 0.009,0.04705 0.0145,0.09501 0.0145,0.144695 0,0.05199 -0.006,0.102325 -0.015,0.151413 a 0.79374999,0.79374999 0 0 1 -0.006,0.02429 c -0.009,0.04062 -0.0212,0.0799 -0.0362,0.117824 a 0.79374999,0.79374999 0 0 1 -0.015,0.03514 c -0.0144,0.03196 -0.0312,0.0625 -0.0496,0.09198 a 0.79374999,0.79374999 0 0 1 -0.0289,0.04289 c -0.0193,0.0269 -0.0405,0.05229 -0.063,0.07648 a 0.79374999,0.79374999 0 0 1 -0.0274,0.02945 0.79374999,0.79374999 0 0 1 -0.008,0.0067 c -0.0242,0.02286 -0.0501,0.04389 -0.077,0.06356 a 0.79374999,0.79374999 0 0 1 -0.0387,0.02739 0.79374999,0.79374999 0 0 1 -5.3e-4,5.29e-4 c -0.0317,0.02029 -0.0651,0.03806 -0.0997,0.05374 a 0.79374999,0.79374999 0 0 1 -0.0315,0.01394 c -0.0392,0.01569 -0.0799,0.02833 -0.12196,0.03772 a 0.79374999,0.79374999 0 0 1 -0.0243,0.0057 c -0.0491,0.0093 -0.0994,0.01498 -0.15142,0.01498 -0.052,0 -0.10232,-0.0056 -0.15141,-0.01498 a 0.79374999,0.79374999 0 0 1 -0.0243,-0.0057 c -0.0406,-0.0091 -0.0799,-0.02122 -0.11782,-0.03617 a 0.79374999,0.79374999 0 0 1 -0.0351,-0.01497 c -0.032,-0.01445 -0.0625,-0.03124 -0.092,-0.04961 a 0.79374999,0.79374999 0 0 1 -0.0429,-0.02894 c -0.0269,-0.01934 -0.0523,-0.04055 -0.0765,-0.06304 a 0.79374999,0.79374999 0 0 1 -0.0294,-0.02739 0.79374999,0.79374999 0 0 1 -0.007,-0.0078 c -0.0229,-0.02418 -0.0439,-0.05005 -0.0636,-0.077 a 0.79374999,0.79374999 0 0 1 -0.0274,-0.03876 0.79374999,0.79374999 0 0 1 -5.3e-4,-5.29e-4 c -0.0203,-0.0317 -0.0381,-0.06511 -0.0537,-0.09973 a 0.79374999,0.79374999 0 0 1 -0.0139,-0.03152 c -0.0157,-0.03917 -0.0283,-0.07989 -0.0377,-0.121957 a 0.79374999,0.79374999 0 0 1 -0.006,-0.02429 c -0.009,-0.04909 -0.015,-0.09942 -0.015,-0.151413 0,-0.05199 0.006,-0.102325 0.015,-0.151413 a 0.79374999,0.79374999 0 0 1 0.006,-0.02429 c 0.009,-0.04062 0.0212,-0.0799 0.0362,-0.117824 a 0.79374999,0.79374999 0 0 1 0.015,-0.03514 c 0.0144,-0.03196 0.0312,-0.0625 0.0496,-0.09198 a 0.79374999,0.79374999 0 0 1 0.029,-0.04289 c 0.0193,-0.0269 0.0405,-0.05229 0.063,-0.07648 a 0.79374999,0.79374999 0 0 1 0.0274,-0.02945 0.79374999,0.79374999 0 0 1 0.008,-0.0067 c 0.0242,-0.02286 0.0501,-0.04389 0.077,-0.06356 a 0.79374999,0.79374999 0 0 1 0.0388,-0.02739 0.79374999,0.79374999 0 0 1 5.3e-4,-5.29e-4 c 0.0317,-0.02029 0.0651,-0.03806 0.0997,-0.05374 a 0.79374999,0.79374999 0 0 1 0.0315,-0.01394 c 0.0392,-0.01569 0.0799,-0.02834 0.12196,-0.03773 a 0.79374999,0.79374999 0 0 1 0.0243,-0.0057 c 0.0491,-0.0093 0.0994,-0.01498 0.15141,-0.01498 z"
         id="path3899"
         style="color:#000000;font-style:normal;font-variant:normal;font-weight:normal;font-stretch:normal;font-size:medium;line-height:normal;font-family:sans-serif;font-variant-ligatures:normal;font-variant-position:normal;font-variant-caps:normal;font-variant-numeric:normal;font-variant-alternates:normal;font-feature-settings:normal;text-indent:0;text-align:start;text-decoration:none;text-decoration-line:none;text-decoration-style:solid;text-decoration-color:#000000;letter-spacing:normal;word-spacing:normal;text-transform:none;writing-mode:lr-tb;direction:ltr;text-orientation:mixed;dominant-baseline:auto;baseline-shift:baseline;text-anchor:start;white-space:normal;shape-padding:0;clip-rule:nonzero;display:inline;overflow:visible;visibility:visible;isolation:auto;mix-blend-mode:normal;color-interpolation:sRGB;color-interpolation-filters:linearRGB;solid-color:#000000;solid-opacity:1;vector-effect:none;fill:#000000;fill-opacity:1;fill-rule:nonzero;stroke:none;stroke-width:0.529167;stroke-linecap:butt;stroke-linejoin:miter;stroke-miterlimit:4;stroke-dasharray:none;stroke-dashoffset:56;stroke-opacity:1;color-rendering:auto;image-rendering:auto;shape-rendering:auto;text-rendering:auto;enable-background:accumulate" />
    </g>
  </g>
</svg>
