<?xml version="1.0" encoding="UTF-8" standalone="no"?>
<svg
   xmlns:dc="http://purl.org/dc/elements/1.1/"
   xmlns:cc="http://creativecommons.org/ns#"
   xmlns:rdf="http://www.w3.org/1999/02/22-rdf-syntax-ns#"
   xmlns:svg="http://www.w3.org/2000/svg"
   xmlns="http://www.w3.org/2000/svg"
   version="1.1"
   id="svg2"
   height="11.285714"
   width="15">
  <metadata
     id="metadata10">
    <rdf:RDF>
      <cc:Work
         rdf:about="">
        <dc:format>image/svg+xml</dc:format>
        <dc:type
           rdf:resource="http://purl.org/dc/dcmitype/StillImage" />
        <dc:title></dc:title>
      </cc:Work>
    </rdf:RDF>
  </metadata>
  <defs
     id="defs8" />
  <path
     id="path4"
     d="m 0,0 0,0.5 0,10.785714 15,0 L 15,0 0,0 Z m 1.7070313,0.999997 11.5859377,0 -5.4026229,5.4026292 c -0.1675146,0.130937 -0.288286,0.168804 -0.3903462,0.168804 -0.1020602,0 -0.2228317,-0.03784 -0.390346,-0.168804 L 1.7070313,0.999997 Z M 0.99999997,1.707032 4.9358258,5.6428571 0.99999997,9.5786822 l 0,-7.8716502 z M 14,1.707032 14,9.5786822 10.064174,5.6428571 14,1.707032 Z m -8.3571429,4.6428602 0.8088727,0.80887 0.021763,0.0173 c 0.3015805,0.241266 0.6550781,0.395369 1.0265066,0.395369 0.3714285,0 0.7249264,-0.154103 1.026507,-0.395369 l 0.021766,-0.0173 0.8088727,-0.80887 3.9358259,3.9358248 -11.5859376,0 3.9358229,-3.9358248 z"
     style="color:#000000;font-style:normal;font-variant:normal;font-weight:normal;font-stretch:normal;font-size:medium;line-height:normal;font-family:sans-serif;text-indent:0;text-align:start;text-decoration:none;text-decoration-line:none;text-decoration-style:solid;text-decoration-color:#000000;letter-spacing:normal;word-spacing:normal;text-transform:none;direction:ltr;block-progression:tb;writing-mode:lr-tb;baseline-shift:baseline;text-anchor:start;white-space:normal;clip-rule:nonzero;display:inline;overflow:visible;visibility:visible;opacity:1;isolation:auto;mix-blend-mode:normal;color-interpolation:sRGB;color-interpolation-filters:linearRGB;solid-color:#000000;solid-opacity:1;fill:#000000;fill-opacity:1;fill-rule:nonzero;stroke:none;stroke-width:7;stroke-linecap:butt;stroke-linejoin:miter;stroke-miterlimit:4;stroke-dasharray:none;stroke-dashoffset:0;stroke-opacity:1;color-rendering:auto;image-rendering:auto;shape-rendering:auto;text-rendering:auto;enable-background:accumulate" />
</svg>
