<?xml version="1.0" encoding="UTF-8" standalone="no"?>
<svg
   xmlns:dc="http://purl.org/dc/elements/1.1/"
   xmlns:cc="http://creativecommons.org/ns#"
   xmlns:rdf="http://www.w3.org/1999/02/22-rdf-syntax-ns#"
   xmlns:svg="http://www.w3.org/2000/svg"
   xmlns="http://www.w3.org/2000/svg"
   stroke-miterlimit="10"
   font-weight="normal"
   font-style="normal"
   font-size="12"
   id="svg2"
   version="1.1"
   width="16"
   height="16"
   style="font-style:normal;font-weight:normal;font-size:12px;font-family:Dialog;color-interpolation:auto;fill:#000000;fill-opacity:1;stroke:#000000;stroke-width:1;stroke-linecap:square;stroke-linejoin:miter;stroke-miterlimit:10;stroke-dasharray:none;stroke-dashoffset:0;stroke-opacity:1;color-rendering:auto;image-rendering:auto;shape-rendering:auto;text-rendering:auto">
  <metadata
     id="metadata13">
    <rdf:RDF>
      <cc:Work
         rdf:about="">
        <dc:format>image/svg+xml</dc:format>
        <dc:type
           rdf:resource="http://purl.org/dc/dcmitype/StillImage" />
        <dc:title></dc:title>
      </cc:Work>
    </rdf:RDF>
  </metadata>
  <!--Unicode Character 'EARTH GLOBE EUROPE-AFRICA' (U+1F30D)-->
  <defs
     id="genericDefs" />
  <path
     d="m 16,8 q 0,3.312501 -2.343749,5.656256 Q 11.3125,16 8,16 4.6874997,16 2.3437504,13.656256 0,11.312501 0,8 0,4.6874987 2.3437504,2.3437547 4.6874997,0 8,0 11.3125,0 13.656251,2.3437547 16,4.6874987 16,8 Z M 10.976561,0.78125867 q -0.226561,-0.09376 -0.40625,-0.156256 0.03125,0.05472 0.109378,0.171872 0.05469,0 0.15625,-0.007467 0.101558,-0.007467 0.140622,-0.007467 z m 4.226561,4.85937063 q -0.02344,-0.171872 -0.156244,-0.437504 -0.03907,0.023467 -0.03907,0.062507 0,-0.070293 0.195311,0.3749973 z M 9.0937504,0.835936 Q 8.9843776,0.8203627 8.7734389,0.781216 q 0,0.0625067 0.031253,0.09376 0.1171882,-0.007467 0.2890613,-0.03904 z m 2.5546886,2.8984427 0,-0.109376 q -0.15625,-0.1953174 -0.40625,-0.617184 -0.0078,0 -0.3125,-0.2343787 0.01563,-0.085973 0.125,-0.1406187 -0.0078,-0.046827 -0.02343,-0.1406293 l -0.179688,0 q -0.132812,0 -0.289061,0.2343787 0.16406,0.2187413 0.546877,0.5468693 l -0.04688,0.046827 q -0.0078,0.09376 0.02343,0.2578026 0.01563,0.031253 0.191406,0.109376 0.175777,0.078187 0.214844,0.078187 0.03125,0 0.08203,-0.015573 0.05078,-0.015573 0.07422,-0.015573 z M 10.085939,3.054688 Q 9.8593781,2.937504 9.4609387,2.6328213 9.507808,2.5703147 9.6093781,2.445312 l -0.132817,0 q -0.070315,0 -0.2343723,0.109376 0.054688,0.031253 0.1484331,0.085973 Q 9.25,2.718741 9.1562496,2.718741 q -0.046869,0 -0.1835936,-0.124992 -0.1367168,-0.1250026 -0.1679669,-0.1250026 -0.04688,0 -0.2148448,0.2070293 -0.167967,0.2070293 -0.167967,0.2538987 0,0.046827 0.1250006,0.218752 -0.078133,0.01568 -0.2265664,0.062507 l 0.2421888,0 Q 8.5859349,3.17968 8.6249963,3.1484267 L 9.1874965,3.015616 q 0.1093782,0 0.3046891,0.07424 0.1953109,0.07424 0.3046891,0.07424 0.2031221,0 0.2890613,-0.109376 z M 8.1249995,0.835936 7.9531221,0.80468267 q -0.039061,0.07808 -0.1953109,0.13671466 -0.1562496,0.05856 -0.1796885,0.15235197 l 0.09376,0.09376 q -0.039072,0.031253 -0.039072,0.062507 -0.015627,-0.00747 -0.054688,-0.00747 -0.070315,0 -0.1250006,0.09376 -0.062496,0.117195 -0.093739,0.1328217 -0.1250006,0.031253 -0.3828171,0.085973 0.093749,0.09376 0.1640608,0.09376 0.054688,0 0.1601611,-0.03904 0.105472,-0.03904 0.1601557,-0.03904 0.023435,0 0.054688,0.027307 0.031253,0.027307 0.054688,0.027307 0.054688,0 0.1640661,-0.07808 0.1796832,-0.3749974 0.1796832,-0.3437547 0,-0.01568 -0.062496,-0.09376 0.00779,-0.046827 0.023435,-0.1406187 0.1328117,-0.10154667 0.25,-0.13282133 z M 15.804689,8 q 0,-0.3515627 -0.03125,-0.7031253 l -0.0078,0.070293 -0.04687,0 0.03125,-0.1953067 0.0078,0 -0.01563,-0.164064 -0.02344,0.1093654 Q 15.648444,6.4609173 15.242197,5.648416 15.13282,5.6953493 15.13282,5.81248 q 0,0.031253 0.01172,0.09376 0.01172,0.062507 0.01172,0.09376 0,0.1328213 -0.07422,0.38672 -0.07422,0.2539093 -0.07422,0.38672 0,0.1250027 0.05078,0.3710933 0.05078,0.2460907 0.05078,0.3710934 0,0.031253 -0.132817,0.3984426 -0.13281,-0.1171946 -0.32031,-0.828128 -0.07032,-0.1250026 -0.175784,-0.382816 -0.105472,-0.2578133 -0.207028,-0.7578133 -0.04688,0 -0.08594,0.1015467 l -0.08594,0 -0.179683,-0.1796907 q 0.0078,-0.03904 0.07031,-0.1015467 -0.140627,-0.023467 -0.304689,-0.20704 -0.164061,-0.1835946 -0.171878,-0.1835946 -0.0625,0 -0.179683,0.03904 -0.117189,0.03904 -0.179688,0.03904 0.03906,0 -0.578128,-0.078187 -0.02343,-0.023467 0,-0.1015467 -0.140623,-0.09376 -0.164062,-0.09376 -0.03125,0 -0.08985,0.050773 -0.05859,0.050773 -0.09765,0.050773 -0.13281,0 -0.21875,-0.109376 Q 12.00001,5.148276 11.98438,5.10145 L 11.99218,5.09398 11.95311,5.0783 q -0.03906,0.00747 -0.02343,0.023467 l -0.03125,0 q -0.07813,0 -0.210939,-0.1484374 -0.08594,-0.1015466 -0.179689,-0.210944 l -0.09375,-0.03904 -0.109372,0.1171947 q 0.179689,0.17968 0.460933,0.5859307 0.03907,-0.03904 0.07813,-0.046827 0.05469,0.1484373 0.0625,0.2499947 0.03906,0.046933 0.140627,0.046933 0.179683,0 0.238277,-0.1054933 0.05859,-0.1054934 0.121096,-0.222656 0.03125,0.05472 0.09375,0.1562453 0.03906,0.070293 0.273439,0.2031253 0.195311,0.109376 0.195311,0.2500054 0,0.03904 -0.05469,0.156256 -0.05469,0.117184 -0.0625,0.1484266 0,0.078187 -0.01563,0.2265707 -0.109378,0.1093653 -0.296878,0.343744 -0.109372,0 -0.210938,0.070293 -0.125001,0.07808 -0.109373,0.17968 -0.148439,0.09376 -0.445311,0.27344 -0.242189,0.09376 -0.734378,0.281248 -0.09375,-0.124992 -0.171872,-0.460928 Q 10.78904,6.85184 10.648423,6.7112213 10.554674,6.6174613 10.531234,6.4221547 10.249984,6.3127787 10.195295,6.1174613 10.179668,6.047168 10.148426,5.9143467 10.132799,5.86752 9.8671765,5.570592 l 0.046869,-0.1015467 -0.039061,-0.01568 -0.031253,0 Q 9.8281045,5.460832 9.8202965,5.476832 9.8046699,5.4065387 9.7578005,5.2737067 9.7421739,5.2580267 9.6367061,5.1565227 9.5312341,5.054976 9.4921781,5.054976 q -0.070315,0 -0.1171893,0.046827 Q 9.2421781,5.008043 9.1171787,4.6721176 l 0,-0.085973 Q 9.210928,4.5626773 9.3828,4.4845973 9.5156117,4.0158507 9.5156117,4.0705387 q 0,-0.023467 -0.039061,-0.070293 0.015627,-0.031253 0.015627,-0.070293 0,-0.062507 -0.00779,-0.124992 -0.031253,-0.070293 -0.1171883,-0.070293 -0.039072,0 -0.1132842,0.050773 -0.074219,0.050773 -0.1132832,0.050773 -0.039061,0 -0.1367168,-0.050773 -0.097653,-0.050773 -0.1367158,-0.050773 -0.031253,0 -0.082037,0.03904 -0.050773,0.03904 -0.082037,0.03904 -0.070315,0 -0.5312448,-0.3046827 l 0,-0.156256 Q 8.210944,3.2815147 8.3203168,3.226816 8.132816,3.1643093 8.0625056,3.1643093 q -0.1093781,0 -0.1484395,0.1015467 -0.046869,-0.015573 -0.1406218,-0.031253 0.093749,0.1874986 0.1953109,0.2656213 -0.031253,0.062507 -0.070315,0.062507 0.015627,0 -0.078123,-0.031253 -0.00779,0.2031254 -0.1093728,0.2031254 -0.04688,0 -0.1562496,-0.2031254 0.093749,0.01568 0.2187498,0.01568 Q 7.734384,3.5236907 7.5078176,3.4533973 7.4765643,3.383104 7.3984448,3.2737067 7.3671915,3.2346667 7.3671915,3.03152 7.2031243,2.93776 6.890624,2.7346453 6.8437547,2.664352 6.7343797,2.539328 q -0.1093781,0 -0.1093781,0.1171947 0,0.164064 0.6015616,0.5390613 L 7.1875022,3.265877 7.0390638,3.18769 7.0078108,3.234623 q 0.015627,0.046827 0.039072,0.1484373 -0.1093781,0.109376 -0.25,0.1406187 -0.09376,0.164064 -0.1093781,0.164064 -0.062496,0 -0.2812501,-0.164064 0.054688,-0.062507 0.1015573,-0.062507 0.015627,0 0.04688,0.011733 0.031253,0.011733 0.046869,0.011733 -0.039061,0 0.2109387,-0.023467 Q 6.8437525,3.42992 6.9062485,3.3752 6.8906219,3.28144 6.7499989,3.1798933 6.6406208,3.1096 6.5312491,3.031456 6.4531157,2.9611627 6.3203104,2.758016 6.2578144,2.664256 6.2031211,2.664256 q -0.046869,0 -0.1796832,0.07808 -0.1328171,0.078187 -0.1796886,0.078187 -0.039061,0 -0.1054613,-0.027307 -0.066411,-0.027307 -0.105472,-0.027307 -0.085931,0 -0.1328107,0.171872 -0.1796885,0.05472 -0.4921888,0.281248 -0.00779,0.03904 -0.031253,0.1054934 -0.023435,0.066453 -0.1835947,0.175776 -0.1601557,0.109376 -0.2148437,0.109376 -0.023435,0 -0.070315,-0.011733 -0.046869,-0.011733 -0.070315,-0.011733 -0.1015574,0 -0.2187499,0.117184 0.1171893,0.109376 0.2968725,0.109376 0.04688,0 0.25,-0.1015467 0.2031275,-0.1015466 0.25,-0.1015466 0.078133,0 0.2343776,0.01568 0.1562496,0.015573 0.2343776,0.015573 0.093749,0 0.2734336,-0.03904 0.1796886,-0.03904 0.273439,-0.03904 0.015627,0 0.1484384,0.078187 -0.00779,0.046827 -0.070315,0.109376 0.046869,0.046827 0.046869,0.124992 -0.062496,0.05472 -0.171872,0.1718826 l 0.085931,0.05472 q 0.039072,0.085973 0.2343776,0.109376 0.171872,0.015573 0.171872,0.07808 l 0.031253,0.023467 q 0.039072,-0.00747 0.035157,-0.01952 -0.00395,-0.011733 0.011723,-0.011733 -0.00779,0 0.2148438,0.1874986 0.222656,0.1874987 0.371089,0.1874987 0.1640672,0 0.1679723,-0.1992213 0.00395,-0.1992214 0.2773451,-0.1992214 0.1171829,0 0.1953109,0.07424 0.078133,0.07424 0.1562496,0.1523414 0.023435,-0.023467 0.015627,-0.070293 0.023435,0.00747 0.132817,0.07808 0.085941,0.062507 0.1249995,0.062507 0.023435,0 0.039061,-0.023467 0.015627,-0.023467 0.054688,-0.023467 0.054688,0 0.144528,0.03904 0.089845,0.03904 0.1445334,0.03904 0.070315,0 0.2109386,-0.050773 0.1406219,-0.050773 0.2109334,-0.050773 0.04688,0 0.062496,0.05472 0,0.265632 0.5703157,1.156256 0.1093728,0.1484373 0.2812501,0.4609387 0,0.164064 0.1484341,0.4843733 0.09376,0.03904 0.140627,0.1796907 0.0625,0.1874986 0.09375,0.22656 0.0078,0.00747 0.398438,0.335936 0.273439,0.22656 0.226561,0.390624 0.05469,0.062507 0.164062,0.1953173 0.414061,-0.023467 1.015628,-0.3046933 0.03125,0.031253 0.03125,0.1250026 0,0.1406187 -0.3125,0.8671894 -0.03125,0.1250026 -0.14844,0.3515626 -0.101557,0.1250027 -0.796878,0.77344 -0.484372,0.468747 -0.648433,0.890624 l 0,0.02347 q 0,0.03904 0.02343,0.08597 l -0.05469,0.03904 0.0625,0.08597 q 0,0 0,0.265632 0,0.117184 0.01563,0.187498 0.09375,0.117184 0.09375,0.265622 0,0.671872 -0.304688,0.789066 -0.1406229,0.05472 -0.7343723,0.445312 0,0.04683 0.031253,0.140619 0.031253,0.09376 0.031253,0.140629 0,-0.01557 -0.031253,0.218752 -0.1484384,0.07029 -0.4296886,0.242187 -0.015627,0.195307 -0.062496,0.234368 -0.085931,0.07029 -0.171872,0.132821 -0.3671882,0.335936 -0.7187498,0.429686 -0.25,0.06251 -0.8437504,0.06251 -0.3359382,0 -0.2812491,-0.289056 Q 6.6640587,13.984832 6.3359371,13.555147 6.3046837,13.391083 6.1953088,13.0864 6.0468757,12.867648 5.8906197,12.656715 5.7109365,12.383275 5.7109365,12.172341 q 0,-0.156256 0.1367168,-0.371104 0.1367222,-0.214837 0.1367222,-0.29296 0,-0.05472 -0.062496,-0.156256 -0.062496,-0.101546 -0.062496,-0.148437 0,0.0075 0.031243,-0.117184 -0.070315,-0.203125 -0.25,-0.585941 -0.015627,-0.03125 -0.2812441,-0.335936 -0.1953173,-0.2109337 -0.1953173,-0.359371 0,0.01568 0.074219,-0.222656 0.074219,-0.2382827 0.074219,-0.38672 0,-0.335936 -0.2656224,-0.335936 -0.039072,0 -0.105472,0.03904 -0.066411,0.03904 -0.105472,0.03904 -0.085941,0 -0.1875008,-0.1328107 -0.04688,-0.1250026 -0.1015573,-0.2421973 -0.039072,-0.07808 -0.3437558,-0.07808 -0.1562442,0 -0.3789056,0.089813 -0.2226549,0.089813 -0.2773386,0.089813 -0.039072,0 -0.1679723,-0.062507 Q 3.25,8.5394453 3.1562496,8.5394453 q -0.054688,0 -0.1523445,0.0352 -0.097653,0.0352 -0.1523435,0.0352 -0.093749,0 -0.3085952,-0.29296 Q 2.3281227,8.023904 2.2890613,8.008288 2.2734347,7.898912 2.2187467,7.68016 2.21096,7.6489067 2.1328053,7.523904 2.0781173,7.4223573 2.085936,7.3676587 l 0.00779,-0.05472 Q 1.9530944,7.2035627 1.9530944,7.008256 q 0,-0.3749973 0.2890667,-0.77344 Q 2.2499477,6.07856 2.2343744,5.7582507 2.2812437,5.656704 2.3828075,5.461376 2.4765568,5.383296 2.6406187,5.2113813 2.72656,5.0629333 2.9531189,4.797312 3.1171861,4.7504853 3.4374965,4.4379413 q 0.031253,-0.09376 0.140623,-0.27344 0.1406272,-0.03904 0.5859381,-0.4921813 l 0,-0.09376 Q 4.1406229,3.5550933 3.9453077,3.5082667 3.9530944,3.40672 4.0234411,3.2192 4.0703104,3.18016 4.1562517,3.094208 4.2265664,2.9692053 4.3671915,2.7270187 q 0.078123,-0.031253 0.1328106,-0.031253 0.078123,0 0.2382838,0.023467 0.1601546,0.023467 0.2382773,0.023467 0.070315,0 0.1757835,-0.11328 0.1054613,-0.11328 0.1054613,-0.1835947 0,-0.1562453 -0.171872,-0.234368 0.093749,-0.09376 0.171872,-0.09376 0.023435,0 0.039072,0.01568 0.015627,0.015573 0.039061,0.015573 0.039061,0 0.066411,-0.050773 0.027339,-0.050773 0.058592,-0.050773 0.015627,0 0.042965,0.011733 0.027349,0.011733 0.042976,0.011733 0.1249995,0 0.2343723,-0.109376 -0.031253,-0.01568 -0.070315,-0.01568 0.1015574,0 -0.5468778,0.05472 0.039061,-0.023467 0.1718784,-0.1015465 l -0.023435,-0.09376 q 0.1015582,-0.070294 0.3203113,-0.1796914 0,-0.03904 -0.085931,-0.07808 -0.031253,0.00747 -0.054688,0.070293 -0.078133,0.070293 -0.2109386,0.1718826 -0.031253,0.023467 -0.3046891,0.085973 l -0.062496,-0.03904 Q 4.9297035,1.820992 5.1328267,1.6334507 5.250016,1.524064 5.4062656,1.524064 q 0.015627,0 0.046869,0.011733 0.031253,0.011733 0.04688,0.011733 0.078123,0 0.1093782,-0.1367147 0.031243,-0.1367253 0.1093717,-0.1367253 0.046869,0 0.054688,0.023467 l 0.046869,-0.046827 0.101568,0 0.062496,0.085973 q -0.1484384,0.05472 -0.1484384,0.164064 0,-0.070293 0.023435,0.1796907 0.031243,0.046827 0.070315,0.046827 -0.031253,0.05472 -0.093749,0.1562453 0.015627,0.03904 0.046869,0.03904 0.00779,0 0.2617226,-0.1250027 Q 6.3984448,1.672576 6.5625067,1.6647573 6.5859413,1.578784 6.664064,1.4303787 6.7500053,1.3991253 6.9062528,1.328832 q 0,0.00747 -0.00779,0.1250027 l 0.093749,0.046827 q 0.062496,0 0.062496,-0.07808 0,-0.062507 -0.093749,-0.1953067 -0.1328127,0.070293 -0.2031241,0.070293 l -0.1484331,0 q -0.031253,-0.109376 -0.031253,-0.085973 0,-0.1718827 0.3984384,-0.28906667 0.4531274,-0.13281067 0.5312501,-0.281248 0.3593781,-0.11719467 0.6406272,-0.11719467 0.2265611,0 0.617184,0.12500267 0.3906272,0.12500267 0.3984384,0.12500267 0.070315,0 0.1015573,-0.0312533 L 9.195329,0.6803307 q 0.1406282,0.0702933 0.2109386,0.0702933 -0.1093717,0 0.1640619,-0.0625067 -0.031253,0.007467 0.1406272,0.007467 0.054688,0 0.1015573,-0.007467 Q 9.757826,0.6333973 9.5312639,0.58657064 9.335953,0.53974394 9.2890751,0.4381333 9.3125101,0.3834133 9.4218911,0.3287573 8.7031359,0.19594664 8.0000138,0.19594664 q -0.3515616,0 -0.7031222,0.0312533 l 0.078123,0.03904 q -0.2734379,0.0312533 -1.8749995,0.445312 -0.476561,0.124992 -1.1328106,0.42968536 l -0.015627,-0.03904 q -0.7890612,0.4218667 -1.4609396,1 l 0.00779,0.070293 -0.070315,0.031253 -0.023435,-0.031253 Q 0.19529707,4.500608 0.19529707,8.000608 q 0,0.4531307 0.04688,0.8749973 0.0234347,-0.1015466 0.062496,-0.1874986 0.14062186,0.3671893 0.28125013,0.7421866 0.0781227,0.27344 0.0781227,0.8125017 0,0.156256 -0.0234347,0.187498 -0.0234347,-0.07808 -0.11718293,-0.187498 0.74218343,2.476565 2.81640533,4.01953 2.0742165,1.542976 4.6601557,1.542976 3.2343777,0 5.5195337,-2.285162 2.285155,-2.285152 2.285155,-5.519531 z m -6.9374997,2.132821 q 0,-0.02347 -0.015627,-0.05472 -0.015627,-0.03125 -0.015627,-0.04683 -0.2421888,0.0075 -0.2421888,0.187499 0,0.05472 0.015627,0.156245 0.015627,0.101547 0.015627,0.148438 l 0.085941,0 q 0.039061,-0.05472 0.1250005,-0.156246 0,-0.0075 -0.00779,-0.03125 0,-0.03125 0.019531,-0.101546 0.019531,-0.07029 0.019531,-0.101547 z M 8.1328107,0.28906667 q -0.039061,0 -0.1171883,0.0312533 -0.078123,0.0312533 -0.117184,0.0312533 -0.039061,0 -0.1015573,-0.0625067 l 0.3359328,0 z M 15.257811,8.1328213 q -0.01563,0 -0.0625,0.05472 -0.01563,-0.015573 -0.08593,-0.1562453 0.0078,-0.1406293 0.04687,-0.4140693 0.101557,0.2968853 0.101557,0.2812586 l 0,0.2343787 z M 9.3125003,3.9140693 q -0.023435,0.03904 -0.2187499,0.1406187 0,-0.00747 -0.054688,-0.05472 0.00779,-0.00747 0.1874997,-0.085973 l 0.085941,0 z m 3.2343777,3.671872 -0.09376,0 0.05469,-0.070293 q 0.02343,0 0.03907,0.070293 z M 5.9531221,0.75781333 q -0.1406218,0.164064 -0.3749994,0.164064 l -0.117184,0 -0.00779,-0.05472 q 0.062496,-0.109376 0.1328171,-0.109376 l 0.3671829,0 z M 8.2187499,3.945312 q -0.031253,0.03904 -0.1249995,0.03904 -0.1093728,0 -0.2421888,-0.09376 l 0.1640608,0 q 0.031253,0 0.089845,0.01952 0.058592,0.01952 0.089845,0.01952 l 0.023435,0.015573 z m 2.5234391,2.9609387 -0.03125,0.023467 -0.03125,-0.03904 0.02344,-0.023467 0.03907,0.03904 z m -4.5390669,-3.95312 q -0.015627,0.031253 -0.054688,0.2421866 -0.023435,0.1406187 -0.1562496,0.171872 -0.031253,-0.031253 -0.031253,-0.07808 0,0.070293 0.031253,-0.164064 0.039061,-0.046827 0.1015574,-0.07808 0,-0.164064 0.078123,-0.1796906 l 0.031243,0.085973 z m -0.8359328,0.289056 -0.015627,0.046827 q -0.062496,0 -0.062496,-0.070293 0.039061,-0.00747 0.062496,-0.031253 l 0.015627,0.05472 z M 11.75,11.867189 q 0,0.171872 -0.296878,0.718752 -0.273433,0.507819 -0.429683,0.695318 -0.132817,0.156245 -0.3125,0.156245 -0.179689,0 -0.179689,-0.335936 0,-0.05472 0.113283,-0.191403 0.113278,-0.136725 0.128906,-0.20704 0,0 0,-0.187498 0,-0.203126 0.152344,-0.269536 0.15234,-0.06645 0.308595,-0.128907 0.0625,-0.05472 0.1875,-0.164053 l 0.01563,-0.07819 q 0.08594,-0.09376 0.257811,-0.273429 0.05469,0.164064 0.05469,0.265621 z"
     id="path9"
     style="fill:#000000;stroke:none" />
</svg>
