<?xml version="1.0" encoding="UTF-8" standalone="no"?>
<svg
   xmlns:dc="http://purl.org/dc/elements/1.1/"
   xmlns:cc="http://creativecommons.org/ns#"
   xmlns:rdf="http://www.w3.org/1999/02/22-rdf-syntax-ns#"
   xmlns:svg="http://www.w3.org/2000/svg"
   xmlns="http://www.w3.org/2000/svg"
   xml:space="preserve"
   enable-background="new 0 0 1024 1024"
   viewBox="0 0 14.337281 15"
   height="15"
   width="14.337281"
   y="0px"
   x="0px"
   id="Layer_1"
   version="1.1"><metadata
     id="metadata13"><rdf:RDF><cc:Work
         rdf:about=""><dc:format>image/svg+xml</dc:format><dc:type
           rdf:resource="http://purl.org/dc/dcmitype/StillImage" /><dc:title></dc:title></cc:Work></rdf:RDF></metadata><defs
     id="defs11" /><path
     id="path5"
     d="M 0.61941535,0 C 0.27595468,0 0,0.2789 0,0.6194 l 0,9.1237 c 0,0.3435 0.27595468,0.6224 0.61941535,0.6194 l 13.09847865,0 c 0.343446,0 0.619387,-0.2759 0.619387,-0.6194 l 0,-9.1237 C 14.337281,0.2789 14.061354,0 13.717894,0 L 0.61941535,0 Z m 0.37170522,0.949 12.40006843,0 0,6.8237 -12.40006843,0 0,-6.8237 z m 1.33885563,9.7843 c -0.3754299,0 -0.7773239,0.023 -1.1539831,0.1675 -0.37665933,0.1448 -0.73384365,0.4598 -0.8582487,0.9268 l -0.003948,0.015 -0.26372756,1.4192 c -0.11188995,0.4381 -0.03399818,0.8818 0.21528324,1.2078 0.25265561,0.3304 0.6687915,0.5226 1.12861282,0.5227 L 12.951381,15 c 0.459719,0 0.876673,-0.1891 1.127773,-0.5205 0.247656,-0.3268 0.320372,-0.7714 0.20369,-1.2087 l -0.279857,-1.4386 -0.0046,-0.016 C 13.866666,11.3524 13.507075,11.043 13.129665,10.8997 12.752255,10.7564 12.35002,10.7335 11.97459,10.7335 l -9.6445938,0 z m 0,0.7975 9.6445938,0 c 0.334356,0 0.655205,0.032 0.871942,0.1143 0.21305,0.081 0.318479,0.167 0.381226,0.3784 l 0.277813,1.4281 0.0043,0.015 c 0.06774,0.2427 0.02349,0.4123 -0.06634,0.5309 -0.08983,0.1185 -0.239091,0.2055 -0.489147,0.2046 l -6.17e-4,0 -11.5593768,-0.01 -1.118e-4,0 c -0.2498525,0 -0.40251088,-0.088 -0.49539222,-0.2097 C 0.80598488,13.861 0.76040286,13.689 0.82510758,13.4471 l 0.004004,-0.015 0.26215942,-1.4108 c 0.059401,-0.2142 0.1606816,-0.2977 0.371005,-0.3786 0.2135002,-0.082 0.5333574,-0.1143 0.8677137,-0.1143 z"
     style="color:#000000;font-style:normal;font-variant:normal;font-weight:normal;font-stretch:normal;font-size:medium;line-height:normal;font-family:sans-serif;text-indent:0;text-align:start;text-decoration:none;text-decoration-line:none;text-decoration-style:solid;text-decoration-color:#000000;letter-spacing:normal;word-spacing:normal;text-transform:none;direction:ltr;block-progression:tb;writing-mode:lr-tb;baseline-shift:baseline;text-anchor:start;white-space:normal;clip-rule:nonzero;display:inline;overflow:visible;visibility:visible;opacity:1;isolation:auto;mix-blend-mode:normal;color-interpolation:sRGB;color-interpolation-filters:linearRGB;solid-color:#000000;solid-opacity:1;fill:#000000;fill-opacity:1;fill-rule:nonzero;stroke:none;stroke-width:55.62509537;stroke-linecap:butt;stroke-linejoin:miter;stroke-miterlimit:4;stroke-dasharray:none;stroke-dashoffset:0;stroke-opacity:1;color-rendering:auto;image-rendering:auto;shape-rendering:auto;text-rendering:auto;enable-background:accumulate" /></svg>