<?xml version="1.0" encoding="UTF-8" standalone="no"?>
<svg
   xmlns:dc="http://purl.org/dc/elements/1.1/"
   xmlns:cc="http://creativecommons.org/ns#"
   xmlns:rdf="http://www.w3.org/1999/02/22-rdf-syntax-ns#"
   xmlns:svg="http://www.w3.org/2000/svg"
   xmlns="http://www.w3.org/2000/svg"
   width="15.999952"
   height="8"
   viewBox="0 0 15.999952 8"
   id="svg2"
   version="1.1">
  <defs
     id="defs4" />
  <metadata
     id="metadata7">
    <rdf:RDF>
      <cc:Work
         rdf:about="">
        <dc:format>image/svg+xml</dc:format>
        <dc:type
           rdf:resource="http://purl.org/dc/dcmitype/StillImage" />
        <dc:title></dc:title>
      </cc:Work>
    </rdf:RDF>
  </metadata>
  <path
     d="m 1.5604592e-5,0.21364878 q 0,-0.213647356688 0.166175505408,-0.213647356688 0.0237599,0 0.0711998,0.023759926688 L 7.4777212,3.8694458 q 0.1424395,0.0712 0.1424395,0.1424396 0,0.0712 -0.1424395,0.1424316 L 0.26112682,8.0000014 q -0.0474399,0 -0.0949517,0 -0.16617550535999,0 -0.16617550535999,-0.2373913 l 0,-7.54893732 z m 8.379798895408,0 q 0,-0.213647356688 0.1661755,-0.213647356688 0.02376,0 0.0712,0.023759926688 L 15.85752,3.8694458 q 0.142432,0.0712 0.142432,0.1424396 0,0.0712 -0.142432,0.1424316 L 8.6409257,8.0000014 q -0.04744,0 -0.094952,0 -0.1661755,0 -0.1661755,-0.2373913 l 0,-7.54893732 z"
     id="path4141"
     style="font-style:normal;font-variant:normal;font-weight:normal;font-stretch:normal;font-size:medium;line-height:125%;font-family:Arial;-inkscape-font-specification:Arial;letter-spacing:0px;word-spacing:0px;fill:#000000;fill-opacity:1;stroke:none;stroke-width:1px;stroke-linecap:butt;stroke-linejoin:miter;stroke-opacity:1" />
</svg>
