<?xml version="1.0" encoding="UTF-8" standalone="no"?>
<svg
   xmlns:dc="http://purl.org/dc/elements/1.1/"
   xmlns:cc="http://creativecommons.org/ns#"
   xmlns:rdf="http://www.w3.org/1999/02/22-rdf-syntax-ns#"
   xmlns:svg="http://www.w3.org/2000/svg"
   xmlns="http://www.w3.org/2000/svg"
   xmlns:sodipodi="http://sodipodi.sourceforge.net/DTD/sodipodi-0.dtd"
   xmlns:inkscape="http://www.inkscape.org/namespaces/inkscape"
   width="16"
   height="16"
   version="1.1"
   id="svg8"
   sodipodi:docname="preferences-system-symbolic.svg"
   inkscape:version="1.0.1 (3bc2e813f5, 2020-09-07)">
  <metadata
     id="metadata14">
    <rdf:RDF>
      <cc:Work
         rdf:about="">
        <dc:format>image/svg+xml</dc:format>
        <dc:type
           rdf:resource="http://purl.org/dc/dcmitype/StillImage" />
      </cc:Work>
    </rdf:RDF>
  </metadata>
  <defs
     id="defs12" />
  <sodipodi:namedview
     pagecolor="#ffffff"
     bordercolor="#666666"
     borderopacity="1"
     objecttolerance="10"
     gridtolerance="10"
     guidetolerance="10"
     inkscape:pageopacity="0"
     inkscape:pageshadow="2"
     inkscape:window-width="824"
     inkscape:window-height="480"
     id="namedview10"
     showgrid="false"
     inkscape:zoom="49.625"
     inkscape:cx="8"
     inkscape:cy="8"
     inkscape:window-x="26"
     inkscape:window-y="23"
     inkscape:window-maximized="0"
     inkscape:current-layer="svg8" />
  <g
     color="#000"
     font-weight="400"
     font-family="Sans"
     fill="#474747"
     id="g6"
     style="fill:#3584e4">
    <path
       d="M3.549.09a3.5 3.5 0 00-1.143.216l1.885 1.88c.387.386.387 1 0 1.387l-.711.708a.98.98 0 01-1.39 0L.303 2.401a3.473 3.473 0 00-.216 1.14 3.456 3.456 0 003.46 3.452 3.5 3.5 0 001.144-.216l1.174 1.171a2.472 2.465 0 01.062 0l2.07-2.064-1.205-1.202a3.46 3.46 0 00.217-1.14A3.456 3.456 0 003.549.09zm6.55 7.89l-2.07 2.064a2.472 2.465 0 01.031.092l1.144 1.14a3.474 3.474 0 00-.217 1.14 3.456 3.456 0 003.461 3.452c.434 0 .854-.102 1.236-.247l-2.008-2.003a1.01 1.01 0 010-1.417l.68-.678a1.03 1.03 0 01.71-.308c.253 0 .517.115.71.308l1.947 1.941c.105-.33.186-.683.186-1.047a3.456 3.456 0 00-3.46-3.452 3.5 3.5 0 00-1.144.216L10.1 7.979z"
       style="line-height:normal;-inkscape-font-specification:Sans;text-indent:0;text-align:start;text-decoration-line:none;text-transform:none;marker:none;fill:#3584e4"
       overflow="visible"
       id="path2" />
    <path
       d="M13.858 0l-1.542 1.438c-.452.42-.53 1.148-.267 1.706L6.161 9.14a1.492 1.488 0 00-.031 0 1.492 1.488 0 00-.84-.148 1.492 1.488 0 00-.867.44L.477 13.43a1.494 1.49 0 102.13 2.09l3.946-3.997a1.492 1.488 0 00.297-1.738l5.888-5.965c.558.249 1.273.147 1.707-.292l1.417-1.56L13.858 0z"
       style="line-height:normal;-inkscape-font-specification:Sans;text-indent:0;text-align:start;text-decoration-line:none;text-transform:none;marker:none;fill:#3584e4"
       overflow="visible"
       id="path4" />
  </g>
</svg>
