<?xml version="1.0" encoding="UTF-8" standalone="no"?>
<svg
   xmlns:dc="http://purl.org/dc/elements/1.1/"
   xmlns:cc="http://creativecommons.org/ns#"
   xmlns:rdf="http://www.w3.org/1999/02/22-rdf-syntax-ns#"
   xmlns:svg="http://www.w3.org/2000/svg"
   xmlns="http://www.w3.org/2000/svg"
   xmlns:sodipodi="http://sodipodi.sourceforge.net/DTD/sodipodi-0.dtd"
   xmlns:inkscape="http://www.inkscape.org/namespaces/inkscape"
   width="16"
   height="16"
   version="1.1"
   id="svg8"
   sodipodi:docname="preferences-system-network-symbolic.svg"
   inkscape:version="1.0.1 (3bc2e813f5, 2020-09-07)">
  <metadata
     id="metadata14">
    <rdf:RDF>
      <cc:Work
         rdf:about="">
        <dc:format>image/svg+xml</dc:format>
        <dc:type
           rdf:resource="http://purl.org/dc/dcmitype/StillImage" />
      </cc:Work>
    </rdf:RDF>
  </metadata>
  <defs
     id="defs12" />
  <sodipodi:namedview
     pagecolor="#ffffff"
     bordercolor="#666666"
     borderopacity="1"
     objecttolerance="10"
     gridtolerance="10"
     guidetolerance="10"
     inkscape:pageopacity="0"
     inkscape:pageshadow="2"
     inkscape:window-width="824"
     inkscape:window-height="480"
     id="namedview10"
     showgrid="false"
     inkscape:zoom="49.625"
     inkscape:cx="8"
     inkscape:cy="8"
     inkscape:window-x="26"
     inkscape:window-y="23"
     inkscape:window-maximized="0"
     inkscape:current-layer="svg8" />
  <g
     color="#bebebe"
     font-weight="400"
     fill="#474747"
     id="g6"
     style="fill:#3584e4">
    <path
       d="M1.75 4C.798 4 0 4.798 0 5.75v4.5C0 11.202.798 12 1.75 12h.125l-.781 1.563L.375 15h9.25l-.719-1.438L8.125 12h.125c.952 0 1.75-.798 1.75-1.75v-4.5C10 4.798 9.202 4 8.25 4zM2 6h6v4H2z"
       style="line-height:normal;-inkscape-font-specification:Sans;text-indent:0;text-align:start;text-decoration-line:none;text-transform:none;marker:none;fill:#3584e4"
       font-family="Sans"
       overflow="visible"
       id="path2" />
    <path
       d="M7.75 1C6.798 1 6 1.798 6 2.75V3h8v4h-3v3.25c0 .66-.252 1.27-.656 1.75h5.28l-1.5-3h.126C15.202 9 16 8.202 16 7.25v-4.5C16 1.798 15.202 1 14.25 1z"
       style="line-height:normal;text-indent:0;text-align:start;text-decoration-line:none;text-transform:none;marker:none;fill:#3584e4"
       font-family="Andale Mono"
       overflow="visible"
       id="path4" />
  </g>
</svg>
