<?xml version="1.0" encoding="UTF-8" standalone="no"?>
<svg
   xmlns:dc="http://purl.org/dc/elements/1.1/"
   xmlns:cc="http://creativecommons.org/ns#"
   xmlns:rdf="http://www.w3.org/1999/02/22-rdf-syntax-ns#"
   xmlns:svg="http://www.w3.org/2000/svg"
   xmlns="http://www.w3.org/2000/svg"
   xmlns:sodipodi="http://sodipodi.sourceforge.net/DTD/sodipodi-0.dtd"
   xmlns:inkscape="http://www.inkscape.org/namespaces/inkscape"
   width="16.023"
   height="16"
   version="1.1"
   id="svg1064"
   sodipodi:docname="tile-home.svg"
   inkscape:version="1.0.2 (e86c870879, 2021-01-15)">
  <metadata
     id="metadata1070">
    <rdf:RDF>
      <cc:Work
         rdf:about="">
        <dc:format>image/svg+xml</dc:format>
        <dc:type
           rdf:resource="http://purl.org/dc/dcmitype/StillImage" />
      </cc:Work>
    </rdf:RDF>
  </metadata>
  <defs
     id="defs1068" />
  <sodipodi:namedview
     pagecolor="#ffffff"
     bordercolor="#666666"
     borderopacity="1"
     objecttolerance="10"
     gridtolerance="10"
     guidetolerance="10"
     inkscape:pageopacity="0"
     inkscape:pageshadow="2"
     inkscape:window-width="1718"
     inkscape:window-height="950"
     id="namedview1066"
     showgrid="false"
     inkscape:zoom="49.625"
     inkscape:cx="8.0115004"
     inkscape:cy="8"
     inkscape:window-x="26"
     inkscape:window-y="23"
     inkscape:window-maximized="0"
     inkscape:current-layer="svg1064" />
  <g
     fill="#474747"
     id="g1062"
     style="fill:#3584e4">
    <path
       d="M3.008 4.986A1 1 0 002.023 6v7a1 1 0 001 1h10a1 1 0 001-1V6a1 1 0 10-2 0v6h-8V6a1 1 0 00-1.015-1.014z"
       style="line-height:normal;font-variant-ligatures:normal;font-variant-position:normal;font-variant-caps:normal;font-variant-numeric:normal;font-variant-alternates:normal;font-feature-settings:normal;text-indent:0;text-align:start;text-decoration-line:none;text-decoration-style:solid;text-decoration-color:#000;text-transform:none;text-orientation:mixed;shape-padding:0;isolation:auto;mix-blend-mode:normal;fill:#3584e4"
       color="#000"
       font-weight="400"
       font-family="sans-serif"
       overflow="visible"
       id="path1054" />
    <path
       d="M8.031 1a1 1 0 00-.601.186l-7 5a1.001 1.001 0 101.164 1.628L8.012 3.23l6.418 4.585a1.001 1.001 0 101.164-1.628l-7-5A1 1 0 008.03 1z"
       style="line-height:normal;font-variant-ligatures:normal;font-variant-position:normal;font-variant-caps:normal;font-variant-numeric:normal;font-variant-alternates:normal;font-feature-settings:normal;text-indent:0;text-align:start;text-decoration-line:none;text-decoration-style:solid;text-decoration-color:#000;text-transform:none;text-orientation:mixed;shape-padding:0;isolation:auto;mix-blend-mode:normal;fill:#3584e4"
       color="#000"
       font-weight="400"
       font-family="sans-serif"
       overflow="visible"
       id="path1056" />
    <path
       d="M6.012 8.01h3.03V13h-3.03z"
       style="marker:none;fill:#3584e4"
       color="#bebebe"
       overflow="visible"
       id="path1058" />
    <path
       d="M15.012 7h1v1h-1zm-15 0h1v1h-1z"
       id="path1060"
       style="fill:#3584e4" />
  </g>
</svg>
