<?xml version="1.0" encoding="UTF-8" standalone="no"?>
<svg
   xmlns:dc="http://purl.org/dc/elements/1.1/"
   xmlns:cc="http://creativecommons.org/ns#"
   xmlns:rdf="http://www.w3.org/1999/02/22-rdf-syntax-ns#"
   xmlns:svg="http://www.w3.org/2000/svg"
   xmlns="http://www.w3.org/2000/svg"
   xmlns:sodipodi="http://sodipodi.sourceforge.net/DTD/sodipodi-0.dtd"
   xmlns:inkscape="http://www.inkscape.org/namespaces/inkscape"
   width="16.047"
   height="16.01"
   version="1.1"
   id="svg1677"
   sodipodi:docname="tile-media.svg"
   inkscape:version="1.0.2 (e86c870879, 2021-01-15)">
  <metadata
     id="metadata1683">
    <rdf:RDF>
      <cc:Work
         rdf:about="">
        <dc:format>image/svg+xml</dc:format>
        <dc:type
           rdf:resource="http://purl.org/dc/dcmitype/StillImage" />
      </cc:Work>
    </rdf:RDF>
  </metadata>
  <defs
     id="defs1681" />
  <sodipodi:namedview
     pagecolor="#ffffff"
     bordercolor="#666666"
     borderopacity="1"
     objecttolerance="10"
     gridtolerance="10"
     guidetolerance="10"
     inkscape:pageopacity="0"
     inkscape:pageshadow="2"
     inkscape:window-width="1920"
     inkscape:window-height="1016"
     id="namedview1679"
     showgrid="false"
     inkscape:zoom="49.594003"
     inkscape:cx="8.0235004"
     inkscape:cy="8.0050001"
     inkscape:window-x="0"
     inkscape:window-y="0"
     inkscape:window-maximized="1"
     inkscape:current-layer="svg1677" />
  <path
     style="marker:none;fill:#3584e4"
     d="M6.047 2c-.55 0-1 .45-1 1v1h-3c-.552 0-1 .45-1 1v8c0 .55.448 1 1 1h12c.552 0 1-.45 1-1V5c0-.55-.448-1-1-1h-3V3c0-.55-.45-1-1-1zm2 3a4 4 0 110 8 4 4 0 010-8zm0 2a2 2 0 100 4 2 2 0 000-4z"
     color="#bebebe"
     overflow="visible"
     fill="#474747"
     id="path1675" />
</svg>
