<?xml version="1.0" encoding="UTF-8" standalone="no"?>
<svg
   width="16.017"
   height="16.005"
   version="1.1"
   id="svg4"
   sodipodi:docname="tile-a11y.svg"
   inkscape:version="1.3 (0e150ed6c4, 2023-07-21)"
   xmlns:inkscape="http://www.inkscape.org/namespaces/inkscape"
   xmlns:sodipodi="http://sodipodi.sourceforge.net/DTD/sodipodi-0.dtd"
   xmlns="http://www.w3.org/2000/svg"
   xmlns:svg="http://www.w3.org/2000/svg"
   xmlns:rdf="http://www.w3.org/1999/02/22-rdf-syntax-ns#"
   xmlns:cc="http://creativecommons.org/ns#"
   xmlns:dc="http://purl.org/dc/elements/1.1/">
  <metadata
     id="metadata10">
    <rdf:RDF>
      <cc:Work
         rdf:about="">
        <dc:format>image/svg+xml</dc:format>
        <dc:type
           rdf:resource="http://purl.org/dc/dcmitype/StillImage" />
      </cc:Work>
    </rdf:RDF>
  </metadata>
  <defs
     id="defs8" />
  <sodipodi:namedview
     pagecolor="#ffffff"
     bordercolor="#666666"
     borderopacity="1"
     objecttolerance="10"
     gridtolerance="10"
     guidetolerance="10"
     inkscape:pageopacity="0"
     inkscape:pageshadow="2"
     inkscape:window-width="1920"
     inkscape:window-height="1011"
     id="namedview6"
     showgrid="false"
     inkscape:zoom="41.737492"
     inkscape:cx="7.4153953"
     inkscape:cy="8.0143771"
     inkscape:window-x="0"
     inkscape:window-y="0"
     inkscape:window-maximized="1"
     inkscape:current-layer="svg4"
     inkscape:showpageshadow="2"
     inkscape:pagecheckerboard="0"
     inkscape:deskcolor="#d1d1d1" />
  <path
     id="path2"
     style="fill:#3584e4;stroke-width:1;marker:none"
     d="M 8.0175781 0 C 3.5993015 0 0.017578125 3.5817265 0.017578125 8 C 0.017578125 12.418274 3.5993015 16 8.0175781 16 C 12.435855 16 16.017578 12.418274 16.017578 8 C 16.017578 3.5817265 12.435855 0 8.0175781 0 z M 8.0175781 2.0136719 C 8.8448506 2.0136719 9.5136719 2.6824944 9.5136719 3.5097656 C 9.5136719 4.3370371 8.8448506 5.0058594 8.0175781 5.0058594 C 7.1932309 5.0058594 6.5195312 4.3370371 6.5195312 3.5097656 C 6.5195312 2.6824944 7.1932309 2.0136719 8.0175781 2.0136719 z M 3.5273438 5.7558594 L 12.507812 5.7558594 L 12.507812 7.2519531 L 10.261719 7.2519531 L 10.261719 13.986328 L 8.765625 13.986328 L 8.765625 10.994141 C 8.765625 10.581967 8.429751 10.244141 8.0175781 10.244141 C 7.605404 10.244141 7.2695312 10.581967 7.2695312 10.994141 L 7.2695312 13.986328 L 5.7714844 13.986328 L 5.7714844 7.2519531 L 3.5273438 7.2519531 L 3.5273438 5.7558594 z " />
</svg>
