<?xml version="1.0" encoding="UTF-8" standalone="no"?>
<svg
   width="16.017"
   height="16.005"
   version="1.1"
   id="svg4"
   sodipodi:docname="tile-a11y.svg"
   inkscape:version="1.3 (0e150ed6c4, 2023-07-21)"
   xmlns:inkscape="http://www.inkscape.org/namespaces/inkscape"
   xmlns:sodipodi="http://sodipodi.sourceforge.net/DTD/sodipodi-0.dtd"
   xmlns="http://www.w3.org/2000/svg"
   xmlns:svg="http://www.w3.org/2000/svg"
   xmlns:rdf="http://www.w3.org/1999/02/22-rdf-syntax-ns#"
   xmlns:cc="http://creativecommons.org/ns#"
   xmlns:dc="http://purl.org/dc/elements/1.1/">
  <metadata
     id="metadata10">
    <rdf:RDF>
      <cc:Work
         rdf:about="">
        <dc:format>image/svg+xml</dc:format>
        <dc:type
           rdf:resource="http://purl.org/dc/dcmitype/StillImage" />
      </cc:Work>
    </rdf:RDF>
  </metadata>
  <defs
     id="defs8" />
  <sodipodi:namedview
     pagecolor="#ffffff"
     bordercolor="#666666"
     borderopacity="1"
     objecttolerance="10"
     gridtolerance="10"
     guidetolerance="10"
     inkscape:pageopacity="0"
     inkscape:pageshadow="2"
     inkscape:window-width="1920"
     inkscape:window-height="1011"
     id="namedview6"
     showgrid="false"
     inkscape:zoom="41.737492"
     inkscape:cx="7.4153953"
     inkscape:cy="8.0143771"
     inkscape:window-x="0"
     inkscape:window-y="0"
     inkscape:window-maximized="1"
     inkscape:current-layer="svg4"
     inkscape:showpageshadow="2"
     inkscape:pagecheckerboard="0"
     inkscape:deskcolor="#d1d1d1" />
  <path
     d="M 8.017,0 C 3.598719,0 0.01700347,3.5817221 0.01700347,8 c 0,4.418278 3.58171553,8 7.99999653,8 4.418281,0 7.999997,-3.581722 7.999997,-8 0,-4.4182779 -3.581716,-8 -7.999997,-8 z"
     style="fill:#3584e4;stroke-width:1;marker:none"
     overflow="visible"
     fill="#2e3436"
     id="path2"
     sodipodi:nodetypes="sssss" />
  <g
     id="g1"
     transform="translate(3.4999999e-8,0.0132335)">
    <path
       d="m 8.0169995,2 c 0.8272741,0 1.4966921,0.6694185 1.4966921,1.4966915 0,0.8272731 -0.669418,1.4966915 -1.4966921,1.4966915 -0.8243488,0 -1.4966907,-0.6694184 -1.4966907,-1.4966915 C 6.5203088,2.6694185 7.1926507,2 8.0169995,2 Z m 0,0"
       id="path1"
       style="fill:#ffffff;stroke-width:0.748346" />
    <path
       d="M 3.5269254,7.2384202 H 5.7719626 V 13.973533 H 7.2686542 V 10.98015 c 0,-0.412174 0.3361712,-0.748347 0.7483461,-0.748347 0.4121737,0 0.7483447,0.336173 0.7483447,0.748347 v 2.993383 h 1.496692 V 7.2384202 h 2.245038 V 5.7417287 H 3.5269254 Z m 0,0"
       id="path2-3"
       style="fill:#ffffff;stroke-width:0.748346" />
  </g>
</svg>
