<?xml version="1.0" encoding="UTF-8" standalone="no"?>
<svg
   xmlns:dc="http://purl.org/dc/elements/1.1/"
   xmlns:cc="http://creativecommons.org/ns#"
   xmlns:rdf="http://www.w3.org/1999/02/22-rdf-syntax-ns#"
   xmlns:svg="http://www.w3.org/2000/svg"
   xmlns="http://www.w3.org/2000/svg"
   xmlns:sodipodi="http://sodipodi.sourceforge.net/DTD/sodipodi-0.dtd"
   xmlns:inkscape="http://www.inkscape.org/namespaces/inkscape"
   width="16"
   height="16"
   version="1.1"
   id="svg4"
   sodipodi:docname="system-file-manager-symbolic.svg"
   inkscape:version="1.0.1 (3bc2e813f5, 2020-09-07)">
  <metadata
     id="metadata10">
    <rdf:RDF>
      <cc:Work
         rdf:about="">
        <dc:format>image/svg+xml</dc:format>
        <dc:type
           rdf:resource="http://purl.org/dc/dcmitype/StillImage" />
      </cc:Work>
    </rdf:RDF>
  </metadata>
  <defs
     id="defs8" />
  <sodipodi:namedview
     pagecolor="#ffffff"
     bordercolor="#666666"
     borderopacity="1"
     objecttolerance="10"
     gridtolerance="10"
     guidetolerance="10"
     inkscape:pageopacity="0"
     inkscape:pageshadow="2"
     inkscape:window-width="824"
     inkscape:window-height="480"
     id="namedview6"
     showgrid="false"
     inkscape:zoom="49.625"
     inkscape:cx="8"
     inkscape:cy="8"
     inkscape:window-x="26"
     inkscape:window-y="23"
     inkscape:window-maximized="0"
     inkscape:current-layer="svg4" />
  <path
     d="M3.187 0C1.982 0 1 1.018 1 2.219V13.78C1 14.982 1.982 16 3.187 16h9.625C14.017 16 15 14.982 15 13.781V2.22C15 1.018 14.017 0 12.812 0zM3 3h10v11H3zm1 1v4h8.031V4zm2.344 1.438a.5.5 0 01.062 0 .5.5 0 01.594.5V6h2v-.063a.5.5 0 111 0V6c0 .545-.455 1-1 1H7c-.546 0-1-.455-1-1v-.063a.5.5 0 01.344-.5zM4.03 9v4h8.031V9zm2.313 1.438a.5.5 0 01.062 0 .5.5 0 01.594.5V11h2v-.063a.5.5 0 111 0V11c0 .545-.455 1-1 1H7c-.546 0-1-.455-1-1v-.063a.5.5 0 01.344-.5z"
     style="marker:none;fill:#3584e4"
     color="#000"
     overflow="visible"
     fill="#474747"
     fill-rule="evenodd"
     id="path2" />
</svg>
