<?xml version="1.0" encoding="UTF-8" standalone="no"?>
<svg
   width="28"
   height="28"
   viewBox="0 0 7.4083333 7.4083338"
   version="1.1"
   id="svg919"
   xmlns="http://www.w3.org/2000/svg"
   xmlns:svg="http://www.w3.org/2000/svg"
   xmlns:rdf="http://www.w3.org/1999/02/22-rdf-syntax-ns#"
   xmlns:cc="http://creativecommons.org/ns#"
   xmlns:dc="http://purl.org/dc/elements/1.1/">
  <defs
     id="defs849">
    <clipPath
       id="clipPath6279-3">
      <rect
         x="26.85"
         y="220.75"
         id="rect6281-9"
         height="6.3750005"
         width="3.8250003"
         style="color:#bebebe;display:inline;overflow:visible;visibility:visible;fill:#bebebe;fill-opacity:1;fill-rule:nonzero;stroke:none;stroke-width:2;marker:none" />
    </clipPath>
    <clipPath
       id="clipPath6265-334">
      <rect
         x="26.96591"
         y="221.32954"
         id="rect6267-61"
         height="5.21591"
         width="2.8977277"
         style="color:#bebebe;display:inline;overflow:visible;visibility:visible;fill:#bebebe;fill-opacity:1;fill-rule:nonzero;stroke:none;stroke-width:2;marker:none" />
    </clipPath>
    <clipPath
       id="clipPath6259-5">
      <rect
         x="26.998718"
         y="221.50153"
         id="rect6261-61"
         height="4.8734746"
         width="1.8762827"
         style="color:#bebebe;display:inline;overflow:visible;visibility:visible;fill:#bebebe;fill-opacity:1;stroke:none;stroke-width:2;marker:none" />
    </clipPath>
    <clipPath
       id="clipPath6259-8-8-8"
       clipPathUnits="userSpaceOnUse">
      <rect
         x="26.998718"
         y="221.50153"
         id="rect6261-6-0-7"
         height="4.8734746"
         style="color:#bebebe;display:inline;overflow:visible;visibility:visible;fill:#bebebe;fill-opacity:1;stroke:none;stroke-width:2;marker:none"
         width="1.8762827" />
    </clipPath>
    <clipPath
       id="clipPath6265-3-5-6"
       clipPathUnits="userSpaceOnUse">
      <rect
         x="26.96591"
         y="221.32954"
         id="rect6267-1-8-1"
         height="5.21591"
         style="color:#bebebe;display:inline;overflow:visible;visibility:visible;fill:#bebebe;fill-opacity:1;fill-rule:nonzero;stroke:none;stroke-width:2;marker:none"
         width="2.8977277" />
    </clipPath>
    <clipPath
       id="clipPath6279-2-3"
       clipPathUnits="userSpaceOnUse">
      <rect
         x="26.85"
         y="220.75"
         id="rect6281-5-3"
         height="6.3750005"
         style="color:#bebebe;display:inline;overflow:visible;visibility:visible;fill:#bebebe;fill-opacity:1;fill-rule:nonzero;stroke:none;stroke-width:2;marker:none"
         width="3.8250003" />
    </clipPath>
    <clipPath
       id="clipPath6279-3-3">
      <rect
         x="26.85"
         y="220.75"
         id="rect6281-9-6"
         height="6.3750005"
         width="3.8250003"
         style="color:#bebebe;display:inline;overflow:visible;visibility:visible;fill:#bebebe;fill-opacity:1;fill-rule:nonzero;stroke:none;stroke-width:2;marker:none" />
    </clipPath>
    <clipPath
       id="clipPath6265-334-7">
      <rect
         x="26.96591"
         y="221.32954"
         id="rect6267-61-5"
         height="5.21591"
         width="2.8977277"
         style="color:#bebebe;display:inline;overflow:visible;visibility:visible;fill:#bebebe;fill-opacity:1;fill-rule:nonzero;stroke:none;stroke-width:2;marker:none" />
    </clipPath>
    <clipPath
       id="clipPath6259-5-3">
      <rect
         x="26.998718"
         y="221.50153"
         id="rect6261-61-5"
         height="4.8734746"
         width="1.8762827"
         style="color:#bebebe;display:inline;overflow:visible;visibility:visible;fill:#bebebe;fill-opacity:1;stroke:none;stroke-width:2;marker:none" />
    </clipPath>
    <clipPath
       id="clipPath6279-2-3-6"
       clipPathUnits="userSpaceOnUse">
      <rect
         x="26.85"
         y="220.75"
         id="rect6281-5-3-2"
         height="6.3750005"
         style="color:#bebebe;display:inline;overflow:visible;visibility:visible;fill:#bebebe;fill-opacity:1;fill-rule:nonzero;stroke:none;stroke-width:2;marker:none"
         width="3.8250003" />
    </clipPath>
    <clipPath
       id="clipPath6265-3-5-6-9"
       clipPathUnits="userSpaceOnUse">
      <rect
         x="26.96591"
         y="221.32954"
         id="rect6267-1-8-1-1"
         height="5.21591"
         style="color:#bebebe;display:inline;overflow:visible;visibility:visible;fill:#bebebe;fill-opacity:1;fill-rule:nonzero;stroke:none;stroke-width:2;marker:none"
         width="2.8977277" />
    </clipPath>
    <clipPath
       id="clipPath6259-8-8-8-2"
       clipPathUnits="userSpaceOnUse">
      <rect
         x="26.998718"
         y="221.50153"
         id="rect6261-6-0-7-7"
         height="4.8734746"
         style="color:#bebebe;display:inline;overflow:visible;visibility:visible;fill:#bebebe;fill-opacity:1;stroke:none;stroke-width:2;marker:none"
         width="1.8762827" />
    </clipPath>
    <clipPath
       id="clipPath6279-7-9"
       clipPathUnits="userSpaceOnUse">
      <rect
         x="26.85"
         y="220.75"
         id="rect6281-1-9"
         height="6.3750005"
         style="color:#bebebe;display:inline;overflow:visible;visibility:visible;fill:#bebebe;fill-opacity:1;fill-rule:nonzero;stroke:none;stroke-width:2;marker:none"
         width="3.8250003" />
    </clipPath>
    <clipPath
       id="clipPath6265-3-4"
       clipPathUnits="userSpaceOnUse">
      <rect
         x="26.96591"
         y="221.32954"
         id="rect6267-1-9"
         height="5.21591"
         style="color:#bebebe;display:inline;overflow:visible;visibility:visible;fill:#bebebe;fill-opacity:1;fill-rule:nonzero;stroke:none;stroke-width:2;marker:none"
         width="2.8977277" />
    </clipPath>
    <clipPath
       id="clipPath6259-8-81"
       clipPathUnits="userSpaceOnUse">
      <rect
         x="26.998718"
         y="221.50153"
         id="rect6261-6-6"
         height="4.8734746"
         style="color:#bebebe;display:inline;overflow:visible;visibility:visible;fill:#bebebe;fill-opacity:1;stroke:none;stroke-width:2;marker:none"
         width="1.8762827" />
    </clipPath>
    <clipPath
       id="clipPath3668"
       clipPathUnits="userSpaceOnUse">
      <rect
         x="26.998718"
         y="221.50153"
         id="rect3670"
         height="3.3729413"
         width="1.8762826"
         style="color:#bebebe;display:inline;overflow:visible;visibility:visible;fill:#bebebe;fill-opacity:1;stroke:none;stroke-width:2;marker:none" />
    </clipPath>
    <clipPath
       id="clipPath3697"
       clipPathUnits="userSpaceOnUse">
      <path
         d="m 26.965789,221.32959 v 5.21591 h 0.579546 v -1.15909 h 2.318182 v -4.05682 z"
         id="path3699"
         style="color:#bebebe;display:inline;overflow:visible;visibility:visible;fill:#bebebe;fill-opacity:1;fill-rule:nonzero;stroke:none;stroke-width:2;marker:none" />
    </clipPath>
    <clipPath
       id="clipPath6279-2-3-0"
       clipPathUnits="userSpaceOnUse">
      <rect
         x="26.85"
         y="220.75"
         id="rect6281-5-3-9"
         height="6.3750005"
         style="color:#bebebe;display:inline;overflow:visible;visibility:visible;fill:#bebebe;fill-opacity:1;fill-rule:nonzero;stroke:none;stroke-width:2;marker:none"
         width="3.8250003" />
    </clipPath>
    <clipPath
       id="a">
      <path
         d="m -73,-30 -7,-7 v -4.5 h 16.5 v 4.5 l -7.5,7 z"
         fill="none"
         stroke="#000000"
         id="path2061" />
    </clipPath>
  </defs>
  <metadata
     id="metadata852">
    <rdf:RDF>
      <cc:Work
         rdf:about="">
        <dc:format>image/svg+xml</dc:format>
        <dc:type
           rdf:resource="http://purl.org/dc/dcmitype/StillImage" />
        <dc:title />
      </cc:Work>
    </rdf:RDF>
  </metadata>
  <g
     id="layer1"
     transform="translate(0,-33.866669)">
    <g
       id="topbar-accessibility"
       transform="translate(0,8.466669)">
      <rect
         style="fill:#000000;stroke-width:0.529"
         id="rect2332"
         width="7.4083333"
         height="7.4083333"
         x="0"
         y="25.4"
         rx="1.0583333"
         ry="1.0583333" />
      <path
         d="m 3.7048172,26.9875 a 2.1166666,2.1166666 0 1 0 0,4.233333 2.1166666,2.1166666 0 0 0 0,-4.233333 z m 0,0.529167 a 0.52916666,0.52916666 0 1 1 0,1.058333 0.52916666,0.52916666 0 0 1 0,-1.058333 z M 2.5123402,28.575 c 0.0042,0 0.0085,0 0.0127,5.29e-4 0,0 0.797719,0.06562 1.180042,0.06562 0.382058,0 1.179512,-0.06562 1.179512,-0.06562 a 0.13229166,0.13229166 0 0 1 0.104511,0.225425 c -0.05106,0.05106 -0.07752,0.04815 -0.112713,0.05821 a 4.2809583,4.2809583 0 0 1 -0.642408,0.112713 c 0.01323,0.496623 0.02223,0.874977 0.09366,1.11125 0.03969,0.130175 0.07858,0.22569 0.108479,0.294481 0.01508,0.0344 0.02752,0.06165 0.03784,0.08625 0.01032,0.02434 0.02461,0.03202 0.02461,0.09551 a 0.13229166,0.13229166 0 0 1 -0.225689,0.09366 c -0.06032,-0.06058 -0.105833,-0.139426 -0.169333,-0.247641 a 9.9348395,9.9348395 0 0 1 -0.20109,-0.362743 C 3.7968922,29.845 3.7400072,29.730435 3.7048172,29.66085 c -0.03493,0.06932 -0.09181,0.18415 -0.197379,0.381794 -0.06668,0.124883 -0.137319,0.254529 -0.201083,0.362743 -0.0635,0.108215 -0.109009,0.187061 -0.169334,0.24765 a 0.13229166,0.13229166 0 0 1 -0.225954,-0.09366 c 0,-0.0635 0.01455,-0.07117 0.02487,-0.09551 l 0.03783,-0.08652 c 0.0299,-0.06879 0.06879,-0.164042 0.10848,-0.294482 0.07144,-0.236008 0.08043,-0.614362 0.0934,-1.110985 -0.238125,-0.01852 -0.401372,-0.06218 -0.642143,-0.112713 -0.03519,-0.01005 -0.06165,-0.0071 -0.112713,-0.05821 a 0.13229166,0.13229166 0 0 1 0.09155,-0.225954 z"
         style="fill:#ffffff;stroke-width:0.264583;marker:none"
         overflow="visible"
         fill="#2e3436"
         id="path3805" />
    </g>
  </g>
</svg>
