<?xml version="1.0" encoding="UTF-8" standalone="no"?>
<svg
   width="28"
   height="28"
   viewBox="0 0 7.4083333 7.4083338"
   version="1.1"
   id="svg919"
   xmlns="http://www.w3.org/2000/svg"
   xmlns:svg="http://www.w3.org/2000/svg"
   xmlns:rdf="http://www.w3.org/1999/02/22-rdf-syntax-ns#"
   xmlns:cc="http://creativecommons.org/ns#"
   xmlns:dc="http://purl.org/dc/elements/1.1/">
  <defs
     id="defs849">
    <clipPath
       id="clipPath6279-3">
      <rect
         x="26.85"
         y="220.75"
         id="rect6281-9"
         height="6.3750005"
         width="3.8250003"
         style="color:#bebebe;display:inline;overflow:visible;visibility:visible;fill:#bebebe;fill-opacity:1;fill-rule:nonzero;stroke:none;stroke-width:2;marker:none" />
    </clipPath>
    <clipPath
       id="clipPath6265-334">
      <rect
         x="26.96591"
         y="221.32954"
         id="rect6267-61"
         height="5.21591"
         width="2.8977277"
         style="color:#bebebe;display:inline;overflow:visible;visibility:visible;fill:#bebebe;fill-opacity:1;fill-rule:nonzero;stroke:none;stroke-width:2;marker:none" />
    </clipPath>
    <clipPath
       id="clipPath6259-5">
      <rect
         x="26.998718"
         y="221.50153"
         id="rect6261-61"
         height="4.8734746"
         width="1.8762827"
         style="color:#bebebe;display:inline;overflow:visible;visibility:visible;fill:#bebebe;fill-opacity:1;stroke:none;stroke-width:2;marker:none" />
    </clipPath>
    <clipPath
       id="clipPath6259-8-8-8"
       clipPathUnits="userSpaceOnUse">
      <rect
         x="26.998718"
         y="221.50153"
         id="rect6261-6-0-7"
         height="4.8734746"
         style="color:#bebebe;display:inline;overflow:visible;visibility:visible;fill:#bebebe;fill-opacity:1;stroke:none;stroke-width:2;marker:none"
         width="1.8762827" />
    </clipPath>
    <clipPath
       id="clipPath6265-3-5-6"
       clipPathUnits="userSpaceOnUse">
      <rect
         x="26.96591"
         y="221.32954"
         id="rect6267-1-8-1"
         height="5.21591"
         style="color:#bebebe;display:inline;overflow:visible;visibility:visible;fill:#bebebe;fill-opacity:1;fill-rule:nonzero;stroke:none;stroke-width:2;marker:none"
         width="2.8977277" />
    </clipPath>
    <clipPath
       id="clipPath6279-2-3"
       clipPathUnits="userSpaceOnUse">
      <rect
         x="26.85"
         y="220.75"
         id="rect6281-5-3"
         height="6.3750005"
         style="color:#bebebe;display:inline;overflow:visible;visibility:visible;fill:#bebebe;fill-opacity:1;fill-rule:nonzero;stroke:none;stroke-width:2;marker:none"
         width="3.8250003" />
    </clipPath>
    <clipPath
       id="clipPath6279-3-3">
      <rect
         x="26.85"
         y="220.75"
         id="rect6281-9-6"
         height="6.3750005"
         width="3.8250003"
         style="color:#bebebe;display:inline;overflow:visible;visibility:visible;fill:#bebebe;fill-opacity:1;fill-rule:nonzero;stroke:none;stroke-width:2;marker:none" />
    </clipPath>
    <clipPath
       id="clipPath6265-334-7">
      <rect
         x="26.96591"
         y="221.32954"
         id="rect6267-61-5"
         height="5.21591"
         width="2.8977277"
         style="color:#bebebe;display:inline;overflow:visible;visibility:visible;fill:#bebebe;fill-opacity:1;fill-rule:nonzero;stroke:none;stroke-width:2;marker:none" />
    </clipPath>
    <clipPath
       id="clipPath6259-5-3">
      <rect
         x="26.998718"
         y="221.50153"
         id="rect6261-61-5"
         height="4.8734746"
         width="1.8762827"
         style="color:#bebebe;display:inline;overflow:visible;visibility:visible;fill:#bebebe;fill-opacity:1;stroke:none;stroke-width:2;marker:none" />
    </clipPath>
    <clipPath
       id="clipPath6279-2-3-6"
       clipPathUnits="userSpaceOnUse">
      <rect
         x="26.85"
         y="220.75"
         id="rect6281-5-3-2"
         height="6.3750005"
         style="color:#bebebe;display:inline;overflow:visible;visibility:visible;fill:#bebebe;fill-opacity:1;fill-rule:nonzero;stroke:none;stroke-width:2;marker:none"
         width="3.8250003" />
    </clipPath>
    <clipPath
       id="clipPath6265-3-5-6-9"
       clipPathUnits="userSpaceOnUse">
      <rect
         x="26.96591"
         y="221.32954"
         id="rect6267-1-8-1-1"
         height="5.21591"
         style="color:#bebebe;display:inline;overflow:visible;visibility:visible;fill:#bebebe;fill-opacity:1;fill-rule:nonzero;stroke:none;stroke-width:2;marker:none"
         width="2.8977277" />
    </clipPath>
    <clipPath
       id="clipPath6259-8-8-8-2"
       clipPathUnits="userSpaceOnUse">
      <rect
         x="26.998718"
         y="221.50153"
         id="rect6261-6-0-7-7"
         height="4.8734746"
         style="color:#bebebe;display:inline;overflow:visible;visibility:visible;fill:#bebebe;fill-opacity:1;stroke:none;stroke-width:2;marker:none"
         width="1.8762827" />
    </clipPath>
    <clipPath
       id="clipPath6279-7-9"
       clipPathUnits="userSpaceOnUse">
      <rect
         x="26.85"
         y="220.75"
         id="rect6281-1-9"
         height="6.3750005"
         style="color:#bebebe;display:inline;overflow:visible;visibility:visible;fill:#bebebe;fill-opacity:1;fill-rule:nonzero;stroke:none;stroke-width:2;marker:none"
         width="3.8250003" />
    </clipPath>
    <clipPath
       id="clipPath6265-3-4"
       clipPathUnits="userSpaceOnUse">
      <rect
         x="26.96591"
         y="221.32954"
         id="rect6267-1-9"
         height="5.21591"
         style="color:#bebebe;display:inline;overflow:visible;visibility:visible;fill:#bebebe;fill-opacity:1;fill-rule:nonzero;stroke:none;stroke-width:2;marker:none"
         width="2.8977277" />
    </clipPath>
    <clipPath
       id="clipPath6259-8-81"
       clipPathUnits="userSpaceOnUse">
      <rect
         x="26.998718"
         y="221.50153"
         id="rect6261-6-6"
         height="4.8734746"
         style="color:#bebebe;display:inline;overflow:visible;visibility:visible;fill:#bebebe;fill-opacity:1;stroke:none;stroke-width:2;marker:none"
         width="1.8762827" />
    </clipPath>
    <clipPath
       id="clipPath3668"
       clipPathUnits="userSpaceOnUse">
      <rect
         x="26.998718"
         y="221.50153"
         id="rect3670"
         height="3.3729413"
         width="1.8762826"
         style="color:#bebebe;display:inline;overflow:visible;visibility:visible;fill:#bebebe;fill-opacity:1;stroke:none;stroke-width:2;marker:none" />
    </clipPath>
    <clipPath
       id="clipPath3697"
       clipPathUnits="userSpaceOnUse">
      <path
         d="m 26.965789,221.32959 v 5.21591 h 0.579546 v -1.15909 h 2.318182 v -4.05682 z"
         id="path3699"
         style="color:#bebebe;display:inline;overflow:visible;visibility:visible;fill:#bebebe;fill-opacity:1;fill-rule:nonzero;stroke:none;stroke-width:2;marker:none" />
    </clipPath>
    <clipPath
       id="clipPath6279-2-3-0"
       clipPathUnits="userSpaceOnUse">
      <rect
         x="26.85"
         y="220.75"
         id="rect6281-5-3-9"
         height="6.3750005"
         style="color:#bebebe;display:inline;overflow:visible;visibility:visible;fill:#bebebe;fill-opacity:1;fill-rule:nonzero;stroke:none;stroke-width:2;marker:none"
         width="3.8250003" />
    </clipPath>
    <clipPath
       id="a">
      <path
         d="m -73,-30 -7,-7 v -4.5 h 16.5 v 4.5 l -7.5,7 z"
         fill="none"
         stroke="#000000"
         id="path2061" />
    </clipPath>
  </defs>
  <metadata
     id="metadata852">
    <rdf:RDF>
      <cc:Work
         rdf:about="">
        <dc:format>image/svg+xml</dc:format>
        <dc:type
           rdf:resource="http://purl.org/dc/dcmitype/StillImage" />
        <dc:title />
      </cc:Work>
    </rdf:RDF>
  </metadata>
  <g
     id="layer1"
     transform="translate(-84.666664,-59.266667)">
    <g
       id="topbar-network-wired-no-route"
       transform="translate(0,-25.399997)">
      <rect
         style="fill:#000000;stroke-width:0.529"
         id="rect5468"
         width="7.4083333"
         height="7.4083333"
         x="84.666664"
         y="84.666664"
         rx="1.0583333"
         ry="1.0583333" />
      <g
         fill="#2e3436"
         id="g1902"
         transform="matrix(0.26458333,0,0,0.26458333,86.254167,86.254167)"
         style="fill:#ffffff">
        <path
           d="M 5,1 V 5.361 C 5.396,4.911 5.893,4.543 6.469,4.305 A 3.99,3.99 0 0 1 8.203,4.008 C 8.833,4.04 9.447,4.235 10,4.555 V 1 Z M 8,6.01 C 7.74,6.01 7.48,6.05 7.234,6.152 7.481,6.05 7.741,6.037 8,6.049 Z M 2.031,8 v 3 H 0 v 4.938 H 5 V 11 H 3.031 V 9 H 4 V 8 Z M 9.98,8 a 1.96,1.96 0 0 1 10e-4,0 z m 2.011,0 c 0,0.334 -0.034,0.67 -0.119,1 h 1.098 v 2 H 11 v 4.938 h 5 V 11 H 13.969 V 9.984 H 14 V 8 Z"
           style="isolation:auto;mix-blend-mode:normal;solid-color:#000000;solid-opacity:1;fill:#ffffff;marker:none"
           color="#bebebe"
           overflow="visible"
           opacity="0.35"
           id="path1898" />
        <path
           d="M 8.152,5.006 A 2.992,2.992 0 0 0 5,8 H 7 C 7,7.592 7.24,7.232 7.617,7.076 A 0.994,0.994 0 0 1 8.707,7.293 0.994,0.994 0 0 1 8.924,8.383 0.994,0.994 0 0 1 8,9 1,1 0 0 0 7,10 v 2 H 9 V 10.82 A 2.998,2.998 0 0 0 10.771,9.148 3.006,3.006 0 0 0 10.121,5.878 3.001,3.001 0 0 0 8.152,5.006 Z M 8,13 a 1,1 0 0 0 -1,1 1,1 0 0 0 1,1 1,1 0 0 0 1,-1 1,1 0 0 0 -1,-1 z"
           style="line-height:normal;font-variant-ligatures:normal;font-variant-position:normal;font-variant-caps:normal;font-variant-numeric:normal;font-variant-alternates:normal;font-feature-settings:normal;text-indent:0;text-align:start;text-decoration:none;text-decoration-line:none;text-decoration-style:solid;text-decoration-color:#000000;text-transform:none;text-orientation:mixed;white-space:normal;shape-padding:0;isolation:auto;mix-blend-mode:normal;solid-color:#000000;solid-opacity:1;fill:#ffffff"
           color="#000000"
           font-weight="400"
           font-family="sans-serif"
           overflow="visible"
           id="path1900" />
      </g>
    </g>
  </g>
</svg>
