<?xml version="1.0" encoding="UTF-8" standalone="no"?>
<svg
   width="100"
   height="28"
   viewBox="0 0 26.458333 7.4083338"
   version="1.1"
   id="svg919"
   xmlns="http://www.w3.org/2000/svg"
   xmlns:svg="http://www.w3.org/2000/svg"
   xmlns:rdf="http://www.w3.org/1999/02/22-rdf-syntax-ns#"
   xmlns:cc="http://creativecommons.org/ns#"
   xmlns:dc="http://purl.org/dc/elements/1.1/">
  <defs
     id="defs849">
    <clipPath
       id="clipPath6279-3">
      <rect
         x="26.85"
         y="220.75"
         id="rect6281-9"
         height="6.3750005"
         width="3.8250003"
         style="color:#bebebe;display:inline;overflow:visible;visibility:visible;fill:#bebebe;fill-opacity:1;fill-rule:nonzero;stroke:none;stroke-width:2;marker:none" />
    </clipPath>
    <clipPath
       id="clipPath6265-334">
      <rect
         x="26.96591"
         y="221.32954"
         id="rect6267-61"
         height="5.21591"
         width="2.8977277"
         style="color:#bebebe;display:inline;overflow:visible;visibility:visible;fill:#bebebe;fill-opacity:1;fill-rule:nonzero;stroke:none;stroke-width:2;marker:none" />
    </clipPath>
    <clipPath
       id="clipPath6259-5">
      <rect
         x="26.998718"
         y="221.50153"
         id="rect6261-61"
         height="4.8734746"
         width="1.8762827"
         style="color:#bebebe;display:inline;overflow:visible;visibility:visible;fill:#bebebe;fill-opacity:1;stroke:none;stroke-width:2;marker:none" />
    </clipPath>
    <clipPath
       id="clipPath6259-8-8-8"
       clipPathUnits="userSpaceOnUse">
      <rect
         x="26.998718"
         y="221.50153"
         id="rect6261-6-0-7"
         height="4.8734746"
         style="color:#bebebe;display:inline;overflow:visible;visibility:visible;fill:#bebebe;fill-opacity:1;stroke:none;stroke-width:2;marker:none"
         width="1.8762827" />
    </clipPath>
    <clipPath
       id="clipPath6265-3-5-6"
       clipPathUnits="userSpaceOnUse">
      <rect
         x="26.96591"
         y="221.32954"
         id="rect6267-1-8-1"
         height="5.21591"
         style="color:#bebebe;display:inline;overflow:visible;visibility:visible;fill:#bebebe;fill-opacity:1;fill-rule:nonzero;stroke:none;stroke-width:2;marker:none"
         width="2.8977277" />
    </clipPath>
    <clipPath
       id="clipPath6279-2-3"
       clipPathUnits="userSpaceOnUse">
      <rect
         x="26.85"
         y="220.75"
         id="rect6281-5-3"
         height="6.3750005"
         style="color:#bebebe;display:inline;overflow:visible;visibility:visible;fill:#bebebe;fill-opacity:1;fill-rule:nonzero;stroke:none;stroke-width:2;marker:none"
         width="3.8250003" />
    </clipPath>
    <clipPath
       id="clipPath6279-3-3">
      <rect
         x="26.85"
         y="220.75"
         id="rect6281-9-6"
         height="6.3750005"
         width="3.8250003"
         style="color:#bebebe;display:inline;overflow:visible;visibility:visible;fill:#bebebe;fill-opacity:1;fill-rule:nonzero;stroke:none;stroke-width:2;marker:none" />
    </clipPath>
    <clipPath
       id="clipPath6265-334-7">
      <rect
         x="26.96591"
         y="221.32954"
         id="rect6267-61-5"
         height="5.21591"
         width="2.8977277"
         style="color:#bebebe;display:inline;overflow:visible;visibility:visible;fill:#bebebe;fill-opacity:1;fill-rule:nonzero;stroke:none;stroke-width:2;marker:none" />
    </clipPath>
    <clipPath
       id="clipPath6259-5-3">
      <rect
         x="26.998718"
         y="221.50153"
         id="rect6261-61-5"
         height="4.8734746"
         width="1.8762827"
         style="color:#bebebe;display:inline;overflow:visible;visibility:visible;fill:#bebebe;fill-opacity:1;stroke:none;stroke-width:2;marker:none" />
    </clipPath>
    <clipPath
       id="clipPath6279-2-3-6"
       clipPathUnits="userSpaceOnUse">
      <rect
         x="26.85"
         y="220.75"
         id="rect6281-5-3-2"
         height="6.3750005"
         style="color:#bebebe;display:inline;overflow:visible;visibility:visible;fill:#bebebe;fill-opacity:1;fill-rule:nonzero;stroke:none;stroke-width:2;marker:none"
         width="3.8250003" />
    </clipPath>
    <clipPath
       id="clipPath6265-3-5-6-9"
       clipPathUnits="userSpaceOnUse">
      <rect
         x="26.96591"
         y="221.32954"
         id="rect6267-1-8-1-1"
         height="5.21591"
         style="color:#bebebe;display:inline;overflow:visible;visibility:visible;fill:#bebebe;fill-opacity:1;fill-rule:nonzero;stroke:none;stroke-width:2;marker:none"
         width="2.8977277" />
    </clipPath>
    <clipPath
       id="clipPath6259-8-8-8-2"
       clipPathUnits="userSpaceOnUse">
      <rect
         x="26.998718"
         y="221.50153"
         id="rect6261-6-0-7-7"
         height="4.8734746"
         style="color:#bebebe;display:inline;overflow:visible;visibility:visible;fill:#bebebe;fill-opacity:1;stroke:none;stroke-width:2;marker:none"
         width="1.8762827" />
    </clipPath>
    <clipPath
       id="clipPath6279-7-9"
       clipPathUnits="userSpaceOnUse">
      <rect
         x="26.85"
         y="220.75"
         id="rect6281-1-9"
         height="6.3750005"
         style="color:#bebebe;display:inline;overflow:visible;visibility:visible;fill:#bebebe;fill-opacity:1;fill-rule:nonzero;stroke:none;stroke-width:2;marker:none"
         width="3.8250003" />
    </clipPath>
    <clipPath
       id="clipPath6265-3-4"
       clipPathUnits="userSpaceOnUse">
      <rect
         x="26.96591"
         y="221.32954"
         id="rect6267-1-9"
         height="5.21591"
         style="color:#bebebe;display:inline;overflow:visible;visibility:visible;fill:#bebebe;fill-opacity:1;fill-rule:nonzero;stroke:none;stroke-width:2;marker:none"
         width="2.8977277" />
    </clipPath>
    <clipPath
       id="clipPath6259-8-81"
       clipPathUnits="userSpaceOnUse">
      <rect
         x="26.998718"
         y="221.50153"
         id="rect6261-6-6"
         height="4.8734746"
         style="color:#bebebe;display:inline;overflow:visible;visibility:visible;fill:#bebebe;fill-opacity:1;stroke:none;stroke-width:2;marker:none"
         width="1.8762827" />
    </clipPath>
    <clipPath
       id="clipPath3668"
       clipPathUnits="userSpaceOnUse">
      <rect
         x="26.998718"
         y="221.50153"
         id="rect3670"
         height="3.3729413"
         width="1.8762826"
         style="color:#bebebe;display:inline;overflow:visible;visibility:visible;fill:#bebebe;fill-opacity:1;stroke:none;stroke-width:2;marker:none" />
    </clipPath>
    <clipPath
       id="clipPath3697"
       clipPathUnits="userSpaceOnUse">
      <path
         d="m 26.965789,221.32959 v 5.21591 h 0.579546 v -1.15909 h 2.318182 v -4.05682 z"
         id="path3699"
         style="color:#bebebe;display:inline;overflow:visible;visibility:visible;fill:#bebebe;fill-opacity:1;fill-rule:nonzero;stroke:none;stroke-width:2;marker:none" />
    </clipPath>
    <clipPath
       id="clipPath6279-2-3-0"
       clipPathUnits="userSpaceOnUse">
      <rect
         x="26.85"
         y="220.75"
         id="rect6281-5-3-9"
         height="6.3750005"
         style="color:#bebebe;display:inline;overflow:visible;visibility:visible;fill:#bebebe;fill-opacity:1;fill-rule:nonzero;stroke:none;stroke-width:2;marker:none"
         width="3.8250003" />
    </clipPath>
    <clipPath
       id="a">
      <path
         d="m -73,-30 -7,-7 v -4.5 h 16.5 v 4.5 l -7.5,7 z"
         fill="none"
         stroke="#000000"
         id="path2061" />
    </clipPath>
  </defs>
  <metadata
     id="metadata852">
    <rdf:RDF>
      <cc:Work
         rdf:about="">
        <dc:format>image/svg+xml</dc:format>
        <dc:type
           rdf:resource="http://purl.org/dc/dcmitype/StillImage" />
        <dc:title />
      </cc:Work>
    </rdf:RDF>
  </metadata>
  <g
     id="layer1"
     transform="translate(0,-8.4666662)">
    <g
       id="topbar-audio-volume">
      <rect
         style="fill:#000000;stroke-width:0.529"
         id="rect2296"
         width="7.4083333"
         height="7.4083333"
         x="9.5249996"
         y="8.4666662"
         rx="1.0583333"
         ry="1.0583333" />
      <g
         fill="#474747"
         id="g2526"
         transform="matrix(0.26634722,0,0,0.26634722,11.1125,10.052403)"
         style="fill:#ffffff">
        <path
           d="M 15,8 C 15,5.186 14,2.828 12.414,1 H 11 V 2.48 C 12.265,4 13,5.7 13,8 c 0,2.3 -0.78,4 -2,5.52 V 15 h 1.381 C 13.847,13.36 15,10.814 15,8 Z"
           style="fill:#ffffff;marker:none"
           color="#000000"
           overflow="visible"
           opacity="0.35"
           id="path2518" />
        <path
           d="M 12,8 C 12,5.834 11.261,3.98 10,3 H 9 v 2 c 0.607,0.789 1,1.76 1,3 0,1.241 -0.393,2.22 -1,3 v 2 h 1 c 1.223,-0.995 2,-2.873 2,-5 z"
           style="fill:#ffffff;marker:none"
           color="#000000"
           overflow="visible"
           id="path2520" />
        <path
           d="M 9,8 C 9,6.743 8.688,5.784 8,5 H 7 v 6 H 8 C 8.672,10.163 9,9.258 9,8 Z"
           style="line-height:normal;-inkscape-font-specification:Sans;text-indent:0;text-align:start;text-decoration:none;text-decoration-line:none;text-transform:none;fill:#ffffff;marker:none"
           color="#000000"
           font-weight="400"
           font-family="Sans"
           overflow="visible"
           id="path2522" />
        <path
           d="M 0,5 H 2.484 L 5.454,2 H 6 V 14 H 5.525 L 2.485,11 H 0 Z"
           style="fill:#ffffff;marker:none"
           color="#bebebe"
           overflow="visible"
           id="path2524" />
      </g>
      <rect
         style="fill:#000000;stroke-width:0.529"
         id="rect2248"
         width="7.4083333"
         height="7.4083333"
         x="0"
         y="8.4666662"
         rx="1.0583333"
         ry="1.0583333" />
      <g
         fill="#474747"
         id="g2592"
         transform="matrix(0.26458333,0,0,0.26458333,1.5875,10.054167)"
         style="fill:#ffffff">
        <path
           d="M 0,5 H 2.484 L 5.454,2 H 6 V 14 H 5.525 L 2.485,11 H 0 Z"
           style="fill:#ffffff;marker:none"
           color="#bebebe"
           overflow="visible"
           id="path2584" />
        <path
           d="M 15,8 C 15,5.186 14,2.828 12.414,1 H 11 V 2.48 C 12.265,4 13,5.7 13,8 c 0,2.3 -0.78,4 -2,5.52 V 15 h 1.381 C 13.847,13.36 15,10.814 15,8 Z"
           style="fill:#ffffff;marker:none"
           color="#000000"
           overflow="visible"
           id="path2586" />
        <path
           d="M 12,8 C 12,5.834 11.261,3.98 10,3 H 9 v 2 c 0.607,0.789 1,1.76 1,3 0,1.241 -0.393,2.22 -1,3 v 2 h 1 c 1.223,-0.995 2,-2.873 2,-5 z"
           style="fill:#ffffff;marker:none"
           color="#000000"
           overflow="visible"
           id="path2588" />
        <path
           d="M 9,8 C 9,6.743 8.688,5.784 8,5 H 7 v 6 H 8 C 8.672,10.163 9,9.258 9,8 Z"
           style="line-height:normal;-inkscape-font-specification:Sans;text-indent:0;text-align:start;text-decoration:none;text-decoration-line:none;text-transform:none;fill:#ffffff;marker:none"
           color="#000000"
           font-weight="400"
           font-family="Sans"
           overflow="visible"
           id="path2590" />
      </g>
      <rect
         style="fill:#000000;stroke-width:0.529"
         id="rect2300"
         width="7.4083333"
         height="7.4083333"
         x="19.049999"
         y="8.4666662"
         rx="1.0583333"
         ry="1.0583333" />
      <g
         fill="#474747"
         id="g2644"
         transform="matrix(0.26458333,0,0,0.26458333,20.637502,10.054167)"
         style="fill:#ffffff">
        <path
           d="M 0,5 H 2.484 L 5.454,2 H 6 V 14 H 5.525 L 2.485,11 H 0 Z"
           style="fill:#ffffff;marker:none"
           color="#bebebe"
           overflow="visible"
           id="path2636" />
        <path
           d="M 15,8 C 15,5.186 14,2.828 12.414,1 H 11 V 2.48 C 12.265,4 13,5.7 13,8 c 0,2.3 -0.78,4 -2,5.52 V 15 h 1.381 C 13.847,13.36 15,10.814 15,8 Z"
           style="fill:#ffffff;marker:none"
           color="#000000"
           overflow="visible"
           opacity="0.35"
           id="path2638" />
        <path
           d="M 12,8 C 12,5.834 11.261,3.98 10,3 H 9 v 2 c 0.607,0.789 1,1.76 1,3 0,1.241 -0.393,2.22 -1,3 v 2 h 1 c 1.223,-0.995 2,-2.873 2,-5 z"
           style="fill:#ffffff;marker:none"
           color="#000000"
           overflow="visible"
           opacity="0.35"
           id="path2640" />
        <path
           d="M 9,8 C 9,6.743 8.688,5.784 8,5 H 7 v 6 H 8 C 8.672,10.163 9,9.258 9,8 Z"
           style="line-height:normal;-inkscape-font-specification:Sans;text-indent:0;text-align:start;text-decoration:none;text-decoration-line:none;text-transform:none;fill:#ffffff;marker:none"
           color="#000000"
           font-weight="400"
           font-family="Sans"
           overflow="visible"
           id="path2642" />
      </g>
    </g>
  </g>
</svg>
