<?xml version="1.0" encoding="UTF-8" standalone="no"?>
<svg
   width="172"
   height="64.000008"
   viewBox="0 0 45.508333 16.933336"
   version="1.1"
   id="svg919"
   xmlns="http://www.w3.org/2000/svg"
   xmlns:svg="http://www.w3.org/2000/svg"
   xmlns:rdf="http://www.w3.org/1999/02/22-rdf-syntax-ns#"
   xmlns:cc="http://creativecommons.org/ns#"
   xmlns:dc="http://purl.org/dc/elements/1.1/">
  <defs
     id="defs849">
    <clipPath
       id="clipPath6279-3">
      <rect
         x="26.85"
         y="220.75"
         id="rect6281-9"
         height="6.3750005"
         width="3.8250003"
         style="color:#bebebe;display:inline;overflow:visible;visibility:visible;fill:#bebebe;fill-opacity:1;fill-rule:nonzero;stroke:none;stroke-width:2;marker:none" />
    </clipPath>
    <clipPath
       id="clipPath6265-334">
      <rect
         x="26.96591"
         y="221.32954"
         id="rect6267-61"
         height="5.21591"
         width="2.8977277"
         style="color:#bebebe;display:inline;overflow:visible;visibility:visible;fill:#bebebe;fill-opacity:1;fill-rule:nonzero;stroke:none;stroke-width:2;marker:none" />
    </clipPath>
    <clipPath
       id="clipPath6259-5">
      <rect
         x="26.998718"
         y="221.50153"
         id="rect6261-61"
         height="4.8734746"
         width="1.8762827"
         style="color:#bebebe;display:inline;overflow:visible;visibility:visible;fill:#bebebe;fill-opacity:1;stroke:none;stroke-width:2;marker:none" />
    </clipPath>
    <clipPath
       id="clipPath6259-8-8-8"
       clipPathUnits="userSpaceOnUse">
      <rect
         x="26.998718"
         y="221.50153"
         id="rect6261-6-0-7"
         height="4.8734746"
         style="color:#bebebe;display:inline;overflow:visible;visibility:visible;fill:#bebebe;fill-opacity:1;stroke:none;stroke-width:2;marker:none"
         width="1.8762827" />
    </clipPath>
    <clipPath
       id="clipPath6265-3-5-6"
       clipPathUnits="userSpaceOnUse">
      <rect
         x="26.96591"
         y="221.32954"
         id="rect6267-1-8-1"
         height="5.21591"
         style="color:#bebebe;display:inline;overflow:visible;visibility:visible;fill:#bebebe;fill-opacity:1;fill-rule:nonzero;stroke:none;stroke-width:2;marker:none"
         width="2.8977277" />
    </clipPath>
    <clipPath
       id="clipPath6279-2-3"
       clipPathUnits="userSpaceOnUse">
      <rect
         x="26.85"
         y="220.75"
         id="rect6281-5-3"
         height="6.3750005"
         style="color:#bebebe;display:inline;overflow:visible;visibility:visible;fill:#bebebe;fill-opacity:1;fill-rule:nonzero;stroke:none;stroke-width:2;marker:none"
         width="3.8250003" />
    </clipPath>
    <clipPath
       id="clipPath6279-3-3">
      <rect
         x="26.85"
         y="220.75"
         id="rect6281-9-6"
         height="6.3750005"
         width="3.8250003"
         style="color:#bebebe;display:inline;overflow:visible;visibility:visible;fill:#bebebe;fill-opacity:1;fill-rule:nonzero;stroke:none;stroke-width:2;marker:none" />
    </clipPath>
    <clipPath
       id="clipPath6265-334-7">
      <rect
         x="26.96591"
         y="221.32954"
         id="rect6267-61-5"
         height="5.21591"
         width="2.8977277"
         style="color:#bebebe;display:inline;overflow:visible;visibility:visible;fill:#bebebe;fill-opacity:1;fill-rule:nonzero;stroke:none;stroke-width:2;marker:none" />
    </clipPath>
    <clipPath
       id="clipPath6259-5-3">
      <rect
         x="26.998718"
         y="221.50153"
         id="rect6261-61-5"
         height="4.8734746"
         width="1.8762827"
         style="color:#bebebe;display:inline;overflow:visible;visibility:visible;fill:#bebebe;fill-opacity:1;stroke:none;stroke-width:2;marker:none" />
    </clipPath>
    <clipPath
       id="clipPath6279-2-3-6"
       clipPathUnits="userSpaceOnUse">
      <rect
         x="26.85"
         y="220.75"
         id="rect6281-5-3-2"
         height="6.3750005"
         style="color:#bebebe;display:inline;overflow:visible;visibility:visible;fill:#bebebe;fill-opacity:1;fill-rule:nonzero;stroke:none;stroke-width:2;marker:none"
         width="3.8250003" />
    </clipPath>
    <clipPath
       id="clipPath6265-3-5-6-9"
       clipPathUnits="userSpaceOnUse">
      <rect
         x="26.96591"
         y="221.32954"
         id="rect6267-1-8-1-1"
         height="5.21591"
         style="color:#bebebe;display:inline;overflow:visible;visibility:visible;fill:#bebebe;fill-opacity:1;fill-rule:nonzero;stroke:none;stroke-width:2;marker:none"
         width="2.8977277" />
    </clipPath>
    <clipPath
       id="clipPath6259-8-8-8-2"
       clipPathUnits="userSpaceOnUse">
      <rect
         x="26.998718"
         y="221.50153"
         id="rect6261-6-0-7-7"
         height="4.8734746"
         style="color:#bebebe;display:inline;overflow:visible;visibility:visible;fill:#bebebe;fill-opacity:1;stroke:none;stroke-width:2;marker:none"
         width="1.8762827" />
    </clipPath>
    <clipPath
       id="clipPath6279-7-9"
       clipPathUnits="userSpaceOnUse">
      <rect
         x="26.85"
         y="220.75"
         id="rect6281-1-9"
         height="6.3750005"
         style="color:#bebebe;display:inline;overflow:visible;visibility:visible;fill:#bebebe;fill-opacity:1;fill-rule:nonzero;stroke:none;stroke-width:2;marker:none"
         width="3.8250003" />
    </clipPath>
    <clipPath
       id="clipPath6265-3-4"
       clipPathUnits="userSpaceOnUse">
      <rect
         x="26.96591"
         y="221.32954"
         id="rect6267-1-9"
         height="5.21591"
         style="color:#bebebe;display:inline;overflow:visible;visibility:visible;fill:#bebebe;fill-opacity:1;fill-rule:nonzero;stroke:none;stroke-width:2;marker:none"
         width="2.8977277" />
    </clipPath>
    <clipPath
       id="clipPath6259-8-81"
       clipPathUnits="userSpaceOnUse">
      <rect
         x="26.998718"
         y="221.50153"
         id="rect6261-6-6"
         height="4.8734746"
         style="color:#bebebe;display:inline;overflow:visible;visibility:visible;fill:#bebebe;fill-opacity:1;stroke:none;stroke-width:2;marker:none"
         width="1.8762827" />
    </clipPath>
    <clipPath
       id="clipPath3668"
       clipPathUnits="userSpaceOnUse">
      <rect
         x="26.998718"
         y="221.50153"
         id="rect3670"
         height="3.3729413"
         width="1.8762826"
         style="color:#bebebe;display:inline;overflow:visible;visibility:visible;fill:#bebebe;fill-opacity:1;stroke:none;stroke-width:2;marker:none" />
    </clipPath>
    <clipPath
       id="clipPath3697"
       clipPathUnits="userSpaceOnUse">
      <path
         d="m 26.965789,221.32959 v 5.21591 h 0.579546 v -1.15909 h 2.318182 v -4.05682 z"
         id="path3699"
         style="color:#bebebe;display:inline;overflow:visible;visibility:visible;fill:#bebebe;fill-opacity:1;fill-rule:nonzero;stroke:none;stroke-width:2;marker:none" />
    </clipPath>
    <clipPath
       id="clipPath6279-2-3-0"
       clipPathUnits="userSpaceOnUse">
      <rect
         x="26.85"
         y="220.75"
         id="rect6281-5-3-9"
         height="6.3750005"
         style="color:#bebebe;display:inline;overflow:visible;visibility:visible;fill:#bebebe;fill-opacity:1;fill-rule:nonzero;stroke:none;stroke-width:2;marker:none"
         width="3.8250003" />
    </clipPath>
    <clipPath
       id="a">
      <path
         d="m -73,-30 -7,-7 v -4.5 h 16.5 v 4.5 l -7.5,7 z"
         fill="none"
         stroke="#000000"
         id="path2061" />
    </clipPath>
  </defs>
  <metadata
     id="metadata852">
    <rdf:RDF>
      <cc:Work
         rdf:about="">
        <dc:format>image/svg+xml</dc:format>
        <dc:type
           rdf:resource="http://purl.org/dc/dcmitype/StillImage" />
        <dc:title />
      </cc:Work>
    </rdf:RDF>
  </metadata>
  <g
     id="layer1"
     transform="translate(7.999999e-7,-93.133331)">
    <g
       id="topbar-battery-discharging">
      <rect
         style="fill:#000000;stroke-width:0.529"
         id="rect2412"
         width="7.4083333"
         height="7.4083333"
         x="-7.999999e-07"
         y="93.133331"
         rx="1.0583333"
         ry="1.0583333" />
      <g
         id="g5914"
         transform="translate(-8.4666671,33.866667)">
        <path
           class="error"
           d="m 13.758333,61.380727 h -0.529166 v -0.104511 l -5.3e-4,-0.0071 a 0.42915416,0.42915416 0 0 0 -0.110066,-0.268287 c -0.06244,-0.07355 -0.164042,-0.154517 -0.3175,-0.14605 h -1.299633 c -0.129646,0 -0.210609,0.05689 -0.27305,0.120385 -0.06244,0.0635 -0.115888,0.147109 -0.115888,0.272521 v 0.133086 h -0.529167 v 3.704166 H 11.90625 V 64.555771 H 11.1125 v -2.645878 h 0.529167 V 61.383902 H 12.7 v 0.525991 h 0.529167 v 0.79375 h 0.529166 z"
           style="line-height:normal;font-variant-ligatures:normal;font-variant-position:normal;font-variant-caps:normal;font-variant-numeric:normal;font-variant-alternates:normal;font-feature-settings:normal;text-indent:0;text-align:start;text-decoration:none;text-decoration-line:none;text-decoration-style:solid;text-decoration-color:#000000;text-transform:none;text-orientation:mixed;white-space:normal;shape-padding:0;isolation:auto;mix-blend-mode:normal;solid-color:#000000;solid-opacity:1;fill:#e01b24;stroke-width:0.264583;marker:none"
           color="#bebebe"
           font-weight="400"
           font-family="sans-serif"
           overflow="visible"
           fill="#e01b24"
           id="path5910" />
        <path
           class="error"
           d="m 12.402344,62.968227 a 0.22833541,0.22833541 0 0 0 -0.231511,0.23151 v 1.653646 c 0,0.130175 0.101336,0.23151 0.231511,0.23151 h 1.653646 a 0.22833541,0.22833541 0 0 0 0.23151,-0.23151 v -1.653646 a 0.22833541,0.22833541 0 0 0 -0.23151,-0.23151 z m 0.562239,0.264583 h 0.529167 v 0.661458 c 0,0 0,0.132292 -0.132292,0.132292 h -0.264583 c -0.132292,0 -0.132292,-0.132292 -0.132292,-0.132292 z m 0.132292,1.058333 h 0.264583 c 0.07329,0 0.132292,0.059 0.132292,0.132292 v 0.264583 c 0,0.07329 -0.059,0.132292 -0.132292,0.132292 h -0.264583 a 0.13202708,0.13202708 0 0 1 -0.132292,-0.132292 v -0.264583 c 0,-0.07329 0.059,-0.132292 0.132292,-0.132292 z"
           style="fill:#e01b24;stroke-width:0.264583;marker:none"
           color="#bebebe"
           overflow="visible"
           fill="#e01b24"
           id="path5912" />
      </g>
      <rect
         style="fill:#000000;stroke-width:0.529"
         id="rect2416"
         width="7.4083333"
         height="7.4083333"
         x="9.5249996"
         y="93.133331"
         rx="1.0583333"
         ry="1.0583333" />
      <path
         class="error"
         d="m 12.435418,97.893272 v 0.264583 h 0.529166 v -0.264583 z"
         fill="#e01b24"
         id="path5921"
         style="fill:#e01b24;stroke-width:0.264583" />
      <path
         d="m 12.559507,94.721447 c -0.129646,0 -0.210608,0.05689 -0.27305,0.120385 -0.06218,0.0635 -0.115623,0.147109 -0.115623,0.272521 v 0.133086 h -0.529166 v 3.704166 h 1.322916 v -0.529166 h -0.79375 v -2.645834 h 0.529167 v -0.525991 h 1.058333 v 0.525991 h 0.529167 v 0.79375 h 0.529167 v -1.322916 h -0.529167 v -0.104511 l -5.29e-4,-0.0071 a 0.42915416,0.42915416 0 0 0 -0.110067,-0.268331 c -0.06244,-0.07382 -0.164042,-0.154517 -0.3175,-0.14605 z"
         style="line-height:normal;font-variant-ligatures:normal;font-variant-position:normal;font-variant-caps:normal;font-variant-numeric:normal;font-variant-alternates:normal;font-feature-settings:normal;text-indent:0;text-align:start;text-decoration:none;text-decoration-line:none;text-decoration-style:solid;text-decoration-color:#000000;text-transform:none;text-orientation:mixed;white-space:normal;shape-padding:0;isolation:auto;mix-blend-mode:normal;solid-color:#000000;solid-opacity:1;fill:#ffffff;stroke-width:0.264583;marker:none"
         color="#bebebe"
         font-weight="400"
         font-family="sans-serif"
         overflow="visible"
         fill="#2e3436"
         id="path5923" />
      <path
         class="warning"
         d="m 13.460678,96.834939 a 0.22833541,0.22833541 0 0 0 -0.23151,0.23151 v 1.653646 c 0,0.130175 0.101335,0.23151 0.23151,0.23151 h 1.653646 a 0.22833541,0.22833541 0 0 0 0.23151,-0.23151 v -1.653646 a 0.22833541,0.22833541 0 0 0 -0.23151,-0.23151 z m 0.56224,0.264583 h 0.529166 v 0.661458 c 0,0 0,0.132292 -0.132291,0.132292 h -0.264584 c -0.132291,0 -0.132291,-0.132292 -0.132291,-0.132292 z m 0.132291,1.058333 h 0.264584 c 0.07329,0 0.132291,0.059 0.132291,0.132292 v 0.264583 c 0,0.07329 -0.059,0.132292 -0.132291,0.132292 H 14.155209 A 0.13202708,0.13202708 0 0 1 14.022918,98.55473 v -0.264583 c 0,-0.07329 0.059,-0.132292 0.132291,-0.132292 z"
         style="fill:#ff7800;stroke-width:0.264583;marker:none"
         color="#bebebe"
         overflow="visible"
         fill="#f57900"
         id="path5925" />
      <rect
         style="fill:#000000;stroke-width:0.529"
         id="rect2420"
         width="7.4083333"
         height="7.4083333"
         x="19.049999"
         y="93.133331"
         rx="1.0583333"
         ry="1.0583333" />
      <path
         class="warning"
         d="m 21.960418,97.631324 v 0.529166 h 1.5875 v -0.529166 z"
         fill="#f57900"
         id="path5936"
         style="fill:#ff7800;stroke-width:0.264583" />
      <path
         d="m 22.084507,94.720907 c -0.129646,0 -0.210608,0.05715 -0.27305,0.12065 -0.06218,0.0635 -0.115623,0.147108 -0.115623,0.272521 v 0.135996 h -0.529166 v 3.704166 h 3.175 v -3.704166 h -0.529167 v -0.107421 l -5.29e-4,-0.0074 a 0.42756666,0.42756666 0 0 0 -0.110067,-0.267758 c -0.06244,-0.07355 -0.164042,-0.154516 -0.3175,-0.14605 l 0.01508,-5.29e-4 z m 0.140494,0.529167 h 1.058333 v 0.529166 h 0.529167 v 2.645834 H 21.695834 V 95.77924 h 0.529167 z"
         style="line-height:normal;font-variant-ligatures:normal;font-variant-position:normal;font-variant-caps:normal;font-variant-numeric:normal;font-variant-alternates:normal;font-feature-settings:normal;text-indent:0;text-align:start;text-decoration:none;text-decoration-line:none;text-decoration-style:solid;text-decoration-color:#000000;text-transform:none;text-orientation:mixed;white-space:normal;shape-padding:0;isolation:auto;mix-blend-mode:normal;solid-color:#000000;solid-opacity:1;fill:#ffffff;stroke-width:0.264583;marker:none"
         color="#bebebe"
         font-weight="400"
         font-family="sans-serif"
         overflow="visible"
         fill="#2e3436"
         id="path5938" />
      <rect
         style="fill:#000000;stroke-width:0.529"
         id="rect2424"
         width="7.4083333"
         height="7.4083333"
         x="28.575001"
         y="93.133331"
         rx="1.0583333"
         ry="1.0583333" />
      <g
         fill="#2e3436"
         id="g5948"
         transform="matrix(0.26458333,0,0,0.26458333,30.162501,94.720916)"
         style="fill:#ffffff">
        <path
           d="m 5,11 v 2 h 6 v -2 z"
           id="path5944"
           style="fill:#ffffff" />
        <path
           d="M 5.469,0 C 4.979,0 4.673,0.216 4.437,0.456 4.202,0.696 4,1.012 4,1.486 V 2 H 2 V 16 H 14 V 2 H 12 V 1.594 L 11.998,1.566 A 1.616,1.616 0 0 0 11.582,0.554 C 11.346,0.276 10.962,-0.03 10.382,0.002 L 10.439,0 Z M 6,2 h 4 v 2 h 2 V 14 H 4 V 4 h 2 z"
           style="line-height:normal;font-variant-ligatures:normal;font-variant-position:normal;font-variant-caps:normal;font-variant-numeric:normal;font-variant-alternates:normal;font-feature-settings:normal;text-indent:0;text-align:start;text-decoration:none;text-decoration-line:none;text-decoration-style:solid;text-decoration-color:#000000;text-transform:none;text-orientation:mixed;white-space:normal;shape-padding:0;isolation:auto;mix-blend-mode:normal;solid-color:#000000;solid-opacity:1;fill:#ffffff;marker:none"
           color="#bebebe"
           font-weight="400"
           font-family="sans-serif"
           overflow="visible"
           id="path5946" />
      </g>
      <rect
         style="fill:#000000;stroke-width:0.529"
         id="rect2428"
         width="7.4083333"
         height="7.4083333"
         x="38.099998"
         y="93.133331"
         rx="1.0583333"
         ry="1.0583333" />
      <g
         fill="#2e3436"
         id="g5954"
         transform="matrix(0.26458333,0,0,0.26458333,39.687503,94.720916)"
         style="fill:#ffffff">
        <path
           d="m 5,10 v 3 h 6 v -3 z"
           id="path5950"
           style="fill:#ffffff" />
        <path
           d="M 5.469,0 C 4.979,0 4.673,0.216 4.437,0.456 4.202,0.696 4,1.012 4,1.486 V 2 H 2 V 16 H 14 V 2 H 12 V 1.594 L 11.998,1.566 A 1.616,1.616 0 0 0 11.582,0.554 C 11.346,0.276 10.962,-0.03 10.382,0.002 L 10.439,0 Z M 6,2 h 4 v 2 h 2 V 14 H 4 V 4 h 2 z"
           style="line-height:normal;font-variant-ligatures:normal;font-variant-position:normal;font-variant-caps:normal;font-variant-numeric:normal;font-variant-alternates:normal;font-feature-settings:normal;text-indent:0;text-align:start;text-decoration:none;text-decoration-line:none;text-decoration-style:solid;text-decoration-color:#000000;text-transform:none;text-orientation:mixed;white-space:normal;shape-padding:0;isolation:auto;mix-blend-mode:normal;solid-color:#000000;solid-opacity:1;fill:#ffffff;marker:none"
           color="#bebebe"
           font-weight="400"
           font-family="sans-serif"
           overflow="visible"
           id="path5952" />
      </g>
      <rect
         style="fill:#000000;stroke-width:0.529"
         id="rect2987"
         width="7.4083333"
         height="7.4083333"
         x="1.2353516e-07"
         y="102.65833"
         rx="1.0583333"
         ry="1.0583333" />
      <g
         fill="#2e3436"
         id="g5960"
         transform="matrix(0.26458333,0,0,0.26458333,1.587503,104.24274)"
         style="fill:#ffffff">
        <path
           d="M 5.469,0.014 C 4.979,0.014 4.673,0.228 4.437,0.469 4.202,0.709 4,1.025 4,1.498 V 2 H 2 V 16 H 14 V 2 H 12 V 1.607 L 11.998,1.58 A 1.622,1.622 0 0 0 11.582,0.566 c -0.236,-0.279 -0.62,-0.584 -1.2,-0.552 z m 0.531,2 h 4 V 4 h 2 V 14 H 4 V 4 h 2 z"
           style="line-height:normal;font-variant-ligatures:normal;font-variant-position:normal;font-variant-caps:normal;font-variant-numeric:normal;font-variant-alternates:normal;font-feature-settings:normal;text-indent:0;text-align:start;text-decoration:none;text-decoration-line:none;text-decoration-style:solid;text-decoration-color:#000000;text-transform:none;text-orientation:mixed;white-space:normal;shape-padding:0;isolation:auto;mix-blend-mode:normal;solid-color:#000000;solid-opacity:1;fill:#ffffff;marker:none"
           color="#bebebe"
           font-weight="400"
           font-family="sans-serif"
           overflow="visible"
           id="path5956" />
        <path
           d="m 5,9 v 4 h 6 V 9 Z"
           id="path5958"
           style="fill:#ffffff" />
      </g>
      <rect
         style="fill:#000000;stroke-width:0.529"
         id="rect2432"
         width="7.4083333"
         height="7.4083333"
         x="9.5249996"
         y="102.65833"
         rx="1.0583333"
         ry="1.0583333" />
      <g
         fill="#2e3436"
         id="g5966"
         transform="matrix(0.26458333,0,0,0.26458333,11.1125,104.24275)"
         style="fill:#ffffff">
        <path
           d="M 5.469,0.014 C 4.979,0.014 4.673,0.228 4.437,0.469 4.202,0.709 4,1.025 4,1.498 V 2 H 2 V 16 H 14 V 2 H 12 V 1.607 L 11.998,1.58 A 1.622,1.622 0 0 0 11.582,0.566 c -0.236,-0.279 -0.62,-0.584 -1.2,-0.552 z m 0.531,2 h 4 V 4 h 2 V 14 H 4 V 4 h 2 z"
           style="line-height:normal;font-variant-ligatures:normal;font-variant-position:normal;font-variant-caps:normal;font-variant-numeric:normal;font-variant-alternates:normal;font-feature-settings:normal;text-indent:0;text-align:start;text-decoration:none;text-decoration-line:none;text-decoration-style:solid;text-decoration-color:#000000;text-transform:none;text-orientation:mixed;white-space:normal;shape-padding:0;isolation:auto;mix-blend-mode:normal;solid-color:#000000;solid-opacity:1;fill:#ffffff;marker:none"
           color="#bebebe"
           font-weight="400"
           font-family="sans-serif"
           overflow="visible"
           id="path5962" />
        <path
           d="m 5,8 v 5 h 6 V 8 Z"
           id="path5964"
           style="fill:#ffffff" />
      </g>
      <rect
         style="fill:#000000;stroke-width:0.529"
         id="rect2436"
         width="7.4083333"
         height="7.4083333"
         x="19.049999"
         y="102.65833"
         rx="1.0583333"
         ry="1.0583333" />
      <g
         fill="#2e3436"
         id="g5972"
         transform="matrix(0.26458333,0,0,0.26458333,20.637501,104.24592)"
         style="fill:#ffffff">
        <path
           d="M 5.469,0 C 4.979,0 4.673,0.216 4.437,0.456 4.202,0.696 4,1.012 4,1.486 V 2 H 2 V 16 H 14 V 2 H 12 V 1.594 L 11.998,1.566 A 1.616,1.616 0 0 0 11.582,0.554 C 11.346,0.276 10.962,-0.03 10.382,0.002 L 10.438,0 Z M 6,2 h 4 v 2 h 2 V 14 H 4 V 4 h 2 z"
           style="line-height:normal;font-variant-ligatures:normal;font-variant-position:normal;font-variant-caps:normal;font-variant-numeric:normal;font-variant-alternates:normal;font-feature-settings:normal;text-indent:0;text-align:start;text-decoration:none;text-decoration-line:none;text-decoration-style:solid;text-decoration-color:#000000;text-transform:none;text-orientation:mixed;white-space:normal;shape-padding:0;isolation:auto;mix-blend-mode:normal;solid-color:#000000;solid-opacity:1;fill:#ffffff;marker:none"
           color="#bebebe"
           font-weight="400"
           font-family="sans-serif"
           overflow="visible"
           id="path5968" />
        <path
           d="m 5,7 v 6 h 6 V 7 Z"
           style="fill:#ffffff;marker:none"
           color="#000000"
           overflow="visible"
           id="path5970" />
      </g>
      <rect
         style="fill:#000000;stroke-width:0.529"
         id="rect2440"
         width="7.4083333"
         height="7.4083333"
         x="28.575001"
         y="102.65833"
         rx="1.0583333"
         ry="1.0583333" />
      <g
         fill="#2e3436"
         id="g5978"
         transform="matrix(0.26458333,0,0,0.26458333,30.162502,104.24592)"
         style="fill:#ffffff">
        <path
           d="M 5.469,0 C 4.979,0 4.673,0.216 4.437,0.456 4.202,0.696 4,1.012 4,1.486 V 2 H 2 V 16 H 14 V 2 H 12 V 1.594 L 11.998,1.566 A 1.616,1.616 0 0 0 11.582,0.554 C 11.346,0.276 10.962,-0.03 10.382,0.002 L 10.438,0 Z M 6,2 h 4 v 2 h 2 V 14 H 4 V 4 h 2 z"
           style="line-height:normal;font-variant-ligatures:normal;font-variant-position:normal;font-variant-caps:normal;font-variant-numeric:normal;font-variant-alternates:normal;font-feature-settings:normal;text-indent:0;text-align:start;text-decoration:none;text-decoration-line:none;text-decoration-style:solid;text-decoration-color:#000000;text-transform:none;text-orientation:mixed;white-space:normal;shape-padding:0;isolation:auto;mix-blend-mode:normal;solid-color:#000000;solid-opacity:1;fill:#ffffff;marker:none"
           color="#bebebe"
           font-weight="400"
           font-family="sans-serif"
           overflow="visible"
           id="path5974" />
        <path
           d="m 5,6 v 7 h 6 V 6 Z"
           style="fill:#ffffff;marker:none"
           color="#000000"
           overflow="visible"
           id="path5976" />
      </g>
      <rect
         style="fill:#000000;stroke-width:0.529"
         id="rect2444"
         width="7.4083333"
         height="7.4083333"
         x="38.099998"
         y="102.65833"
         rx="1.0583333"
         ry="1.0583333" />
      <g
         fill="#2e3436"
         id="g5984"
         transform="matrix(0.26458333,0,0,0.26458333,39.687501,104.24592)"
         style="fill:#000000">
        <path
           d="M 5.469,0 C 4.979,0 4.673,0.216 4.437,0.456 4.202,0.696 4,1.012 4,1.486 V 2 H 2 V 16 H 14 V 2 H 12 V 1.594 L 11.998,1.566 A 1.616,1.616 0 0 0 11.582,0.554 C 11.346,0.276 10.962,-0.03 10.382,0.002 L 10.439,0 Z M 6,2 h 4 v 2 h 2 V 14 H 4 V 4 h 2 z"
           style="line-height:normal;font-variant-ligatures:normal;font-variant-position:normal;font-variant-caps:normal;font-variant-numeric:normal;font-variant-alternates:normal;font-feature-settings:normal;text-indent:0;text-align:start;text-decoration:none;text-decoration-line:none;text-decoration-style:solid;text-decoration-color:#000000;text-transform:none;text-orientation:mixed;white-space:normal;shape-padding:0;isolation:auto;mix-blend-mode:normal;solid-color:#000000;solid-opacity:1;fill:#000000;marker:none"
           color="#bebebe"
           font-weight="400"
           font-family="sans-serif"
           overflow="visible"
           id="path5980" />
        <path
           d="m 5,5 v 8 h 6 V 5 Z"
           style="fill:#000000;marker:none"
           color="#000000"
           overflow="visible"
           id="path5982" />
      </g>
      <g
         fill="#2e3436"
         id="g6334"
         transform="matrix(0.26458333,0,0,0.26458333,39.687501,104.24592)"
         style="fill:#ffffff">
        <path
           d="M 5.469,0 C 4.979,0 4.673,0.216 4.437,0.456 4.202,0.696 4,1.012 4,1.486 V 2 H 2 V 16 H 14 V 2 H 12 V 1.594 L 11.998,1.566 A 1.616,1.616 0 0 0 11.582,0.554 C 11.346,0.276 10.962,-0.03 10.382,0.002 L 10.439,0 Z M 6,2 h 4 v 2 h 2 V 14 H 4 V 4 h 2 z"
           style="line-height:normal;font-variant-ligatures:normal;font-variant-position:normal;font-variant-caps:normal;font-variant-numeric:normal;font-variant-alternates:normal;font-feature-settings:normal;text-indent:0;text-align:start;text-decoration:none;text-decoration-line:none;text-decoration-style:solid;text-decoration-color:#000000;text-transform:none;text-orientation:mixed;white-space:normal;shape-padding:0;isolation:auto;mix-blend-mode:normal;solid-color:#000000;solid-opacity:1;fill:#ffffff;marker:none"
           color="#bebebe"
           font-weight="400"
           font-family="sans-serif"
           overflow="visible"
           id="path6330" />
        <path
           d="m 5,5 v 8 h 6 V 5 Z"
           style="fill:#ffffff;marker:none"
           color="#000000"
           overflow="visible"
           id="path6332" />
      </g>
    </g>
  </g>
</svg>
