<?xml version="1.0" encoding="UTF-8" standalone="no"?>
<svg
   xmlns:dc="http://purl.org/dc/elements/1.1/"
   xmlns:cc="http://creativecommons.org/ns#"
   xmlns:rdf="http://www.w3.org/1999/02/22-rdf-syntax-ns#"
   xmlns:svg="http://www.w3.org/2000/svg"
   xmlns="http://www.w3.org/2000/svg"
   width="28"
   height="28"
   viewBox="0 0 7.4083333 7.4083338"
   version="1.1"
   id="svg919">
  <defs
     id="defs849">
    <clipPath
       id="clipPath6279-3">
      <rect
         x="26.85"
         y="220.75"
         id="rect6281-9"
         height="6.3750005"
         width="3.8250003"
         style="color:#bebebe;display:inline;overflow:visible;visibility:visible;fill:#bebebe;fill-opacity:1;fill-rule:nonzero;stroke:none;stroke-width:2;marker:none" />
    </clipPath>
    <clipPath
       id="clipPath6265-334">
      <rect
         x="26.96591"
         y="221.32954"
         id="rect6267-61"
         height="5.21591"
         width="2.8977277"
         style="color:#bebebe;display:inline;overflow:visible;visibility:visible;fill:#bebebe;fill-opacity:1;fill-rule:nonzero;stroke:none;stroke-width:2;marker:none" />
    </clipPath>
    <clipPath
       id="clipPath6259-5">
      <rect
         x="26.998718"
         y="221.50153"
         id="rect6261-61"
         height="4.8734746"
         width="1.8762827"
         style="color:#bebebe;display:inline;overflow:visible;visibility:visible;fill:#bebebe;fill-opacity:1;stroke:none;stroke-width:2;marker:none" />
    </clipPath>
    <clipPath
       id="clipPath6259-8-8-8"
       clipPathUnits="userSpaceOnUse">
      <rect
         x="26.998718"
         y="221.50153"
         id="rect6261-6-0-7"
         height="4.8734746"
         style="color:#bebebe;display:inline;overflow:visible;visibility:visible;fill:#bebebe;fill-opacity:1;stroke:none;stroke-width:2;marker:none"
         width="1.8762827" />
    </clipPath>
    <clipPath
       id="clipPath6265-3-5-6"
       clipPathUnits="userSpaceOnUse">
      <rect
         x="26.96591"
         y="221.32954"
         id="rect6267-1-8-1"
         height="5.21591"
         style="color:#bebebe;display:inline;overflow:visible;visibility:visible;fill:#bebebe;fill-opacity:1;fill-rule:nonzero;stroke:none;stroke-width:2;marker:none"
         width="2.8977277" />
    </clipPath>
    <clipPath
       id="clipPath6279-2-3"
       clipPathUnits="userSpaceOnUse">
      <rect
         x="26.85"
         y="220.75"
         id="rect6281-5-3"
         height="6.3750005"
         style="color:#bebebe;display:inline;overflow:visible;visibility:visible;fill:#bebebe;fill-opacity:1;fill-rule:nonzero;stroke:none;stroke-width:2;marker:none"
         width="3.8250003" />
    </clipPath>
    <clipPath
       id="clipPath6279-3-3">
      <rect
         x="26.85"
         y="220.75"
         id="rect6281-9-6"
         height="6.3750005"
         width="3.8250003"
         style="color:#bebebe;display:inline;overflow:visible;visibility:visible;fill:#bebebe;fill-opacity:1;fill-rule:nonzero;stroke:none;stroke-width:2;marker:none" />
    </clipPath>
    <clipPath
       id="clipPath6265-334-7">
      <rect
         x="26.96591"
         y="221.32954"
         id="rect6267-61-5"
         height="5.21591"
         width="2.8977277"
         style="color:#bebebe;display:inline;overflow:visible;visibility:visible;fill:#bebebe;fill-opacity:1;fill-rule:nonzero;stroke:none;stroke-width:2;marker:none" />
    </clipPath>
    <clipPath
       id="clipPath6259-5-3">
      <rect
         x="26.998718"
         y="221.50153"
         id="rect6261-61-5"
         height="4.8734746"
         width="1.8762827"
         style="color:#bebebe;display:inline;overflow:visible;visibility:visible;fill:#bebebe;fill-opacity:1;stroke:none;stroke-width:2;marker:none" />
    </clipPath>
    <clipPath
       id="clipPath6279-2-3-6"
       clipPathUnits="userSpaceOnUse">
      <rect
         x="26.85"
         y="220.75"
         id="rect6281-5-3-2"
         height="6.3750005"
         style="color:#bebebe;display:inline;overflow:visible;visibility:visible;fill:#bebebe;fill-opacity:1;fill-rule:nonzero;stroke:none;stroke-width:2;marker:none"
         width="3.8250003" />
    </clipPath>
    <clipPath
       id="clipPath6265-3-5-6-9"
       clipPathUnits="userSpaceOnUse">
      <rect
         x="26.96591"
         y="221.32954"
         id="rect6267-1-8-1-1"
         height="5.21591"
         style="color:#bebebe;display:inline;overflow:visible;visibility:visible;fill:#bebebe;fill-opacity:1;fill-rule:nonzero;stroke:none;stroke-width:2;marker:none"
         width="2.8977277" />
    </clipPath>
    <clipPath
       id="clipPath6259-8-8-8-2"
       clipPathUnits="userSpaceOnUse">
      <rect
         x="26.998718"
         y="221.50153"
         id="rect6261-6-0-7-7"
         height="4.8734746"
         style="color:#bebebe;display:inline;overflow:visible;visibility:visible;fill:#bebebe;fill-opacity:1;stroke:none;stroke-width:2;marker:none"
         width="1.8762827" />
    </clipPath>
    <clipPath
       id="clipPath6279-7-9"
       clipPathUnits="userSpaceOnUse">
      <rect
         x="26.85"
         y="220.75"
         id="rect6281-1-9"
         height="6.3750005"
         style="color:#bebebe;display:inline;overflow:visible;visibility:visible;fill:#bebebe;fill-opacity:1;fill-rule:nonzero;stroke:none;stroke-width:2;marker:none"
         width="3.8250003" />
    </clipPath>
    <clipPath
       id="clipPath6265-3-4"
       clipPathUnits="userSpaceOnUse">
      <rect
         x="26.96591"
         y="221.32954"
         id="rect6267-1-9"
         height="5.21591"
         style="color:#bebebe;display:inline;overflow:visible;visibility:visible;fill:#bebebe;fill-opacity:1;fill-rule:nonzero;stroke:none;stroke-width:2;marker:none"
         width="2.8977277" />
    </clipPath>
    <clipPath
       id="clipPath6259-8-81"
       clipPathUnits="userSpaceOnUse">
      <rect
         x="26.998718"
         y="221.50153"
         id="rect6261-6-6"
         height="4.8734746"
         style="color:#bebebe;display:inline;overflow:visible;visibility:visible;fill:#bebebe;fill-opacity:1;stroke:none;stroke-width:2;marker:none"
         width="1.8762827" />
    </clipPath>
    <clipPath
       id="clipPath3668"
       clipPathUnits="userSpaceOnUse">
      <rect
         x="26.998718"
         y="221.50153"
         id="rect3670"
         height="3.3729413"
         width="1.8762826"
         style="color:#bebebe;display:inline;overflow:visible;visibility:visible;fill:#bebebe;fill-opacity:1;stroke:none;stroke-width:2;marker:none" />
    </clipPath>
    <clipPath
       id="clipPath3697"
       clipPathUnits="userSpaceOnUse">
      <path
         d="m 26.965789,221.32959 v 5.21591 h 0.579546 v -1.15909 h 2.318182 v -4.05682 z"
         id="path3699"
         style="color:#bebebe;display:inline;overflow:visible;visibility:visible;fill:#bebebe;fill-opacity:1;fill-rule:nonzero;stroke:none;stroke-width:2;marker:none" />
    </clipPath>
    <clipPath
       id="clipPath6279-2-3-0"
       clipPathUnits="userSpaceOnUse">
      <rect
         x="26.85"
         y="220.75"
         id="rect6281-5-3-9"
         height="6.3750005"
         style="color:#bebebe;display:inline;overflow:visible;visibility:visible;fill:#bebebe;fill-opacity:1;fill-rule:nonzero;stroke:none;stroke-width:2;marker:none"
         width="3.8250003" />
    </clipPath>
    <clipPath
       id="a">
      <path
         d="m -73,-30 -7,-7 v -4.5 h 16.5 v 4.5 l -7.5,7 z"
         fill="none"
         stroke="#000000"
         id="path2061" />
    </clipPath>
  </defs>
  <metadata
     id="metadata852">
    <rdf:RDF>
      <cc:Work
         rdf:about="">
        <dc:format>image/svg+xml</dc:format>
        <dc:type
           rdf:resource="http://purl.org/dc/dcmitype/StillImage" />
        <dc:title />
      </cc:Work>
    </rdf:RDF>
  </metadata>
  <g
     id="layer1"
     transform="translate(-84.666664)">
    <g
       id="topbar-night-light">
      <rect
         style="fill:#000000;stroke-width:0.529"
         id="rect2831"
         width="7.4083333"
         height="7.4083333"
         x="84.666664"
         y="0"
         rx="1.0583333"
         ry="1.0583333" />
      <g
         style="fill:#ffffff;enable-background:new"
         id="g2485"
         transform="matrix(0.26458333,0,0,0.26458333,86.253389,1.5875)">
        <g
           id="g2458"
           transform="translate(-171.99974,-171.99414)"
           style="fill:#ffffff" />
        <g
           id="g2464"
           transform="translate(-171.99974,-107.99414)"
           style="fill:#ffffff">
          <path
             d="m 180,111 c -2.74958,0 -5,2.25042 -5,5 0,2.74958 2.25042,5 5,5 2.74958,0 5,-2.25042 5,-5 0,-2.74958 -2.25042,-5 -5,-5 z m 0,2 c 0.18647,0 0.36631,0.0228 0.54297,0.0547 A 2,2 0 0 0 179,115 a 2,2 0 0 0 2,2 2,2 0 0 0 1.94531,-1.54688 C 182.97762,115.63096 183,115.8122 183,116 c 0,0.1965 -0.0213,0.38674 -0.0566,0.57227 a 3,3 0 0 1 -0.0215,0.0918 c -0.0342,0.15351 -0.0802,0.30197 -0.13672,0.44532 a 3,3 0 0 1 -0.0566,0.13281 c -0.0546,0.12079 -0.11806,0.23623 -0.1875,0.34765 a 3,3 0 0 1 -0.10937,0.16211 c -0.0731,0.10167 -0.15326,0.19763 -0.23829,0.28907 a 3,3 0 0 1 -0.10351,0.11132 3,3 0 0 1 -0.0293,0.0254 c -0.0914,0.0864 -0.18918,0.16588 -0.29102,0.24024 a 3,3 0 0 1 -0.14648,0.10351 3,3 0 0 1 -0.002,0.002 c -0.1198,0.0767 -0.24607,0.14385 -0.37695,0.20312 a 3,3 0 0 1 -0.11915,0.0527 c -0.14805,0.0593 -0.30193,0.1071 -0.46093,0.14258 a 3,3 0 0 1 -0.0918,0.0215 C 180.38674,118.97866 180.1965,119 180,119 c -0.1965,0 -0.38675,-0.0213 -0.57227,-0.0566 a 3,3 0 0 1 -0.0918,-0.0215 c -0.15351,-0.0343 -0.30197,-0.0802 -0.44531,-0.13672 a 3,3 0 0 1 -0.13281,-0.0566 c -0.1208,-0.0546 -0.23623,-0.11807 -0.34766,-0.1875 a 3,3 0 0 1 -0.16211,-0.10938 c -0.10167,-0.0731 -0.19763,-0.15326 -0.28906,-0.23828 a 3,3 0 0 1 -0.11133,-0.10352 3,3 0 0 1 -0.0254,-0.0293 c -0.0864,-0.0914 -0.16587,-0.18918 -0.24023,-0.29102 a 3,3 0 0 1 -0.10352,-0.14648 3,3 0 0 1 -0.002,-0.002 c -0.0767,-0.1198 -0.14385,-0.24607 -0.20312,-0.37695 a 3,3 0 0 1 -0.0527,-0.11914 c -0.0593,-0.14806 -0.1071,-0.30194 -0.14258,-0.46094 a 3,3 0 0 1 -0.0215,-0.0918 C 177.02134,116.38674 177,116.1965 177,116 c 0,-0.1965 0.0213,-0.38674 0.0566,-0.57227 a 3,3 0 0 1 0.0215,-0.0918 c 0.0342,-0.15351 0.0802,-0.30197 0.13672,-0.44532 a 3,3 0 0 1 0.0566,-0.13281 c 0.0546,-0.12079 0.11806,-0.23623 0.1875,-0.34765 a 3,3 0 0 1 0.10937,-0.16211 c 0.0731,-0.10167 0.15326,-0.19763 0.23829,-0.28907 a 3,3 0 0 1 0.10351,-0.11132 3,3 0 0 1 0.0293,-0.0254 c 0.0914,-0.0864 0.18918,-0.16588 0.29102,-0.24024 a 3,3 0 0 1 0.14648,-0.10351 3,3 0 0 1 0.002,-0.002 c 0.1198,-0.0767 0.24607,-0.14385 0.37695,-0.20312 a 3,3 0 0 1 0.11914,-0.0527 c 0.14806,-0.0593 0.30194,-0.1071 0.46094,-0.14258 a 3,3 0 0 1 0.0918,-0.0215 C 179.61325,113.02134 179.8035,113 180,113 Z"
             id="path2460"
             style="color:#000000;font-style:normal;font-variant:normal;font-weight:normal;font-stretch:normal;font-size:medium;line-height:normal;font-family:sans-serif;font-variant-ligatures:normal;font-variant-position:normal;font-variant-caps:normal;font-variant-numeric:normal;font-variant-alternates:normal;font-feature-settings:normal;text-indent:0;text-align:start;text-decoration:none;text-decoration-line:none;text-decoration-style:solid;text-decoration-color:#000000;letter-spacing:normal;word-spacing:normal;text-transform:none;writing-mode:lr-tb;direction:ltr;text-orientation:mixed;dominant-baseline:auto;baseline-shift:baseline;text-anchor:start;white-space:normal;shape-padding:0;clip-rule:nonzero;display:inline;overflow:visible;visibility:visible;isolation:auto;mix-blend-mode:normal;color-interpolation:sRGB;color-interpolation-filters:linearRGB;solid-color:#000000;solid-opacity:1;vector-effect:none;fill:#ffffff;fill-opacity:1;fill-rule:nonzero;stroke:none;stroke-width:2;stroke-linecap:butt;stroke-linejoin:miter;stroke-miterlimit:4;stroke-dasharray:none;stroke-dashoffset:56;stroke-opacity:1;color-rendering:auto;image-rendering:auto;shape-rendering:auto;text-rendering:auto;enable-background:accumulate" />
          <path
             d="M 179.49974,121.99414 H 180.5 c 0.277,0 0.5,0.223 0.5,0.5 V 123.5 c 0,0.277 -0.223,0.5 -0.5,0.5 h -1.00026 c -0.277,0 -0.5,-0.223 -0.5,-0.5 v -1.00586 c 0,-0.277 0.223,-0.5 0.5,-0.5 z m 6.50268,-5.50122 v -0.99414 c 0,-0.277 0.223,-0.5 0.5,-0.5 h 1.00026 c 0.277,0 0.5,0.223 0.5,0.5 v 0.99414 c 0,0.277 -0.223,0.5 -0.5,0.5 h -1.00026 c -0.277,0 -0.5,-0.223 -0.5,-0.5 z m -13.99974,0.006 v -1.00586 c 0,-0.277 0.223,-0.5 0.5,-0.5 h 0.99974 c 0.277,0 0.5,0.223 0.5,0.5 v 1.00586 c 0,0.277 -0.223,0.5 -0.5,0.5 h -0.99974 c -0.277,0 -0.5,-0.223 -0.5,-0.5 z m 11.89012,4.09309 0.70296,-0.70296 c 0.19587,-0.19587 0.51124,-0.19587 0.70711,0 l 0.70729,0.70729 c 0.19587,0.19586 0.19587,0.51123 0,0.7071 l -0.70296,0.70297 c -0.19587,0.19586 -0.51124,0.19586 -0.70711,0 l -0.70729,-0.70729 c -0.19587,-0.19587 -0.19587,-0.51124 0,-0.70711 z m -9.90346,-9.89517 0.71125,-0.71125 c 0.19587,-0.19587 0.51124,-0.19587 0.70711,0 l 0.70692,0.70692 c 0.19587,0.19587 0.19587,0.51124 0,0.70711 l -0.71125,0.71125 c -0.19586,0.19587 -0.51123,0.19587 -0.7071,0 l -0.70693,-0.70692 c -0.19587,-0.19587 -0.19587,-0.51124 0,-0.70711 z m 1.41646,9.19135 0.70296,0.70296 c 0.19587,0.19587 0.19587,0.51124 0,0.70711 l -0.70729,0.70729 c -0.19587,0.19587 -0.51124,0.19587 -0.7071,0 l -0.70297,-0.70296 c -0.19587,-0.19587 -0.19587,-0.51124 0,-0.70711 l 0.70729,-0.70729 c 0.19587,-0.19587 0.51124,-0.19587 0.70711,0 z m 9.89517,-9.90345 0.71125,0.71125 c 0.19587,0.19586 0.19587,0.51123 0,0.7071 l -0.70693,0.70693 c -0.19586,0.19586 -0.51123,0.19586 -0.7071,0 l -0.71125,-0.71126 c -0.19587,-0.19586 -0.19587,-0.51123 0,-0.7071 l 0.70692,-0.70692 c 0.19587,-0.19587 0.51124,-0.19587 0.70711,0 z m -5.80123,-1.99046 H 180.5 c 0.277,0 0.5,0.223 0.5,0.5 V 109.5 c 0,0.277 -0.223,0.5 -0.5,0.5 h -1.00026 c -0.277,0 -0.5,-0.223 -0.5,-0.5 v -1.00586 c 0,-0.277 0.223,-0.5 0.5,-0.5 z"
             id="path2462"
             style="fill:#ffffff;fill-opacity:0.35;stroke:none;stroke-width:2;stroke-linecap:butt;stroke-linejoin:miter;stroke-miterlimit:4;stroke-dasharray:none;stroke-dashoffset:56;stroke-opacity:1" />
        </g>
        <g
           id="g2466"
           transform="translate(-171.99974,-171.99414)"
           style="fill:#ffffff" />
        <g
           id="g2468"
           transform="translate(-171.99974,-107.99414)"
           style="fill:#ffffff" />
        <g
           id="g2470"
           transform="translate(-171.99974,-107.99414)"
           style="fill:#ffffff" />
        <g
           id="g2472"
           transform="translate(-171.99974,-107.99414)"
           style="fill:#ffffff" />
        <g
           id="g2474"
           transform="translate(-171.99974,-107.99414)"
           style="fill:#ffffff" />
        <g
           id="g2476"
           transform="translate(-171.99974,-107.99414)"
           style="fill:#ffffff" />
        <g
           id="g2478"
           transform="translate(-171.99974,-107.99414)"
           style="fill:#ffffff" />
        <g
           id="g2481"
           transform="translate(-171.99974,-107.99414)"
           style="fill:#ffffff" />
        <g
           id="g2483"
           transform="translate(-171.99974,-107.99414)"
           style="fill:#ffffff" />
      </g>
    </g>
  </g>
</svg>
